<?xml version="1.0" standalone="no"?>
<!DOCTYPE svg PUBLIC "-//W3C//DTD SVG 1.1//EN" "http://www.w3.org/Graphics/SVG/1.1/DTD/svg11.dtd" >
<svg xmlns="http://www.w3.org/2000/svg" xmlns:xlink="http://www.w3.org/1999/xlink" version="1.1">
<metadata>
Created by FontForge 20170731 at Thu Apr 25 12:53:22 2019
 By Aleksey,,,
Factory738
</metadata>
<defs>
<font id="LeoRoundedLight" horiz-adv-x="784" >
  <font-face 
    font-family="Leo Rounded Light"
    font-weight="400"
    font-stretch="normal"
    units-per-em="1000"
    panose-1="0 0 0 0 0 0 0 0 0 0"
    ascent="800"
    descent="-200"
    x-height="684"
    cap-height="770"
    bbox="49.3714 -201 888.786 870"
    underline-thickness="50"
    underline-position="-200"
    unicode-range="U+000A-2122"
  />
<missing-glyph horiz-adv-x="527" 
d="M50 700h427v-700h-427v700zM78 680l185 -309l186 309h-371zM251 350l-180 300v-601zM264 329l-185 -308h370zM276 350l181 -303v605z" />
    <glyph glyph-name=".notdef" horiz-adv-x="527" 
d="M50 700h427v-700h-427v700zM78 680l185 -309l186 309h-371zM251 350l-180 300v-601zM264 329l-185 -308h370zM276 350l181 -303v605z" />
    <glyph glyph-name=".null" horiz-adv-x="0" 
 />
    <glyph glyph-name=".null" horiz-adv-x="0" 
 />
    <glyph glyph-name="nonmarkingreturn" horiz-adv-x="333" 
 />
    <glyph glyph-name="controlLF" unicode="&#xa;" horiz-adv-x="0" 
 />
    <glyph glyph-name="controlCR" unicode="&#xd;" horiz-adv-x="0" 
 />
    <glyph glyph-name="space" unicode=" " horiz-adv-x="260" 
 />
    <glyph glyph-name="exclam" unicode="!" horiz-adv-x="186" 
d="M91 168q-12 0 -20.5 8.5t-8.5 20.5v460q0 12 8.5 20.5t20.5 8.5t20 -8.5t8 -20.5v-460q0 -12 -8 -20.5t-20 -8.5zM92.5 1q-17.5 0 -30 12.5t-12.5 29.5q0 12 5.5 22t15.5 15.5t21.5 5.5t21.5 -5.5t16 -15.5t6 -22q0 -17 -13 -29.5t-30.5 -12.5z" />
    <glyph glyph-name="quotedbl" unicode="&#x22;" horiz-adv-x="253" 
d="M79 686q10 0 17 -7t7 -16v-188q0 -8 -8 -8h-5q-6 0 -7 7l-33 185q-1 10 6 18.5t17 8.5h6zM179 686q11 0 18 -8.5t6 -18.5l-33 -185q-1 -7 -8 -7h-4q-8 0 -8 8v188q0 4 2 8.5t5 7.5t7.5 5t9.5 2h5z" />
    <glyph glyph-name="quotedbl" unicode="&#x201d;" horiz-adv-x="253" 
d="M79 686q10 0 17 -7t7 -16v-188q0 -8 -8 -8h-5q-6 0 -7 7l-33 185q-1 10 6 18.5t17 8.5h6zM179 686q11 0 18 -8.5t6 -18.5l-33 -185q-1 -7 -8 -7h-4q-8 0 -8 8v188q0 4 2 8.5t5 7.5t7.5 5t9.5 2h5z" />
    <glyph glyph-name="quotedbl" unicode="&#x201c;" horiz-adv-x="253" 
d="M79 686q10 0 17 -7t7 -16v-188q0 -8 -8 -8h-5q-6 0 -7 7l-33 185q-1 10 6 18.5t17 8.5h6zM179 686q11 0 18 -8.5t6 -18.5l-33 -185q-1 -7 -8 -7h-4q-8 0 -8 8v188q0 4 2 8.5t5 7.5t7.5 5t9.5 2h5z" />
    <glyph glyph-name="numbersign" unicode="#" horiz-adv-x="618" 
d="M540 401h-114v-119h114q8 0 14.5 -4t10 -10.5t3.5 -14.5q0 -11 -8 -19.5t-20 -8.5h-114v-111q0 -8 -4 -14.5t-10.5 -10.5t-14.5 -4q-12 0 -20 8.5t-8 20.5v111h-117v-111q0 -12 -8.5 -20.5t-19.5 -8.5q-8 0 -14.5 4t-10.5 10.5t-4 14.5v111h-116q-12 0 -20.5 8.5t-8.5 20
t8.5 20t20.5 8.5h116v119h-116q-12 0 -20.5 8t-8.5 20q0 8 4 14.5t10.5 10.5t14.5 4h116v111q0 12 8.5 20t20.5 8q7 0 13.5 -3.5t10.5 -10t4 -14.5v-111h117v111q0 12 8 20t20 8t20.5 -8t8.5 -20v-111h114q8 0 14.5 -4t10 -10.5t3.5 -14.5q0 -12 -8 -20t-20 -8zM369 282v119
h-117v-119h117z" />
    <glyph glyph-name="dollar" unicode="$" horiz-adv-x="555" 
d="M365 347q62 -19 101 -65t39 -102v-2q-1 -68 -50 -115q-63 -59 -149 -62v-56q0 -8 -4 -14.5t-10.5 -10t-14.5 -3.5q-11 0 -19.5 8t-8.5 20v56q-72 3 -126.5 43.5t-68.5 98.5q-3 14 5.5 24.5t22.5 10.5q10 0 18 -6t10 -16q10 -42 52 -70t98 -28h33h1q70 -2 121 46
q32 30 33 74v2q0 37 -27.5 68t-72.5 44l-158 48q-41 12 -73 37t-49.5 59t-17.5 71q0 71 58 122t141 55v58q0 11 8 19.5t20 8.5t20.5 -8.5t8.5 -19.5v-58q47 -2 88.5 -21t69 -50.5t37.5 -70.5q3 -13 -5.5 -24t-22.5 -11q-4 0 -8 1t-7 3t-5.5 5t-4.5 6.5t-3 6.5
q-10 43 -52.5 70.5t-98.5 27.5h-34q-63 0 -108 -35t-45 -85q0 -37 27.5 -68t71.5 -45z" />
    <glyph glyph-name="percent" unicode="%" horiz-adv-x="595" 
d="M250 566q0 -42 -29.5 -71t-71 -29t-70.5 29t-29 71v19q0 41 29 70.5t70.5 29.5t71 -29.5t29.5 -70.5v-19zM193 566v19q0 17 -12.5 29.5t-30.5 12.5q-12 0 -21.5 -5.5t-15.5 -15.5t-6 -21v-19q0 -18 12.5 -30.5t30.5 -12.5t30.5 12.5t12.5 30.5zM444.5 218q41.5 0 71 -29
t29.5 -71v-19q0 -41 -29.5 -70.5t-71 -29.5t-70.5 29.5t-29 70.5v19q0 42 29 71t70.5 29zM488 99v19q0 18 -12.5 30.5t-30.5 12.5q-9 0 -17 -3.5t-13.5 -9t-9 -13.5t-3.5 -17v-19q0 -17 12.5 -29.5t30.5 -12.5q9 0 16.5 3t13.5 9t9.5 14t3.5 16zM388 685q15 0 23.5 -11.5
t4.5 -24.5l-189 -629q-6 -20 -27 -20q-15 0 -23.5 11.5t-4.5 25.5l189 628q6 20 27 20z" />
    <glyph glyph-name="ampersand" unicode="&#x26;" horiz-adv-x="590" 
d="M512 459q12 0 20 -8.5t8 -20.5t-8 -20t-20 -8h-81q57 -51 73 -125.5t-16 -144t-99.5 -105.5t-143 -25t-129 65.5t-64 130t26.5 142.5t106 98q-34 31 -43.5 75.5t8.5 86t57 65t84 20t80 -33t46 -73.5q1 -6 0 -11.5t-3.5 -10t-7 -8t-10.5 -5.5q-11 -3 -21.5 3t-13.5 18
q-7 28 -30.5 46t-53.5 17q-33 -2 -56 -25.5t-25 -55.5q-1 -36 23.5 -61.5t60.5 -25.5h232zM452 229q0 72 -50.5 122.5t-121.5 50.5q-53 0 -96.5 -29t-63.5 -77.5t-9.5 -100t47.5 -88t88 -47t99.5 9.5t77.5 63.5t29 95.5z" />
    <glyph glyph-name="quotesingle" unicode="'" horiz-adv-x="153" 
d="M79 686q11 0 18 -8.5t5 -18.5l-32 -185q-1 -7 -8 -7h-4q-8 0 -8 8v188q0 6 3 11.5t8.5 8.5t11.5 3h6z" />
    <glyph glyph-name="quotesingle" unicode="&#x2018;" horiz-adv-x="153" 
d="M79 686q11 0 18 -8.5t5 -18.5l-32 -185q-1 -7 -8 -7h-4q-8 0 -8 8v188q0 6 3 11.5t8.5 8.5t11.5 3h6z" />
    <glyph glyph-name="parenleft" unicode="(" horiz-adv-x="178" 
d="M128 33q2 -13 -6.5 -23t-21.5 -10q-11 0 -19 7t-10 18q-42 318 0 636q1 10 9 17t19 7q13 0 21.5 -9.5t6.5 -22.5q-41 -310 1 -620z" />
    <glyph glyph-name="parenright" unicode=")" horiz-adv-x="178" 
d="M107 661q42 -318 0 -636q-2 -11 -10 -18t-18 -7q-13 0 -22 10t-7 23q42 310 1 620q-1 8 2 15t9 11.5t13 5.5q12 2 21.5 -5.5t10.5 -18.5z" />
    <glyph glyph-name="asterisk" unicode="*" horiz-adv-x="331" 
d="M269 518q10 -7 12 -18.5t-5 -21t-18.5 -11.5t-21.5 4l-42 30v-46q0 -8 -4 -14.5t-10.5 -10t-13.5 -3.5q-12 0 -20.5 8t-8.5 20v46l-42 -29q-10 -7 -21.5 -5t-18 11.5t-4.5 21.5t11 18l54 38l-54 37q-9 7 -11.5 18.5t4.5 21t18.5 11.5t21.5 -4l42 -30v46q0 12 8.5 20
t19.5 8q8 0 14.5 -3.5t10.5 -10t4 -14.5v-46l42 30q10 6 21.5 4t18 -11.5t4.5 -21.5t-11 -18l-54 -37z" />
    <glyph glyph-name="plus" unicode="+" horiz-adv-x="442" 
d="M364 371q12 0 20 -8.5t8 -20.5q0 -8 -3.5 -14.5t-10 -10t-14.5 -3.5h-114v-115q0 -11 -8.5 -19.5t-20.5 -8.5t-20 8.5t-8 19.5v115h-114q-12 0 -20.5 8t-8.5 20t8.5 20.5t20.5 8.5h114v111q0 7 3.5 13.5t10 10.5t14.5 4q12 0 20.5 -8.5t8.5 -19.5v-111h114z" />
    <glyph glyph-name="comma" unicode="," horiz-adv-x="152" 
d="M76 134q12 0 20 -9t6 -21l-32 -182q-1 -7 -8 -7h-4q-8 0 -8 8v185q0 5 2 10t5.5 8.5t8.5 5.5t10 2z" />
    <glyph glyph-name="hyphen" unicode="-" horiz-adv-x="442" 
d="M364 371q12 0 20 -8.5t8 -20.5t-8 -20t-20 -8h-285q-12 0 -20.5 8t-8.5 20q0 8 4 14.5t10.5 10.5t14.5 4h285z" />
    <glyph glyph-name="period" unicode="." horiz-adv-x="186" 
d="M92.5 1q-17.5 0 -30 12.5t-12.5 29.5q0 12 5.5 22t15.5 15.5t21.5 5.5t21.5 -5.5t16 -15.5t6 -22q0 -17 -13 -29.5t-30.5 -12.5z" />
    <glyph glyph-name="slash" unicode="/" horiz-adv-x="346" 
d="M267 685q15 0 23.5 -11.5t4.5 -24.5l-189 -629q-6 -20 -27 -20q-15 0 -23.5 11.5t-4.5 25.5l189 628q6 20 27 20z" />
    <glyph glyph-name="zero" unicode="0" horiz-adv-x="668" 
d="M334 684q77 0 142.5 -45.5t103.5 -124.5t38 -172t-38 -171.5t-103.5 -124.5t-142.5 -46q-58 0 -110.5 27t-90.5 73t-60.5 109.5t-22.5 132.5q0 93 38 172t103.5 124.5t142.5 45.5zM334 57q94 0 160.5 83.5t66.5 201.5t-66.5 201.5t-160.5 83.5t-160.5 -83.5t-66.5 -201.5
t66.5 -201.5t160.5 -83.5z" />
    <glyph glyph-name="one" unicode="1" horiz-adv-x="206" 
d="M128 684q11 0 19.5 -8t8.5 -20v-629q0 -12 -8.5 -20.5t-20 -8.5t-20 8.5t-8.5 20.5v600h-20q-8 0 -14.5 4t-10.5 10.5t-4 14.5q0 12 8.5 20t20.5 8h49z" />
    <glyph glyph-name="two" unicode="2" horiz-adv-x="544" 
d="M466 57q11 0 19.5 -8.5t8.5 -20t-8.5 -20t-20.5 -8.5h-386q-12 0 -20.5 8.5t-8.5 20.5q-1 62 31 115t87 81l175 90q40 21 64 60.5t23 85.5q0 45 -21.5 83.5t-58.5 60.5t-80 22h-1q-41 0 -75.5 -19t-57 -51.5t-27.5 -72.5q-2 -10 -10 -17t-18 -7q-13 0 -21.5 9.5
t-7.5 22.5q12 82 73.5 137t143.5 55h1q59 0 109 -29.5t79 -81t29 -112.5q1 -62 -31 -115t-87 -82l-174 -89q-34 -18 -56.5 -49t-29.5 -69h357z" />
    <glyph glyph-name="three" unicode="3" horiz-adv-x="524" 
d="M379 343q23 -13 41 -31q53 -52 54 -126q0 -77 -59 -131.5t-142 -54.5h-25q-73 0 -128.5 43t-68.5 107q-3 14 5.5 24.5t22.5 10.5q10 0 18 -6.5t10 -16.5q9 -45 49 -75t92 -30h25q59 0 101.5 37.5t42.5 90.5q0 51 -37 86q-45 44 -107 43h-7q-12 0 -20.5 8.5t-8.5 20
t8.5 20t20.5 8.5h6h1q60 0 102 38t42 90q0 53 -42.5 90.5t-101.5 37.5h-25q-52 0 -92 -29.5t-50 -75.5q-1 -6 -5 -11.5t-10 -8.5t-12 -3q-14 0 -22.5 11t-5.5 24q13 65 68.5 107.5t128.5 42.5h25q54 0 100.5 -24.5t73.5 -67.5t27 -93q-1 -49 -26.5 -91t-68.5 -65z" />
    <glyph glyph-name="four" unicode="4" horiz-adv-x="541" 
d="M442 187h21q12 0 20 -8t8 -20t-8 -20.5t-20 -8.5h-21v-104q0 -12 -8 -20.5t-20 -8.5t-20.5 8.5t-8.5 20.5v104h-306q-17 0 -25.5 15t1.5 29l324 498q8 13 23 13h12q12 0 20 -8t8 -20v-470zM385 187v391l-254 -391h254z" />
    <glyph glyph-name="five" unicode="5" horiz-adv-x="543" 
d="M265 456q85 0 149 -55t76.5 -138.5t-32 -155.5t-125 -97t-158.5 8.5t-115 109.5q-5 11 0 23t17 16q5 2 10.5 1.5t10 -2.5t8 -5.5t6.5 -7.5q26 -54 80 -79.5t112.5 -12t95.5 61t36.5 107.5t-38.5 106.5t-97 58.5q-38 9 -76 -0.5t-68 -34t-47 -60.5q-4 -9 -13 -13.5
t-19 -2.5l-6 2q-11 2 -17 11.5t-5 20.5l51 342q1 11 9 17.5t19 6.5h288q6 0 11.5 -2t9 -6t6 -9t2.5 -11q0 -12 -8.5 -20.5t-20.5 -8.5h-263l-33 -222q63 51 144 51z" />
    <glyph glyph-name="six" unicode="6" horiz-adv-x="555" 
d="M505 245q5 -71 -31 -132.5t-101 -91.5t-135.5 -17.5t-121 63t-63 120.5t17.5 135v1l8 16l170 331q8 15 25 15q16 0 24.5 -13.5t1.5 -27.5l-105 -204q52 20 108 14q50 -6 95 -36.5t74 -76.5t33 -96zM278 57q41 0 77 18t60 50.5t31 73t-5 79t-40 67.5t-66 43
q-59 21 -117 -0.5t-89 -76.5l-5 -10q-19 -40 -16.5 -83.5t26 -81t62 -58.5t82.5 -21z" />
    <glyph glyph-name="seven" unicode="7" horiz-adv-x="511" 
d="M433 684q14 0 22.5 -11.5t4.5 -25.5l-209 -627q-7 -20 -27 -20q-15 0 -23.5 12t-3.5 26l196 589h-314q-8 0 -14.5 4t-10.5 10.5t-4 14.5q0 12 8.5 20t20.5 8h354z" />
    <glyph glyph-name="eight" unicode="8" horiz-adv-x="533" 
d="M368 391q35 -17 61 -45t40 -64t14 -74q0 -86 -63.5 -147t-153 -61t-153 61t-63.5 147q1 58 32 107.5t83 75.5q-32 23 -50 57.5t-18 72.5q0 68 50 115.5t120 47.5t119.5 -47.5t49.5 -115.5q0 -25 -8 -49.5t-23.5 -45t-36.5 -35.5zM154 521.5q0 -43.5 33 -74.5t79.5 -31
t79.5 31t33 74q0 29 -15 53.5t-41 38.5t-56 14q-47 0 -80 -31t-33 -74.5zM267 57q66 0 112.5 44t46.5 106.5t-46.5 107t-112.5 44.5t-113 -44.5t-47 -107t47 -106.5t113 -44z" />
    <glyph glyph-name="nine" unicode="9" horiz-adv-x="555" 
d="M252 232q-76 8 -136 70t-65 138q-6 72 30.5 133.5t101 91t135 17t121 -62.5t63 -120.5t-16.5 -135.5h-1q-4 -9 -8 -17l-170 -330q-8 -16 -25 -16q-16 0 -24.5 13.5t-0.5 28.5l104 204q-52 -21 -108 -14zM278 628q-41 0 -77 -18t-60 -50.5t-31 -72.5q-11 -61 20.5 -115
t90 -75t117 1t88.5 76l5 10q19 40 16.5 84t-25.5 81t-61.5 58t-82.5 21z" />
    <glyph glyph-name="colon" unicode=":" horiz-adv-x="186" 
d="M93 429q-18 0 -30.5 12.5t-12.5 30.5q0 11 5.5 21t15.5 15.5t22 5.5q17 0 30 -12.5t13 -29.5q0 -12 -6 -22t-16 -15.5t-21 -5.5zM92.5 172q-17.5 0 -30 12.5t-12.5 30.5q0 11 5.5 21t15.5 15.5t22 5.5q17 0 30 -12.5t13 -30t-13 -30t-30.5 -12.5z" />
    <glyph glyph-name="semicolon" unicode=";" horiz-adv-x="186" 
d="M88 305q12 0 20 -9t6 -21l-31 -181q-2 -9 -11.5 -8.5t-9.5 10.5v183q0 11 8 18.5t18 7.5zM93 429q-18 0 -30.5 12.5t-12.5 30.5q0 11 5.5 21t15.5 15.5t22 5.5q17 0 30 -12.5t13 -29.5q0 -12 -6 -22t-16 -15.5t-21 -5.5z" />
    <glyph glyph-name="less" unicode="&#x3c;" horiz-adv-x="301" 
d="M242 211q9 -9 9 -20.5t-8.5 -20t-20.5 -8.5t-20 8l-144 144q-8 8 -8 20v17q0 11 8 20l142 144q8 8 19.5 8t20 -8t9 -20t-8.5 -20l-130 -133z" />
    <glyph glyph-name="equal" unicode="=" horiz-adv-x="446" 
d="M367 421h-288q-12 0 -20.5 8.5t-8.5 20.5q0 8 4 14.5t10.5 10t14.5 3.5h288q12 0 20.5 -8t8.5 -20t-8.5 -20.5t-20.5 -8.5zM367 264q12 0 20.5 -8t8.5 -20t-8.5 -20.5t-20.5 -8.5h-288q-12 0 -20.5 8.5t-8.5 20.5q0 4 1 7.5t3 6.5t4.5 6t5.5 4.5t7 2.5t8 1h288z" />
    <glyph glyph-name="greater" unicode="&#x3e;" horiz-adv-x="301" 
d="M251 351v-16q0 -12 -9 -21l-141 -143q-8 -9 -20 -9t-20.5 8t-8.5 20t8 21l130 132l-132 132q-8 8 -8 19.5t8.5 20t20 8.5t20.5 -8l143 -144q9 -8 9 -20z" />
    <glyph glyph-name="question" unicode="?" horiz-adv-x="530" 
d="M257 684q86 4 150.5 -53t72 -143t-46.5 -153t-139 -79v-59q0 -12 -8.5 -20.5t-20.5 -8.5t-20.5 8.5t-8.5 20.5v101q0 6 4 9.5t10 3.5h11q66 0 113.5 46t48.5 111q1 66 -46 113t-114 46q-42 0 -78.5 -22t-57 -59.5t-20.5 -80.5v-2q0 -5 -5 -5h-47q-5 0 -5 5v1
q0 88 60 152.5t147 67.5zM265 1q-18 0 -30.5 12.5t-12.5 30t12.5 30t30.5 12.5t30.5 -12.5t12.5 -30t-12.5 -30t-30.5 -12.5z" />
    <glyph glyph-name="at" unicode="@" horiz-adv-x="527" 
d="M355 210q-12 0 -20.5 8t-8.5 20v167h-55q-6 0 -11.5 2.5t-9 6t-6 9t-2.5 11.5q0 12 8.5 20t20.5 8h168q11 0 19.5 -8t8.5 -20q0 -6 -2 -11.5t-6 -9t-9.5 -6t-10.5 -2.5h-56v-167q0 -12 -8 -20t-20 -8zM60 494q-10 0 -10 9.5t10 9.5h407q10 0 10 -9.5t-10 -9.5h-407z
M60 190h407q10 0 10 -9.5t-10 -9.5h-407q-10 0 -10 9.5t10 9.5zM180 462q10 0 17.5 -6t10.5 -15l48 -196q2 -7 0 -14.5t-7.5 -12.5t-13.5 -7q-11 -3 -21 3t-13 17l-2 7h-64l-2 -7q-3 -11 -13 -17t-21.5 -3t-17.5 13t-3 21l48 196q3 9 10.5 15t17.5 6h26zM149 295h36l-18 73z
" />
    <glyph glyph-name="A" unicode="A" horiz-adv-x="624" 
d="M573 -48q4 -14 -4.5 -26t-22.5 -12q-21 0 -27 20l-221 660l-192 -575q-4 -11 -14.5 -16t-21.5 -1t-16.5 14t-2.5 22l211 627q6 19 27 19h19q21 0 27 -19z" />
    <glyph glyph-name="B" unicode="B" horiz-adv-x="589" 
d="M415 360q59 -21 93 -72.5t30 -113.5q-4 -73 -59.5 -123.5t-129.5 -50.5h-270q-12 0 -20.5 8.5t-8.5 20.5v627q0 12 8.5 20t20.5 8h209q79 0 135.5 -55.5t54.5 -133.5q-1 -81 -63 -135zM107 627v-256h186q53 0 90 37.5t37 90.5t-37 90.5t-90 37.5h-186zM353 57
q53 0 91 37.5t38 91t-38 91t-91 37.5h-246v-257h246z" />
    <glyph glyph-name="C" unicode="C" horiz-adv-x="684" 
d="M291 684q115 0 206.5 -69t123 -179t-10 -217t-139 -167.5t-211.5 -50t-199 87.5q-9 9 -9.5 21.5t9.5 21.5q8 7 19 7t20 -8q85 -78 200.5 -74t196 87t80 199t-81 198.5t-196.5 85.5t-201 -75q-8 -8 -19 -8t-20 7q-9 9 -9 21.5t9 21.5q99 90 232 90z" />
    <glyph glyph-name="D" unicode="D" horiz-adv-x="663" 
d="M264 684q92 0 171.5 -44t127.5 -121t50 -168q1 -70 -24 -134t-73.5 -113.5t-112 -76.5t-132.5 -27h-192q-12 0 -20.5 8.5t-8.5 20.5v627q0 12 8.5 20t20.5 8h185zM271 57q118 0 201.5 83.5t83.5 201.5t-83.5 201.5t-201.5 83.5h-164v-570h164z" />
    <glyph glyph-name="E" unicode="E" horiz-adv-x="528" 
d="M449 684q12 0 20.5 -8t8.5 -20v-627q0 -12 -8.5 -20.5t-20.5 -8.5h-370q-12 0 -20.5 8.5t-8.5 20t8.5 20t20.5 8.5h342v257h-257q-6 0 -11 2t-9 6t-6 9t-2 11q0 8 3.5 14.5t10 10.5t14.5 4h257v256h-342q-8 0 -14.5 4t-10.5 10.5t-4 14.5q0 12 8.5 20t20.5 8h370z" />
    <glyph glyph-name="F" unicode="F" horiz-adv-x="518" 
d="M440 684q12 0 20 -8t8 -20t-8 -20.5t-20 -8.5h-333v-256h247q12 0 20.5 -8.5t8.5 -20.5q0 -6 -2.5 -11t-6 -9t-9 -6t-11.5 -2h-247v-371q0 -8 -4 -14.5t-10.5 -10.5t-13.5 -4q-12 0 -20.5 8.5t-8.5 20.5v713q0 12 8.5 20t20.5 8h361z" />
    <glyph glyph-name="G" unicode="G" horiz-adv-x="702" 
d="M626 371q11 0 18.5 -8t7.5 -19v-218q0 -11 -7 -18v-1q-48 -51 -111.5 -79t-133.5 -28h-16q-90 0 -167 45t-122 122t-45 168v15q0 91 45 168t122 121.5t167 44.5h16q130 0 226 -87q9 -8 9 -20t-9 -20l-2 -3q-8 -7 -18.5 -6.5t-18.5 7.5q-80 72 -187 72h-16
q-114 0 -195.5 -81t-81.5 -196v-15q0 -115 81.5 -196.5t195.5 -81.5h16q114 1 195 81v206q0 11 8 19t19 8h4z" />
    <glyph glyph-name="H" unicode="H" horiz-adv-x="547" 
d="M468.5 770q11.5 0 20 -8.5t8.5 -19.5v-714q0 -11 -8.5 -19.5t-20 -8.5t-20 8.5t-8.5 19.5v286h-333v-286q0 -11 -8.5 -19.5t-20 -8.5t-20 8.5t-8.5 19.5v628q0 12 8.5 20t20 8t20 -8t8.5 -20v-285h333v371q0 11 8.5 19.5t20 8.5z" />
    <glyph glyph-name="I" unicode="I" horiz-adv-x="157" 
d="M78.5 770q11.5 0 20 -8.5t8.5 -19.5v-714q0 -11 -8.5 -19.5t-20 -8.5t-20 8.5t-8.5 19.5v714q0 11 8.5 19.5t20 8.5z" />
    <glyph glyph-name="J" unicode="J" horiz-adv-x="463" 
d="M413 742v-538q0 -76 -50 -134.5t-125 -67.5q-52 -7 -100.5 13t-81.5 61q-8 11 -5.5 24t14.5 19q9 5 19.5 3t16.5 -10q24 -31 60.5 -45.5t75.5 -7.5q52 10 85.5 51t33.5 94v538q0 11 8.5 19.5t20 8.5t20 -8.5t8.5 -19.5z" />
    <glyph glyph-name="K" unicode="K" horiz-adv-x="587" 
d="M529 -37q13 -14 6 -31.5t-26 -17.5q-12 0 -21 9l-381 388v-283q0 -11 -8.5 -19.5t-20 -8.5t-20 8.5t-8.5 19.5v628q0 12 8.5 20t20 8t20 -8t8.5 -20v-283l300 303q11 12 27 7.5t20.5 -20t-7.5 -27.5l-290 -294z" />
    <glyph glyph-name="L" unicode="L" horiz-adv-x="518" 
d="M440 57q12 0 20 -8.5t8 -20t-8 -20t-20 -8.5h-361q-12 0 -20.5 8.5t-8.5 20.5v713q0 11 8.5 19.5t20 8.5t20 -8.5t8.5 -19.5v-685h333z" />
    <glyph glyph-name="M" unicode="M" horiz-adv-x="671" 
d="M592 684q12 0 20.5 -8t8.5 -20v-628q0 -11 -8.5 -19.5t-20.5 -8.5t-20 8.5t-8 19.5v499l-202 -540q-7 -18 -26.5 -18t-26.5 18l-202 540v-499q0 -11 -8.5 -19.5t-20 -8.5t-20 8.5t-8.5 19.5v628q0 12 8.5 20t20.5 8h10q20 0 27 -18l219 -587l220 587q7 18 26 18h11z" />
    <glyph glyph-name="N" unicode="N" horiz-adv-x="549" 
d="M471 685q12 0 20 -8t8 -20v-714q0 -12 -8 -20.5t-20 -8.5t-20.5 8.5t-8.5 20.5v634l-322 -563q-4 -6 -10.5 -10t-14.5 -4h-16q-12 0 -20.5 8.5t-8.5 19.5v628q0 12 8.5 20t20.5 8q7 0 13.5 -3.5t10.5 -10t4 -14.5v-549l323 564q8 14 25 14h16z" />
    <glyph glyph-name="O" unicode="O" 
d="M392 684q93 0 172 -46t124.5 -124.5t45.5 -171.5t-45.5 -172t-124.5 -124.5t-172 -45.5t-171.5 45.5t-124.5 124.5t-46 172t46 172t124.5 124.5t171.5 45.5zM392 57q118 0 201.5 83.5t83.5 201.5t-83.5 201.5t-201.5 83.5t-201.5 -83.5t-83.5 -201.5t83.5 -201.5
t201.5 -83.5z" />
    <glyph glyph-name="P" unicode="P" horiz-adv-x="532" 
d="M482 476q3 -93 -61 -159.5t-156 -66.5h-158v-307q0 -8 -4 -14.5t-10.5 -10.5t-13.5 -4q-12 0 -20.5 8.5t-8.5 20.5v713q0 12 8.5 20t20.5 8h180q89 0 154.5 -60.5t68.5 -147.5zM265 307q66 0 113 47t47 113.5t-47 113t-113 46.5h-158v-320h158z" />
    <glyph glyph-name="Q" unicode="Q" horiz-adv-x="823" 
d="M764 -37q14 -14 6.5 -31.5t-26.5 -17.5q-12 0 -20 9l-138 137q-112 -77 -246 -56t-216.5 128.5t-68.5 243t117 223.5t238.5 81t229 -105.5t93.5 -234t-93 -234.5q-3 -3 -10 -9zM392 57q29 0 57.5 6t55 17t50.5 27.5t44 37.5q70 74 77.5 175t-50 184.5t-155.5 111.5
t-191 -12t-140 -130t-27 -189q13 -66 53.5 -118t99.5 -81t126 -29z" />
    <glyph glyph-name="R" unicode="R" horiz-adv-x="577" 
d="M522 -40q10 -14 2.5 -30t-25.5 -16q-14 0 -23 12l-244 324h-125v-222q0 -11 -8.5 -19.5t-20 -8.5t-20 8.5t-8.5 19.5v628q0 12 8.5 20t20.5 8h181q88 0 153 -59.5t69 -147.5q4 -82 -48 -146t-133 -78zM107 307h158q66 0 113 47t47 113.5t-47 113t-113 46.5h-158v-320z
" />
    <glyph glyph-name="S" unicode="S" horiz-adv-x="555" 
d="M365 347q63 -19 101.5 -65.5t38.5 -102.5v-1q-1 -68 -50 -115q-67 -65 -161 -63h-1h-33q-76 0 -134 41t-72 102q-3 14 5.5 24.5t22.5 10.5q10 0 18 -6.5t10 -16.5q10 -42 52 -70t98 -28h34q70 -2 121 46q32 30 33 75v1q0 37 -27.5 68.5t-71.5 44.5l-159 47q-41 13 -73 38
t-49.5 59t-17.5 71q0 48 28 89t76.5 64.5t106.5 23.5h34q50 0 94 -18.5t73.5 -51t38.5 -73.5q3 -13 -5.5 -23.5t-22.5 -10.5q-10 0 -17.5 6t-10.5 16q-6 28 -27.5 50.5t-54 35t-68.5 12.5h-34q-64 0 -109 -35t-45 -85q0 -38 27.5 -69t71.5 -44z" />
    <glyph glyph-name="T" unicode="T" horiz-adv-x="613" 
d="M535 684q12 0 20 -8t8 -20t-8 -20.5t-20 -8.5h-200v-684q0 -8 -3.5 -14.5t-10.5 -10.5t-14 -4q-12 0 -20.5 8.5t-8.5 20.5v684h-199q-8 0 -14.5 4t-10.5 10.5t-4 14.5q0 12 8.5 20t20.5 8h456z" />
    <glyph glyph-name="U" unicode="U" horiz-adv-x="547" 
d="M468.5 770q11.5 0 20 -8.5t8.5 -19.5v-519q0 -91 -64 -156t-156 -67q-61 -1 -113.5 30t-83 84t-30.5 115v427q0 12 8.5 20t20.5 8q7 0 13.5 -3.5t10.5 -10t4 -14.5v-428q0 -70 50 -121t119 -50q68 1 116 49.5t48 116.5v519q0 11 8.5 19.5t20 8.5z" />
    <glyph glyph-name="V" unicode="V" horiz-adv-x="625" 
d="M547 772q15 0 23.5 -11.5t3.5 -25.5l-240 -716q-3 -8 -10.5 -13.5t-16.5 -5.5h-19q-21 0 -27 20l-210 628q-4 14 4.5 25.5t23.5 11.5q20 0 27 -19l192 -576l222 663q6 19 27 19z" />
    <glyph glyph-name="W" unicode="W" horiz-adv-x="853" 
d="M774 684q15 0 23.5 -11.5t3.5 -25.5l-210 -628q-3 -8 -10.5 -13.5t-16.5 -5.5h-20q-20 0 -27 19l-91 275l-92 -275q-3 -8 -10.5 -13.5t-16.5 -5.5h-19q-21 0 -27 19l-210 628q-4 14 4.5 26t23.5 12q20 0 27 -20l191 -575l99 294l-88 263q-4 14 4.5 26t22.5 12
q21 0 27 -20l192 -575l193 575q6 19 27 19z" />
    <glyph glyph-name="X" unicode="X" horiz-adv-x="584" 
d="M530 -43q9 -14 0.5 -28.5t-24.5 -14.5t-25 14l-213 357l-163 -271q-6 -10 -17.5 -13t-21.5 3t-13 17.5t3 21.5l178 298l-180 301q-8 14 0 28.5t25 14.5q16 0 24 -13l164 -275l165 275q8 13 24 13q17 0 25 -14.5t0 -28.5l-180 -301z" />
    <glyph glyph-name="Y" unicode="Y" horiz-adv-x="587" 
d="M508 772q17 0 25 -14t0 -29l-237 -395v-305q0 -12 -8.5 -20.5t-20.5 -8.5q-7 0 -14 4t-10.5 10.5t-3.5 14.5v305l-185 308q-8 14 0 28.5t25 14.5q16 0 24 -13l164 -274l217 361q8 13 24 13z" />
    <glyph glyph-name="Z" unicode="Z" horiz-adv-x="610" 
d="M532 57q12 0 20 -8.5t8 -20t-8 -20t-20 -8.5h-434q-17 0 -25.5 14.5t0.5 29.5l369 583h-363q-8 0 -14.5 4t-10.5 10.5t-4 14.5q0 12 8.5 20t20.5 8h415q17 0 25 -14.5t-1 -28.5l-369 -584h383z" />
    <glyph glyph-name="bracketleft" unicode="[" horiz-adv-x="298" 
d="M220 57q5 0 10.5 -2.5t9.5 -6t6 -9t2 -11.5q0 -12 -8.5 -20t-19.5 -8h-141q-12 0 -20.5 8t-8.5 20v628q0 12 8.5 20t20.5 8h141q7 0 13.5 -3.5t10.5 -10t4 -14.5q0 -12 -8.5 -20.5t-19.5 -8.5h-113v-570h113z" />
    <glyph glyph-name="backslash" unicode="\" horiz-adv-x="346" 
d="M295 37q4 -14 -4.5 -25.5t-23.5 -11.5q-21 0 -27 20l-189 629q-4 13 4.5 24.5t23.5 11.5q21 0 27 -20z" />
    <glyph glyph-name="bracketright" unicode="]" horiz-adv-x="300" 
d="M221 684q12 0 20.5 -8t8.5 -20v-627q0 -12 -8.5 -20.5t-20.5 -8.5h-142q-12 0 -20.5 8.5t-8.5 20t8.5 20t20.5 8.5h114v570h-114q-8 0 -14.5 4t-10.5 10.5t-4 14.5q0 12 8.5 20t20.5 8h142z" />
    <glyph glyph-name="asciicircum" unicode="^" horiz-adv-x="461" 
d="M403 537q8 -8 8 -20t-8 -20.5t-20 -8.5t-20 8l-132 130l-132 -132q-9 -8 -20.5 -8t-20 8.5t-8.5 20t8 20.5l144 143q8 9 20 9h17q11 0 20 -8z" />
    <glyph glyph-name="underscore" unicode="_" horiz-adv-x="613" 
d="M535 95q12 0 20 -8.5t8 -20t-8 -20t-20 -8.5h-456q-12 0 -20.5 8.5t-8.5 20.5q0 7 4 13.5t10.5 10.5t14.5 4h456z" />
    <glyph glyph-name="grave" unicode="`" horiz-adv-x="230" 
d="M179 479q2 -4 -0.5 -8t-6.5 -4h-3q-4 0 -6 4l-110 179q-7 13 0.5 25t21.5 11t20 -14z" />
    <glyph glyph-name="a" unicode="a" horiz-adv-x="596" 
d="M544 38q5 -14 -3.5 -26t-23.5 -12q-20 0 -27 19l-35 104h-315l-34 -104q-3 -7 -9 -12t-13 -6t-14 1q-12 4 -17 14t-2 22l211 628q7 19 27 19h19q20 0 27 -19zM160 180h276l-138 415z" />
    <glyph glyph-name="b" unicode="b" horiz-adv-x="589" 
d="M415 360q59 -21 93 -72.5t30 -113.5q-4 -73 -59.5 -123.5t-129.5 -50.5h-270q-12 0 -20.5 8.5t-8.5 20.5v627q0 12 8.5 20t20.5 8h209q79 0 135.5 -55.5t54.5 -133.5q-1 -81 -63 -135zM107 627v-256h186q34 -1 64.5 16.5t47.5 47t17 64.5t-17 64.5t-47.5 47t-64.5 16.5
h-186zM353 57q53 0 91 37.5t38 91t-38 91t-91 37.5h-246v-257h246z" />
    <glyph glyph-name="c" unicode="c" horiz-adv-x="684" 
d="M624 133q10 -8 10 -21t-10 -21q-102 -94 -240.5 -90.5t-236 102.5t-97.5 238t96 239q63 66 149 91t173 5.5t155 -81.5q8 -8 8.5 -19.5t-7.5 -20.5t-19.5 -9.5t-20.5 7.5q-85 78 -201 74t-196 -87t-80 -198.5t81 -198.5t196.5 -86t200.5 75q9 8 20 8.5t19 -7.5z" />
    <glyph glyph-name="d" unicode="d" horiz-adv-x="663" 
d="M264 684q92 0 171.5 -44t127.5 -121t50 -168q1 -70 -24 -134t-73.5 -113.5t-112 -76.5t-132.5 -27h-192q-12 0 -20.5 8.5t-8.5 20.5v627q0 12 8.5 20t20.5 8h185zM107 57h164q118 0 201.5 83.5t83.5 201.5t-83.5 201.5t-201.5 83.5h-164v-570z" />
    <glyph glyph-name="e" unicode="e" horiz-adv-x="528" 
d="M449 57q12 0 20.5 -8.5t8.5 -20t-8.5 -20t-20.5 -8.5h-370q-12 0 -20.5 8.5t-8.5 20.5v627q0 12 8.5 20t20.5 8h370q12 0 20.5 -8t8.5 -20t-8.5 -20.5t-20.5 -8.5h-342v-256h257q12 0 20 -8.5t8 -20.5t-8 -20t-20 -8h-257v-257h342z" />
    <glyph glyph-name="f" unicode="f" horiz-adv-x="518" 
d="M440 684q12 0 20 -8t8 -20t-8 -20.5t-20 -8.5h-333v-256h247q12 0 20.5 -8.5t8.5 -20.5t-8.5 -20t-20.5 -8h-247v-286q0 -11 -8.5 -19.5t-20 -8.5t-20 8.5t-8.5 19.5v628q0 12 8.5 20t20.5 8h361z" />
    <glyph glyph-name="g" unicode="g" horiz-adv-x="702" 
d="M626 371q11 0 18.5 -8t7.5 -19v-218q0 -11 -7 -18v-1q-48 -51 -111.5 -79t-133.5 -28h-16q-90 0 -167 45t-122 122t-45 168v15q0 91 45 168t122 121.5t167 44.5h16q130 0 226 -87q9 -8 9 -20t-9 -20l-2 -3q-8 -7 -18.5 -6.5t-18.5 7.5q-80 72 -187 72h-16
q-114 0 -195.5 -81t-81.5 -196v-15q0 -115 81.5 -196.5t195.5 -81.5h16q114 1 195 81v176h-174q-8 0 -14 3.5t-9.5 10t-3.5 13.5v3q0 11 7.5 19t19.5 8h205z" />
    <glyph glyph-name="h" unicode="h" horiz-adv-x="547" 
d="M468 684q6 0 11.5 -2t9 -6t6 -9t2.5 -11v-628q0 -11 -8.5 -19.5t-20 -8.5t-20 8.5t-8.5 19.5v286h-333v-286q0 -11 -8.5 -19.5t-20 -8.5t-20 8.5t-8.5 19.5v628q0 12 8.5 20t20.5 8q7 0 13.5 -3.5t10.5 -10t4 -14.5v-285h333v285q0 12 8.5 20t19.5 8z" />
    <glyph glyph-name="i" unicode="i" horiz-adv-x="157" 
d="M79 684q7 0 13.5 -3.5t10.5 -10t4 -14.5v-628q0 -11 -8.5 -19.5t-20 -8.5t-20 8.5t-8.5 19.5v628q0 12 8.5 20t20.5 8z" />
    <glyph glyph-name="j" unicode="j" horiz-adv-x="463" 
d="M413 656v-452q0 -76 -50 -134.5t-125 -67.5q-52 -7 -100.5 13t-81.5 61q-8 11 -5.5 24t14.5 19q9 5 19.5 3t16.5 -10q24 -31 60.5 -45.5t75.5 -7.5q52 10 85.5 51t33.5 94v452q0 12 8.5 20t19.5 8q6 0 11.5 -2t9 -6t6 -9t2.5 -11z" />
    <glyph glyph-name="k" unicode="k" horiz-adv-x="509" 
d="M450 49q14 -14 6.5 -31.5t-26.5 -17.5q-12 0 -20 8l-303 303v-283q0 -11 -8.5 -19.5t-20 -8.5t-20 8.5t-8.5 19.5v628q0 12 8.5 20t20 8t20 -8t8.5 -20v-283l300 303q8 8 19.5 8t20 -8t8.5 -20t-8 -20l-290 -294z" />
    <glyph glyph-name="l" unicode="l" horiz-adv-x="518" 
d="M440 57q12 0 20 -8.5t8 -20t-8 -20t-20 -8.5h-361q-12 0 -20.5 8.5t-8.5 20.5v627q0 12 8.5 20t20.5 8q7 0 13.5 -3.5t10.5 -10t4 -14.5v-599h333z" />
    <glyph glyph-name="m" unicode="m" horiz-adv-x="671" 
d="M592 685q12 0 20.5 -8t8.5 -20v-629q0 -11 -8.5 -19.5t-20.5 -8.5q-8 0 -14.5 4t-10.5 10.5t-4 13.5v501l-193 -511q-7 -18 -26 -18h-17q-20 0 -27 18l-193 511v-501q0 -11 -8.5 -19.5t-20 -8.5t-20 8.5t-8.5 19.5v629q0 12 8.5 20t20.5 8h10q20 0 27 -18l219 -580
l220 580q7 18 27 18h10z" />
    <glyph glyph-name="n" unicode="n" horiz-adv-x="549" 
d="M471 684q6 0 11 -2t9 -6t6 -9t2 -11v-627q0 -12 -8 -20.5t-20 -8.5h-17q-16 0 -24 14l-323 563v-548q0 -12 -8.5 -20.5t-20 -8.5t-20 8.5t-8.5 20.5v628q0 12 8.5 20t20.5 8h15q17 0 25 -14l323 -564v549q0 12 8.5 20t20.5 8z" />
    <glyph glyph-name="o" unicode="o" 
d="M392 684q93 0 172 -45.5t124.5 -124.5t45.5 -172t-45.5 -171.5t-124.5 -124.5t-172 -46t-171.5 46t-124.5 124.5t-46 171.5t46 172t124.5 124.5t171.5 45.5zM392 57q118 0 201.5 83.5t83.5 201.5t-83.5 201.5t-201.5 83.5t-201.5 -83.5t-83.5 -201.5t83.5 -201.5
t201.5 -83.5z" />
    <glyph glyph-name="p" unicode="p" horiz-adv-x="532" 
d="M482 476q3 -93 -61 -159.5t-156 -66.5h-158v-222q0 -11 -8.5 -19.5t-20 -8.5t-20 8.5t-8.5 19.5v628q0 12 8.5 20t20.5 8h180q89 0 154.5 -60.5t68.5 -147.5zM265 307q66 0 113 47t47 113.5t-47 113t-113 46.5h-158v-320h158z" />
    <glyph glyph-name="q" unicode="q" 
d="M631 98l58 -58q12 -11 8 -27.5t-20.5 -20.5t-27.5 8l-62 62q-74 -52 -162 -60t-169.5 27t-135.5 107t-66 160t19.5 170.5t101.5 139.5q106 88 243 77.5t228.5 -112.5t87 -239.5t-102.5 -233.5zM393 58q118 0 201 83.5t83 201.5q0 86 -48 158t-127.5 105t-164.5 16
t-146 -78t-77.5 -146t16.5 -164.5t104.5 -127.5t158.5 -48z" />
    <glyph glyph-name="r" unicode="r" horiz-adv-x="532" 
d="M301 253l156 -207q11 -14 3 -30t-26 -16q-14 0 -23 11l-179 239h-125v-222q0 -11 -8.5 -19.5t-20 -8.5t-20 8.5t-8.5 19.5v628q0 12 8.5 20t20.5 8h181q88 0 153 -59.5t69 -146.5q4 -83 -48 -147t-133 -78zM107 307h158q66 0 113 47t47 113q0 44 -21.5 81t-58.5 58
t-80 21h-158v-320z" />
    <glyph glyph-name="s" unicode="s" horiz-adv-x="555" 
d="M365 347q63 -19 101.5 -65.5t38.5 -102.5v-1q-1 -68 -50 -115q-67 -65 -160 -63h-1h-34q-76 0 -134 41t-72 102q-3 14 5.5 24.5t22.5 10.5q10 0 18 -6.5t10 -16.5q10 -42 52 -70t98 -28h34q70 -2 121 46q32 30 33 75v1q0 37 -27.5 68.5t-71.5 44.5l-159 47q-41 13 -73 38
t-49.5 59t-17.5 71q0 48 28 89t76.5 64.5t106.5 23.5h34q50 0 94 -18.5t73.5 -51t38.5 -73.5q3 -13 -5.5 -23.5t-22.5 -10.5q-10 0 -17.5 6t-10.5 16q-10 42 -52.5 70t-97.5 28h-34q-64 0 -109 -35t-45 -85q0 -38 27.5 -69t71.5 -44z" />
    <glyph glyph-name="s" unicode="&#xdf;" horiz-adv-x="555" 
d="M365 347q63 -19 101.5 -65.5t38.5 -102.5v-1q-1 -68 -50 -115q-67 -65 -160 -63h-1h-34q-76 0 -134 41t-72 102q-3 14 5.5 24.5t22.5 10.5q10 0 18 -6.5t10 -16.5q10 -42 52 -70t98 -28h34q70 -2 121 46q32 30 33 75v1q0 37 -27.5 68.5t-71.5 44.5l-159 47q-41 13 -73 38
t-49.5 59t-17.5 71q0 48 28 89t76.5 64.5t106.5 23.5h34q50 0 94 -18.5t73.5 -51t38.5 -73.5q3 -13 -5.5 -23.5t-22.5 -10.5q-10 0 -17.5 6t-10.5 16q-10 42 -52.5 70t-97.5 28h-34q-64 0 -109 -35t-45 -85q0 -38 27.5 -69t71.5 -44z" />
    <glyph glyph-name="t" unicode="t" horiz-adv-x="613" 
d="M535 684q12 0 20 -8t8 -20t-8 -20.5t-20 -8.5h-200v-599q0 -11 -8 -19.5t-20 -8.5t-20.5 8.5t-8.5 19.5v599h-199q-8 0 -14.5 4t-10.5 10.5t-4 14.5q0 12 8.5 20t20.5 8h456z" />
    <glyph glyph-name="u" unicode="u" horiz-adv-x="547" 
d="M468.5 684q11.5 0 20 -8t8.5 -20v-433q0 -91 -64 -156t-156 -67q-93 -2 -160 66t-67 163v427q0 12 8.5 20t20 8t20 -8t8.5 -20v-428q0 -70 50 -121t119 -50q45 1 82.5 23.5t59.5 60.5t22 82v433q0 12 8.5 20t20 8z" />
    <glyph glyph-name="v" unicode="v" horiz-adv-x="596" 
d="M518 685q14 0 22.5 -11.5t4.5 -25.5l-211 -629q-3 -8 -10.5 -13.5t-16.5 -5.5h-19q-21 0 -27 19l-210 629q-4 14 4.5 25.5t23.5 11.5q20 0 27 -19l192 -576l193 576q6 19 27 19z" />
    <glyph glyph-name="w" unicode="w" horiz-adv-x="938" 
d="M860 685q14 0 23 -11.5t4 -25.5l-211 -629q-7 -19 -27 -19h-17q-10 0 -18 6t-10 16l-134 545l-138 -545q-2 -10 -10 -16t-17 -6h-17q-21 0 -27 19l-210 629q-4 14 4.5 25.5t23.5 11.5q20 0 27 -19l188 -565l141 563q3 9 10.5 15t17.5 6h14q5 0 9.5 -1.5t8 -4.5t6 -7
t4.5 -8l138 -562l190 564q6 19 27 19z" />
    <glyph glyph-name="x" unicode="x" horiz-adv-x="535" 
d="M301 341l178 -298q8 -14 0 -29q-4 -6 -10.5 -10t-14.5 -4q-16 0 -24 14l-162 271l-163 -271q-8 -14 -24 -14q-17 0 -25 14.5t0 28.5l178 298l-180 301q-8 14 0 28.5t25 14.5q16 0 24 -13l165 -275l164 275q8 13 24 13q17 0 25 -14.5t0 -28.5z" />
    <glyph glyph-name="y" unicode="y" horiz-adv-x="535" 
d="M456 685q17 0 25 -14.5t0 -28.5l-185 -308v-306q0 -11 -8.5 -19.5t-20.5 -8.5q-7 0 -14 4t-10.5 10.5t-3.5 13.5v306l-185 308q-8 14 0 28.5t25 14.5q16 0 24 -13l164 -274l165 274q8 13 24 13z" />
    <glyph glyph-name="y" unicode="&#xff;" horiz-adv-x="535" 
d="M456 685q17 0 25 -14.5t0 -28.5l-185 -308v-306q0 -11 -8.5 -19.5t-20.5 -8.5q-7 0 -14 4t-10.5 10.5t-3.5 13.5v306l-185 308q-8 14 0 28.5t25 14.5q16 0 24 -13l164 -274l165 274q8 13 24 13z" />
    <glyph glyph-name="z" unicode="z" horiz-adv-x="610" 
d="M532 57q12 0 20 -8.5t8 -20t-8 -20t-20 -8.5h-434q-17 0 -25.5 14.5t0.5 29.5l369 583h-363q-8 0 -14.5 4t-10.5 10.5t-4 14.5q0 12 8.5 20t20.5 8h415q17 0 25 -14.5t-1 -28.5l-369 -584h383z" />
    <glyph glyph-name="braceleft" unicode="{" horiz-adv-x="384" 
d="M306 57q11 0 19.5 -8.5t8.5 -20t-8.5 -20t-19.5 -8.5h-141q-8 0 -14.5 3.5t-10.5 10.5t-4 14v286h-57q-12 0 -20.5 8t-8.5 20t8.5 20.5t20.5 8.5h57v285q0 12 8.5 20t20.5 8h141q11 0 19.5 -8t8.5 -20t-8.5 -20.5t-19.5 -8.5h-113v-570h113z" />
    <glyph glyph-name="verticalbar" unicode="|" horiz-adv-x="157" 
d="M78.5 0q-11.5 0 -20 8.5t-8.5 19.5v629q0 12 8.5 20t20 8t20 -8t8.5 -20v-629q0 -11 -8.5 -19.5t-20 -8.5z" />
    <glyph glyph-name="braceright" unicode="}" horiz-adv-x="383" 
d="M305 371q11 0 19.5 -8.5t8.5 -20.5t-8.5 -20t-19.5 -8h-55v-285q0 -12 -8.5 -20.5t-20.5 -8.5h-142q-12 0 -20.5 8.5t-8.5 20t8.5 20t20.5 8.5h114v570h-114q-8 0 -14.5 4t-10.5 10.5t-4 14.5q0 12 8.5 20t20.5 8h142q12 0 20.5 -8t8.5 -20v-285h55z" />
    <glyph glyph-name="asciitilde" unicode="~" horiz-adv-x="482" 
d="M404 399q8 0 14.5 -3.5t10 -10.5t3.5 -14v-8q0 -46 -32.5 -79t-79.5 -33h-6q-47 0 -80 34l-32 33q-13 12 -30 15.5t-34.5 -5.5t-27.5 -30q-3 -5 -3 -12v-11q0 -8 -4 -14.5t-10.5 -10.5t-13.5 -4h-1q-11 0 -19.5 8.5t-8.5 20.5v4q0 50 36.5 83t85.5 29q43 -4 73 -36
l30 -30q16 -17 39 -17h6q23 0 39 16t16 39v8q0 6 2.5 11t6 9t9 6t11.5 2z" />
    <glyph glyph-name="nonbreakingspace" unicode="&#xa0;" horiz-adv-x="260" 
 />
    <glyph glyph-name="exclamdown" unicode="&#xa1;" horiz-adv-x="186" 
d="M92 518q12 0 20.5 -8.5t8.5 -19.5v-461q0 -12 -8.5 -20t-20.5 -8t-20 8t-8 20v461q0 11 8 19.5t20 8.5zM92.5 600q-17.5 0 -30 12.5t-12.5 30.5q0 11 5.5 21t15.5 16t22 6q17 0 30 -12.5t13 -30.5t-13 -30.5t-30.5 -12.5z" />
    <glyph glyph-name="cent" unicode="&#xa2;" horiz-adv-x="683" 
d="M624 134q9 -9 9 -21.5t-9 -21.5q-98 -90 -231 -90v-56q0 -8 -3.5 -14.5t-10 -10.5t-14.5 -4q-12 0 -20.5 8.5t-8.5 20.5v60q-124 21 -205 116.5t-81 221t81 221t205 116.5v62q0 11 8.5 19.5t20.5 8.5q6 0 11 -2t9 -6t6 -9.5t2 -10.5v-58q132 0 229 -89q10 -8 10 -21
t-10 -21q-8 -8 -19 -7.5t-19 7.5q-86 78 -201.5 74t-195.5 -87t-79.5 -198.5t81 -198t196 -85.5t200.5 75q8 8 19 8t20 -7z" />
    <glyph glyph-name="sterling" unicode="&#xa3;" horiz-adv-x="594" 
d="M517 57q11 0 19 -8t8 -19v-3q0 -7 -4 -13.5t-10 -10t-13 -3.5h-440q-11 0 -19 8t-8 19v3q0 11 8 19t19 8h1q38 0 66 26.5t28 62.5v171h-95q-11 0 -19 8t-8 19v3q0 7 3.5 13.5t10 10t13.5 3.5h95v105q0 83 59 144t142 61q65 0 117 -39q10 -7 11 -19.5t-8 -20.5l-2 -3
q-7 -7 -17 -7.5t-18 5.5q-36 26 -81 27q-60 1 -103 -43t-43 -105v-105h92q11 0 19 -8t8 -19v-3q0 -6 -2 -11t-6 -8.5t-9 -5.5t-10 -2h-92v-171q0 -50 -32 -89h320z" />
    <glyph glyph-name="currency" unicode="&#xa4;" horiz-adv-x="356" 
d="M298 267q8 -9 8 -20.5t-8 -20t-20 -8.5t-20 8l-18 18q-28 -18 -61.5 -18t-61.5 18l-18 -18q-12 -12 -28 -7.5t-20 20.5t8 28l18 18q-17 27 -17 59t17 60l-18 18q-12 12 -8 28t20 20t28 -8l18 -17q28 17 61.5 17t61.5 -17l18 17q8 8 19.5 8t20 -8t8.5 -20t-8 -20l-18 -18
q16 -28 16 -60t-16 -59zM178.5 283q25.5 0 43 18t17.5 43.5t-17.5 43t-43 17.5t-43.5 -17.5t-18 -43t18 -43.5t43.5 -18z" />
    <glyph glyph-name="yen" unicode="&#xa5;" horiz-adv-x="535" 
d="M456 685q17 0 25 -14t0 -29l-179 -297h110q11 0 19.5 -8t8.5 -20t-8.5 -20.5t-19.5 -8.5h-116v-62h116q11 0 19.5 -8t8.5 -20t-8.5 -20.5t-19.5 -8.5h-116v-141q0 -12 -8.5 -20t-20.5 -8t-20 8t-8 20v141h-116q-12 0 -20 8.5t-8 20.5t8 20t20 8h116v62h-116
q-12 0 -20 8.5t-8 20.5q0 5 2 10.5t6 9.5t9 6t11 2h109l-178 297q-8 14 0 28.5t24 14.5h1q16 0 24 -13l164 -274l165 274q8 13 24 13z" />
    <glyph glyph-name="section" unicode="&#xa7;" horiz-adv-x="411" 
d="M361 342q0 -20 -5 -39t-14.5 -36t-23 -31t-30.5 -25q28 -26 36.5 -63.5t-6.5 -73t-47 -56t-70.5 -18.5t-69 25t-42.5 59q-3 12 2 22.5t17 13.5q7 3 14.5 1.5t13 -6.5t8.5 -13q8 -25 31.5 -37.5t49 -5t38 31t5.5 48.5q-6 22 -24 35t-40 13q-52 0 -93 31.5t-55 81t4.5 98
t61.5 75.5q-28 26 -36 63.5t7 73t47 56t70 19.5q19 -1 37 -7.5t32.5 -17.5t25.5 -26.5t16 -33.5q5 -14 -3.5 -25.5t-23.5 -11.5q-20 0 -27 19q-8 26 -31.5 38t-49 4.5t-38 -30.5t-5.5 -49q6 -21 24 -34.5t40 -12.5q42 -1 77.5 -22t56 -56.5t20.5 -77.5zM205 244
q27 0 49.5 13t36 36t13.5 49q0 41 -29 70t-69.5 29t-69.5 -29t-29 -70t29 -69.5t69 -28.5z" />
    <glyph glyph-name="copyright" unicode="&#xa9;" horiz-adv-x="461" 
d="M301 296q12 -8 13 -22.5t-10 -24.5q-36 -29 -82.5 -26t-79 36t-34 79.5t29 81.5t76.5 40.5t84 -21.5q9 -7 11 -18.5t-5 -21t-18.5 -11t-21.5 4.5q-20 14 -44 11t-39.5 -21.5t-14.5 -43t18 -41.5t41.5 -18t42.5 14q16 13 33 2zM231 523q49 0 90.5 -24.5t65.5 -66t24 -90.5
q0 -75 -53 -128t-127 -53q-49 0 -91 24.5t-66 66t-24 90.5q0 75 53 128t128 53zM231 180.5q67 0.5 114 47.5t47 114t-47 114.5t-114 47.5t-114.5 -47.5t-47.5 -114.5t47.5 -114.5t114.5 -47z" />
    <glyph glyph-name="guillemotleft" unicode="&#xab;" horiz-adv-x="403" 
d="M164 543.5q11 -4.5 15.5 -15.5t-0.5 -22l-68 -163l68 -164q2 -5 2 -11t-2 -11t-6 -9t-9 -6q-11 -5 -22 -0.5t-16 15.5l-75 180q-2 6 0 11l75 180q5 11 16 15.5t22 0zM282 343l68 -164q5 -11 0.5 -22t-15.5 -15.5t-22 0t-15 15.5l-76 180q-2 6 0 11l76 180q4 11 15 15.5
t22 -0.5q7 -3 11.5 -9t5.5 -13t-2 -15z" />
    <glyph glyph-name="softhyphen" unicode="&#xad;" horiz-adv-x="0" 
 />
    <glyph glyph-name="registered" unicode="&#xae;" horiz-adv-x="461" 
d="M231 523q49 0 90.5 -24.5t65.5 -66t24 -90.5t-24 -90.5t-65.5 -66t-90.5 -24.5t-91 24.5t-66 66t-24 90.5q0 75 53 128t128 53zM344 227q40 40 47 96t-22.5 104t-82.5 67.5t-106.5 1.5t-84.5 -65t-26 -103.5t44.5 -97t95.5 -48.5q46 -6 88 13l-52 68h-29v-17
q0 -12 -8 -20t-20 -8t-20.5 8t-8.5 20v181q0 11 8.5 19.5t20.5 8.5h66q38 1 66 -24.5t32 -62.5q2 -18 -3 -35.5t-16 -31.5t-27 -24zM295 359q0 16 -11 27.5t-27 11.5h-41v-77h41q16 0 27 11t11 27z" />
    <glyph glyph-name="plusminus" unicode="&#xb1;" horiz-adv-x="442" 
d="M364 47h-285q-12 0 -20.5 8.5t-8.5 20.5t8.5 20t20.5 8h285q12 0 20 -8t8 -20t-8 -20.5t-20 -8.5zM364 371q12 0 20 -8.5t8 -20.5t-8 -20t-20 -8h-114v-115q0 -11 -8.5 -19.5t-20.5 -8.5q-6 0 -11 2t-9 6t-6 9.5t-2 10.5v115h-114q-12 0 -20.5 8t-8.5 20q0 8 4 14.5
t10.5 10.5t14.5 4h114v111q0 7 3.5 13.5t10 10.5t14.5 4q6 0 11.5 -2t9 -6t6 -9.5t2.5 -10.5v-111h114z" />
    <glyph glyph-name="mu" unicode="&#xb5;" horiz-adv-x="413" 
d="M334 512q12 0 20.5 -8.5t8.5 -19.5v-186q0 -41 -19 -76.5t-53 -58t-75 -25.5q-61 -4 -109 36v-150q0 -11 -8.5 -19.5t-20 -8.5t-20 8.5t-8.5 19.5v460q0 11 8.5 19.5t20 8.5t20 -8.5t8.5 -19.5v-187q0 -39 25.5 -68t64.5 -34q44 -4 76.5 25.5t32.5 73.5v190q0 11 8 19.5
t20 8.5z" />
    <glyph glyph-name="paragraph" unicode="&#xb6;" horiz-adv-x="563" 
d="M484 684q12 0 20.5 -8t8.5 -20t-8.5 -20.5t-20.5 -8.5h-59v-596q0 -11 -8.5 -19.5t-20 -8.5t-20 8.5t-8.5 19.5v596h-59v-596q0 -11 -8.5 -19.5t-20 -8.5t-20 8.5t-8.5 19.5v317h-29q-71 0 -122.5 50.5t-50.5 120.5q1 69 50.5 117t117.5 48h266zM252 405v222h-34
q-45 0 -77.5 -32.5t-32.5 -78.5t32.5 -78.5t77.5 -32.5h34z" />
    <glyph glyph-name="guillemotright" unicode="&#xbb;" horiz-adv-x="403" 
d="M352 348q2 -5 0 -11l-76 -180q-5 -11 -15.5 -15.5t-21.5 0t-15.5 15.5t-0.5 22l69 164l-69 163q-4 11 0.5 22t15.5 15.5t21.5 0t15.5 -15.5zM105 528l75 -180q2 -5 0 -11l-75 -180q-5 -11 -16 -15.5t-21.5 0t-15 15.5t-0.5 22l69 164l-69 163q-4 11 0.5 22t15 15.5
t21.5 0t16 -15.5z" />
    <glyph glyph-name="questiondown" unicode="&#xbf;" horiz-adv-x="532" 
d="M432 227h50v-11q0 -87 -60 -149.5t-146.5 -66.5t-151.5 53t-73 143.5t46 154t140 79.5v60q0 11 8.5 19.5t20.5 8.5t20 -8.5t8 -19.5v-102q0 -4 -1.5 -7t-5 -5t-6.5 -2h-11q-43 0 -80.5 -20.5t-59.5 -57t-23 -79.5q-1 -69 49.5 -116.5t120.5 -43.5q63 6 105.5 53t41.5 110
q0 3 2.5 5t5.5 2zM268 600q-12 0 -21.5 6t-15.5 15.5t-6 21.5q0 18 12.5 30.5t30.5 12.5q12 0 21.5 -6t15.5 -16t6 -21q0 -18 -12.5 -30.5t-30.5 -12.5z" />
    <glyph glyph-name="Agrave" unicode="&#xc0;" horiz-adv-x="596" 
d="M545 38q4 -14 -4.5 -26t-22.5 -12q-21 0 -28 19l-38 115h-308l-38 -115q-3 -8 -10.5 -13.5t-16.5 -5.5q-15 0 -23.5 12t-4.5 26l211 628q7 19 27 19h19q21 0 27 -19zM163 191h270l-134 404zM310 748l-93 79q-8 7 -8.5 16.5t5.5 17t16 8.5t17 -6l94 -79q8 -7 8.5 -16.5
t-5.5 -17t-16 -8.5t-18 6z" />
    <glyph glyph-name="Aacute" unicode="&#xc1;" horiz-adv-x="596" 
d="M545 38q4 -14 -4.5 -26t-22.5 -12q-21 0 -28 19l-38 115h-308l-38 -115q-3 -8 -10.5 -13.5t-16.5 -5.5q-15 0 -23.5 12t-4.5 26l211 628q7 19 27 19h19q21 0 27 -19zM163 191h270l-134 404zM252 750.5q-6 7.5 -5.5 17t8.5 16.5l93 79q8 7 18 6t16 -8.5t5.5 -17
t-8.5 -16.5l-93 -79q-8 -7 -18 -6t-16 8.5z" />
    <glyph glyph-name="Acircumflex" unicode="&#xc2;" horiz-adv-x="596" 
d="M545 38q4 -14 -4.5 -26t-22.5 -12q-21 0 -28 19l-38 115h-308l-38 -115q-3 -8 -10.5 -13.5t-16.5 -5.5q-15 0 -23.5 12t-4.5 26l211 628q7 19 27 19h19q21 0 27 -19zM163 191h270l-134 404zM241 751h1q-7 -7 -17 -7t-17 7t-7 17t7 17l71 72q7 7 17 7t17 -6l75 -73
q7 -7 7 -17t-6.5 -17t-16.5 -7t-17 7l-58 56z" />
    <glyph glyph-name="Atilde" unicode="&#xc3;" horiz-adv-x="596" 
d="M545 38q4 -14 -4.5 -26t-22.5 -12q-21 0 -28 19l-38 115h-308l-38 -115q-3 -8 -10.5 -13.5t-16.5 -5.5q-15 0 -23.5 12t-4.5 26l211 628q7 19 27 19h19q21 0 27 -19zM163 191h270l-134 404zM217 782q-13 -3 -22.5 6.5t-6.5 22.5q5 18 19 32q12 11 28 15l2 1q18 4 35 0
t30.5 -16.5t18.5 -30.5q2 -8 9.5 -12t15.5 -2h2q8 3 12 10l2 4q3 13 16 16l1 1q13 3 22.5 -6.5t6.5 -22.5q-5 -18 -19 -32q-12 -11 -28 -15l-2 -1q-27 -8 -51.5 6t-32.5 41q-2 8 -9.5 12t-15.5 2h-2q-8 -3 -12 -10l-2 -4q-4 -13 -16 -16z" />
    <glyph glyph-name="Adieresis" unicode="&#xc4;" horiz-adv-x="596" 
d="M545 38q4 -14 -4.5 -26t-22.5 -12q-21 0 -28 19l-38 115h-308l-38 -115q-3 -8 -10.5 -13.5t-16.5 -5.5q-15 0 -23.5 12t-4.5 26l211 628q7 19 27 19h19q21 0 27 -19zM163 191h270l-134 404zM250 758q-12 0 -21 9t-9 21q0 9 4 15.5t11 10.5t15 4q13 0 21.5 -8.5t8.5 -21.5
q0 -6 -2 -11.5t-6 -9.5t-10 -6.5t-12 -2.5zM346 758q-13 0 -22 9t-9 21q0 6 2.5 12t6.5 10t10 6t12 2q12 0 21 -8.5t9 -21.5q0 -8 -4 -15t-11 -11t-15 -4z" />
    <glyph glyph-name="Aring" unicode="&#xc5;" horiz-adv-x="596" 
d="M545 38q3 -12 -2 -22.5t-16.5 -14t-22 1.5t-14.5 16l-38 115h-308l-38 -115q-3 -8 -10.5 -13.5t-16.5 -5.5q-15 0 -23.5 12t-4.5 26l212 630q-36 12 -55 45t-13 70q3 15 9.5 28t16 23.5t21.5 18.5t26 12t29 5q38 0 67 -24t36 -61.5t-11.5 -70.5t-54.5 -46zM241 765
q0 -23 17 -39.5t40 -16.5t39.5 16.5t16.5 39.5q0 10 -2.5 18.5t-8 15.5t-12.5 12t-15.5 8t-17.5 3q-15 0 -28 -7.5t-21 -20.5t-8 -29zM163 191h270l-134 404z" />
    <glyph glyph-name="AE" unicode="&#xc6;" horiz-adv-x="851" 
d="M773 58q7 0 14 -4t10.5 -10.5t3.5 -14.5q0 -12 -8.5 -20t-19.5 -8h-343q-11 0 -19.5 8t-8.5 20v105h-258l-38 -115q-2 -5 -6 -9.5t-9.5 -7t-11.5 -2.5q-15 0 -23.5 12t-4.5 26l211 628q7 19 27 19h484q11 0 19.5 -8.5t8.5 -20t-8.5 -20t-19.5 -8.5h-314v-257h228
q12 0 20.5 -8t8.5 -20q0 -6 -2.5 -11.5t-6.5 -9t-9 -6t-11 -2.5h-228v-256h314zM402 191v437h-92l-147 -437h239z" />
    <glyph glyph-name="Ccedilla" unicode="&#xc7;" horiz-adv-x="684" 
d="M625 91q-67 -62 -156 -82l-8 -56q32 -3 52.5 -26.5t18.5 -55.5q-3 -31 -26 -51.5t-54 -20.5h-22q-12 0 -20.5 8.5t-8.5 20.5t8.5 20t20.5 8h25q9 0 14.5 7t5.5 15q-2 8 -8 13t-13 5h-25q-13 0 -21.5 10t-7.5 23l10 71h-17q-115 0 -206.5 69t-123 179.5t10 217.5
t139 167.5t211.5 50t199 -87.5q10 -9 10 -21.5t-9 -21.5q-9 -7 -20 -7t-19 8q-86 78 -201.5 74t-196 -87.5t-80.5 -199t81 -198.5t197 -86t201 76q8 7 19 7.5t20 -7.5t9 -21t-9 -21z" />
    <glyph glyph-name="Egrave" unicode="&#xc8;" horiz-adv-x="499" 
d="M421 58q12 0 20 -8.5t8 -20.5t-8 -20t-20 -8h-342q-12 0 -20.5 8t-8.5 20v628q0 11 8.5 19.5t20.5 8.5h342q12 0 20 -8.5t8 -20t-8 -20t-20 -8.5h-314v-257h228q12 0 20.5 -8t8.5 -20q0 -6 -2.5 -11.5t-6 -9t-9 -6t-11.5 -2.5h-228v-256h314zM281 748l-94 79
q-7 7 -8 16.5t5.5 17t16.5 8.5t17 -6l94 -79q7 -7 8 -16.5t-5.5 -17t-16 -8.5t-17.5 6z" />
    <glyph glyph-name="Eacute" unicode="&#xc9;" horiz-adv-x="499" 
d="M421 58q12 0 20 -8.5t8 -20.5t-8 -20t-20 -8h-342q-12 0 -20.5 8t-8.5 20v628q0 11 8.5 19.5t20.5 8.5h342q12 0 20 -8.5t8 -20t-8 -20t-20 -8.5h-314v-257h228q12 0 20.5 -8t8.5 -20q0 -6 -2.5 -11.5t-6 -9t-9 -6t-11.5 -2.5h-228v-256h314zM184.5 750.5
q-6.5 7.5 -5.5 17t8 16.5l94 79q8 7 17.5 6t16 -8.5t5.5 -17t-8 -16.5l-94 -79q-7 -7 -17 -6t-16.5 8.5z" />
    <glyph glyph-name="Ecircumflex" unicode="&#xca;" horiz-adv-x="499" 
d="M421 58q12 0 20 -8.5t8 -20.5t-8 -20t-20 -8h-342q-12 0 -20.5 8t-8.5 20v628q0 11 8.5 19.5t20.5 8.5h342q12 0 20 -8.5t8 -20t-8 -20t-20 -8.5h-314v-257h228q12 0 20.5 -8t8.5 -20q0 -6 -2.5 -11.5t-6 -9t-9 -6t-11.5 -2.5h-228v-256h314zM193 751q-7 -7 -16.5 -7
t-16.5 7t-7.5 17t6.5 17l72 72q7 7 17 7t17 -6l75 -73q7 -7 7 -17t-7 -17t-16.5 -7t-16.5 7l-59 56z" />
    <glyph glyph-name="Edieresis" unicode="&#xcb;" horiz-adv-x="499" 
d="M421 58q12 0 20 -8.5t8 -20.5t-8 -20t-20 -8h-342q-12 0 -20.5 8t-8.5 20v628q0 11 8.5 19.5t20.5 8.5h342q12 0 20 -8.5t8 -20t-8 -20t-20 -8.5h-314v-257h228q12 0 20.5 -8t8.5 -20q0 -6 -2.5 -11.5t-6 -9t-9 -6t-11.5 -2.5h-228v-256h314zM202 758q-13 0 -21.5 9
t-8.5 21.5t8.5 21t21 8.5t21.5 -8.5t9 -21.5q0 -8 -4 -15t-11 -11t-15 -4zM297 758q-12 0 -21 9t-9 21.5t9 21t21.5 8.5t21.5 -8.5t9 -21.5q0 -8 -4.5 -15t-11 -11t-15.5 -4z" />
    <glyph glyph-name="Igrave" unicode="&#xcc;" horiz-adv-x="242" 
d="M121 685q7 0 14 -4t10.5 -10.5t3.5 -14.5v-627q0 -12 -8.5 -20t-20 -8t-20 8t-8.5 20v627q0 12 8.5 20.5t20.5 8.5zM183 784q7 -7 8 -16.5t-5.5 -17t-16 -8.5t-17.5 6l-94 79q-7 7 -8 16.5t5.5 17t16.5 8.5t17 -6z" />
    <glyph glyph-name="Iacute" unicode="&#xcd;" horiz-adv-x="241" 
d="M121 685q7 0 14 -4t10.5 -10.5t3.5 -14.5v-627q0 -12 -8.5 -20t-20 -8t-20 8t-8.5 20v627q0 12 8.5 20.5t20.5 8.5zM185.5 860.5q6.5 -7.5 5.5 -17t-8 -16.5l-94 -79q-7 -7 -17 -6t-16.5 8.5t-5.5 17t8 16.5l94 79q8 7 17.5 6t16 -8.5z" />
    <glyph glyph-name="Icircumflex" unicode="&#xce;" horiz-adv-x="294" 
d="M147 685q12 0 20.5 -8.5t8.5 -20.5v-627q0 -12 -8.5 -20t-20.5 -8q-8 0 -14.5 3.5t-10 10t-3.5 14.5v627q0 12 8 20.5t20 8.5zM237 785q7 -7 7.5 -17t-6.5 -17t-17 -7t-17 7l-58 56l-55 -56q-7 -7 -17 -7t-17 7t-7 17t7 17l72 72q6 7 16 7t17 -6z" />
    <glyph glyph-name="Idieresis" unicode="&#xcf;" horiz-adv-x="256" 
d="M128 685q8 0 14.5 -4t10 -10.5t3.5 -14.5v-627q0 -12 -8 -20t-20 -8t-20.5 8t-8.5 20v627q0 12 8.5 20.5t20.5 8.5zM80 758q-8 0 -15 4t-11 11t-4 15.5t4 15t11 10.5t15 4q13 0 21.5 -8.5t8.5 -21.5q0 -8 -4 -15t-11 -11t-15 -4zM176 758q-13 0 -22 9t-9 21q0 9 4 15.5
t11 10.5t16 4q12 0 21 -8.5t9 -21.5q0 -8 -4 -15t-11 -11t-15 -4z" />
    <glyph glyph-name="Eth" unicode="&#xd0;" horiz-adv-x="737" 
d="M338 685q92 0 171.5 -44t127 -121t50.5 -169q1 -46 -10 -90.5t-33.5 -84.5t-54.5 -73q-19 -19 -41 -35.5t-46 -29t-50 -21t-53 -13t-55 -4.5h-155q-7 0 -14 4t-10.5 10.5t-3.5 14.5v285h-82q-12 0 -20.5 8.5t-8.5 20.5t8.5 20t20.5 8h82v285q0 12 8.5 20.5t19.5 8.5h149z
M338 57q117 0 202.5 80.5t89.5 196.5q1 58 -20 112t-61 95.5t-93.5 64t-111.5 22.5h-126v-257h89q12 0 20 -8t8 -20q0 -8 -3.5 -14.5t-10.5 -10.5t-14 -4h-89v-257h120z" />
    <glyph glyph-name="Ntilde" unicode="&#xd1;" horiz-adv-x="549" 
d="M471 684q6 0 11 -2t9 -6t6 -9t2 -11v-627q0 -12 -8 -20.5t-20 -8.5h-17q-16 0 -24 14l-323 563v-548q0 -12 -8.5 -20.5t-20 -8.5t-20 8.5t-8.5 20.5v628q0 12 8.5 20t20.5 8h15q17 0 25 -14l323 -564v549q0 12 8.5 20t20.5 8zM195 783q-14 -4 -24 5.5t-6 22.5q5 18 19 32
q12 11 28 15l1 1q19 4 36 0t30 -16.5t18 -30.5q3 -8 10.5 -12t15.5 -2h2q8 3 12 10q1 2 1 4q4 13 17 16q13 4 23 -5.5t6 -22.5q-5 -19 -18 -32q-12 -11 -28 -15l-2 -1q-27 -8 -52 6t-32 41q-3 8 -10.5 12t-15.5 2h-1q-8 -3 -13 -10q-1 -2 -1 -4q-4 -13 -16 -16z" />
    <glyph glyph-name="Ograve" unicode="&#xd2;" 
d="M392 685q93 0 171.5 -46t124.5 -124.5t46 -171.5t-46 -172t-124.5 -124.5t-171.5 -45.5t-171.5 45.5t-124.5 124.5t-46 172t46 171.5t124.5 124.5t171.5 46zM392 58q118 0 201.5 83.5t83.5 201.5t-83.5 201.5t-201.5 83.5t-201.5 -83.5t-83.5 -201.5q0 -78 38 -143.5
t104 -103.5t143 -38zM423 748l-93 79q-8 7 -8.5 16.5t5.5 17t16 8.5t17 -6l94 -79q8 -7 8.5 -16.5t-5.5 -17t-16 -8.5t-18 6z" />
    <glyph glyph-name="Oacute" unicode="&#xd3;" 
d="M392 685q93 0 171.5 -46t124.5 -124.5t46 -171.5t-46 -172t-124.5 -124.5t-171.5 -45.5q-70 0 -133 27t-109 73t-73 109t-27 133q0 93 46 171.5t124.5 124.5t171.5 46zM392 58q118 0 201.5 83.5t83.5 201.5q0 77 -38 142.5t-104 104t-143 38.5t-143 -38.5t-104 -104
t-38 -142.5q0 -118 83.5 -201.5t201.5 -83.5zM327 750.5q-6 7.5 -5.5 17t8.5 16.5l93 79q8 7 18 6t16 -8.5t5.5 -17t-8.5 -16.5l-94 -79q-7 -7 -17 -6t-16 8.5z" />
    <glyph glyph-name="Ocircumflex" unicode="&#xd4;" 
d="M392 685q93 0 171.5 -46t124.5 -124.5t46 -171.5t-46 -172t-124.5 -124.5t-171.5 -45.5q-70 0 -133 27t-109 73t-73 109t-27 133q0 93 46 171.5t124.5 124.5t171.5 46zM392 58q118 0 201.5 83.5t83.5 201.5q0 77 -38 142.5t-104 104t-143 38.5t-143 -38.5t-104 -104
t-38 -142.5q0 -118 83.5 -201.5t201.5 -83.5zM302 751q-7 7 -7 17t7 17l71 72q7 7 17 7t17 -6l75 -73q7 -7 7 -17t-6.5 -17t-16.5 -7t-17 7l-58 56l-56 -56q-6 -7 -16 -7t-17 7z" />
    <glyph glyph-name="Otilde" unicode="&#xd5;" 
d="M392 685q93 0 171.5 -46t124.5 -124.5t46 -171.5t-46 -172t-124.5 -124.5t-171.5 -45.5q-70 0 -133 27t-109 73t-73 109t-27 133q0 93 46 171.5t124.5 124.5t171.5 46zM392 58q118 0 201.5 83.5t83.5 201.5q0 77 -38 142.5t-104 104t-143 38.5t-143 -38.5t-104 -104
t-38 -142.5q0 -118 83.5 -201.5t201.5 -83.5zM312 783q-13 -4 -23 5.5t-7 22.5q4 14 13 25q15 17 37 23q14 4 29 2q19 -4 33.5 -17t20.5 -32q2 -8 9.5 -12t15.5 -2h2q10 3 14 14q3 13 16 16q14 4 23.5 -6t5.5 -23q-10 -36 -46 -46l-2 -1q-9 -2 -19 -2q-37 0 -58 31
q-5 8 -7 18q-2 8 -9.5 12t-15.5 2h-2q-8 -3 -12 -10l-2 -4q-4 -13 -16 -16z" />
    <glyph glyph-name="Odieresis" unicode="&#xd6;" 
d="M392 685q93 0 171.5 -46t124.5 -124.5t46 -171.5t-46 -172t-124.5 -124.5t-171.5 -45.5q-70 0 -133 27t-109 73t-73 109t-27 133q0 93 46 171.5t124.5 124.5t171.5 46zM392 58q118 0 201.5 83.5t83.5 201.5q0 77 -38 142.5t-104 104t-143 38.5t-143 -38.5t-104 -104
t-38 -142.5q0 -118 83.5 -201.5t201.5 -83.5zM344 758q-12 0 -21 9t-9 21q0 6 2.5 12t6.5 10t9.5 6t11.5 2q13 0 21.5 -8.5t8.5 -21.5q0 -6 -2 -11.5t-6 -9.5t-10 -6.5t-12 -2.5zM440 758q-13 0 -22 9t-9 21q0 6 2.5 12t6.5 10t10 6t12 2q12 0 21 -8.5t9 -21.5
q0 -6 -2.5 -11.5t-6.5 -9.5t-9.5 -6.5t-11.5 -2.5z" />
    <glyph glyph-name="multiply" unicode="&#xd7;" horiz-adv-x="359" 
d="M300 261q12 -12 8 -28t-20 -20t-28 8l-81 80l-80 -80q-9 -8 -20.5 -8t-20 8t-8.5 20t8 20l81 81l-81 80q-8 9 -8 20.5t8.5 20t20 8.5t20.5 -8l80 -81l79 78q8 9 20 9t20.5 -8.5t8.5 -20.5t-9 -20l-78 -78z" />
    <glyph glyph-name="Oslash" unicode="&#xd8;" 
d="M636 582q93 -95 97.5 -228t-82.5 -234t-219 -116.5t-240 62.5l-55 -63q-10 -13 -26.5 -10t-22 19t5.5 28l54 63q-93 95 -97.5 228.5t82.5 234.5t219.5 116.5t240.5 -63.5l53 63q8 9 20 9.5t21 -7t9.5 -19.5t-6.5 -21zM186 146l369 430q-89 63 -198 49.5t-181 -96.5
t-69 -193t79 -190zM392 58q85 0 156.5 47t105 125.5t18.5 162.5t-73 146l-370 -430q73 -51 163 -51z" />
    <glyph glyph-name="Ugrave" unicode="&#xd9;" horiz-adv-x="547" 
d="M468.5 684q11.5 0 20 -8t8.5 -20v-433q0 -91 -64 -156t-156 -67q-93 -2 -160 66t-67 163v427q0 12 8.5 20t20 8t20 -8t8.5 -20v-433q0 -33 13 -63.5t35 -52.5t52 -35.5t64 -14.5q69 -1 119 50t50 121v428q0 12 8.5 20t20 8zM305 748l-94 79q-7 7 -8 16.5t5.5 17t16 8.5
t17.5 -6l94 -79q7 -7 8 -16.5t-5.5 -17t-16.5 -8.5t-17 6z" />
    <glyph glyph-name="Uacute" unicode="&#xda;" horiz-adv-x="547" 
d="M468 684q8 0 14.5 -3.5t10.5 -10t4 -14.5v-433q0 -91 -64 -156t-156 -67q-93 -2 -160 66t-67 163v427q0 12 8.5 20t20.5 8q7 0 13.5 -3.5t10.5 -10t4 -14.5v-433q0 -68 48 -116.5t116 -49.5q69 -1 119 50t50 121v428q0 12 8.5 20t19.5 8zM208.5 750.5q-6.5 7.5 -5.5 17
t8 16.5l94 79q7 7 17 6t16.5 -8.5t5.5 -17t-8 -16.5l-94 -79q-7 -7 -17 -6t-16.5 8.5z" />
    <glyph glyph-name="Ucircumflex" unicode="&#xdb;" horiz-adv-x="547" 
d="M468.5 684q11.5 0 20 -8t8.5 -20v-433q0 -91 -64 -156t-156 -67q-93 -2 -160 66t-67 163v427q0 12 8.5 20t20 8t20 -8t8.5 -20v-433q0 -68 48 -116.5t116 -49.5q69 -1 119 50t50 121v428q0 12 8.5 20t20 8zM217 751q-7 -7 -17 -7t-17 7t-7 17t7 17l72 72q7 7 16.5 7
t16.5 -6l75 -73q8 -7 8 -17t-7 -17t-17 -7t-17 7l-58 56z" />
    <glyph glyph-name="Udieresis" unicode="&#xdc;" horiz-adv-x="547" 
d="M468.5 684q11.5 0 20 -8t8.5 -20v-433q0 -91 -64 -156t-156 -67q-93 -2 -160 66t-67 163v427q0 12 8.5 20t20 8t20 -8t8.5 -20v-433q0 -33 13 -63.5t35 -52.5t52 -35.5t64 -14.5q69 -1 119 50t50 121v428q0 12 8.5 20t20 8zM226 758q-13 0 -21.5 9t-8.5 21q0 9 4 15.5
t11 10.5t15 4q12 0 21 -8.5t9 -21.5q0 -8 -4 -15t-11 -11t-15 -4zM321 758q-12 0 -21 9t-9 21q0 6 2.5 12t6.5 10t9.5 6t11.5 2q13 0 21.5 -8.5t8.5 -21.5q0 -6 -2 -11.5t-6.5 -9.5t-10 -6.5t-11.5 -2.5z" />
    <glyph glyph-name="Yacute" unicode="&#xdd;" horiz-adv-x="535" 
d="M456 685q17 0 25 -14.5t0 -28.5l-185 -308v-306q0 -11 -8.5 -19.5t-20 -8.5t-20 8.5t-8.5 19.5v306l-185 308q-9 14 -0.5 29t25 15t24.5 -14l165 -274l164 274q8 13 24 13zM202.5 750.5q-6.5 7.5 -5.5 17t8 16.5l94 79q7 7 17 6t16.5 -8.5t5.5 -17t-8 -16.5l-94 -79
q-7 -7 -17 -6t-16.5 8.5z" />
    <glyph glyph-name="Thorn" unicode="&#xde;" horiz-adv-x="499" 
d="M449 353q3 -85 -55.5 -146t-143.5 -61h-143v-118q0 -11 -8.5 -19.5t-20 -8.5t-20 8.5t-8.5 19.5v628q0 12 8.5 20t20 8t20 -8t8.5 -20v-111h138q81 0 141 -55.5t63 -136.5zM250 203q29 0 55 11t45.5 30t30.5 45.5t11 55.5q0 59 -41.5 101t-100.5 42h-143v-285h143z" />
    <glyph glyph-name="agrave" unicode="&#xe0;" horiz-adv-x="596" 
d="M545 37q4 -13 -4.5 -25t-22.5 -12q-21 0 -28 19l-38 114h-308l-38 -114q-3 -8 -10.5 -13.5t-16.5 -5.5q-15 0 -23.5 12t-4.5 25l211 629q7 19 27 19h19q21 0 27 -19zM163 191h270l-134 404zM310 747l-93 80q-8 6 -8.5 16t5.5 17.5t16 8.5t17 -6l94 -79q8 -7 8.5 -16.5
t-5.5 -17t-16 -8.5t-18 5z" />
    <glyph glyph-name="aacute" unicode="&#xe1;" horiz-adv-x="596" 
d="M545 37q4 -13 -4.5 -25t-22.5 -12q-21 0 -28 19l-38 114h-308l-38 -114q-3 -8 -10.5 -13.5t-16.5 -5.5q-15 0 -23.5 12t-4.5 25l211 629q7 19 27 19h19q21 0 27 -19zM163 191h270l-134 404zM252 750.5q-6 7.5 -5.5 17t8.5 16.5l93 79q8 7 18 6t16 -8.5t5.5 -17.5
t-8.5 -16l-93 -80q-8 -6 -18 -5t-16 8.5z" />
    <glyph glyph-name="acircumflex" unicode="&#xe2;" horiz-adv-x="596" 
d="M545 37q4 -13 -4.5 -25t-22.5 -12q-21 0 -28 19l-38 114h-308l-38 -114q-3 -8 -10.5 -13.5t-16.5 -5.5q-15 0 -23.5 12t-4.5 25l211 629q7 19 27 19h19q21 0 27 -19zM163 191h270l-134 404zM241 751h1q-7 -7 -17 -7t-17 7t-7 17t7 17l71 72q7 7 17 7t17 -6l75 -73
q7 -7 7 -17t-6.5 -17t-16.5 -7t-17 6l-58 57z" />
    <glyph glyph-name="atilde" unicode="&#xe3;" horiz-adv-x="596" 
d="M545 37q4 -13 -4.5 -25t-22.5 -12q-21 0 -28 19l-38 114h-308l-38 -114q-3 -8 -10.5 -13.5t-16.5 -5.5q-15 0 -23.5 12t-4.5 25l211 629q7 19 27 19h19q21 0 27 -19zM163 191h270l-134 404zM217 782q-13 -3 -22.5 6.5t-6.5 22.5q5 18 19 31q12 12 28 16l2 1q18 4 35 0
t30.5 -16.5t18.5 -30.5q2 -8 9.5 -12t15.5 -2h2q8 3 12 10l2 4q3 13 16 16h1q13 4 22.5 -5.5t6.5 -22.5q-5 -18 -19 -32q-12 -11 -28 -15l-2 -1q-27 -8 -51.5 6t-32.5 41q-2 8 -9.5 12t-15.5 2l-2 -1q-8 -2 -12 -9l-2 -4q-4 -13 -16 -17h-1z" />
    <glyph glyph-name="adieresis" unicode="&#xe4;" horiz-adv-x="596" 
d="M545 37q4 -13 -4.5 -25t-22.5 -12q-21 0 -28 19l-38 114h-308l-38 -114q-3 -8 -10.5 -13.5t-16.5 -5.5q-15 0 -23.5 12t-4.5 25l211 629q7 19 27 19h19q21 0 27 -19zM163 191h270l-134 404zM250 758q-12 0 -21 9t-9 21.5t9 21t21.5 8.5t21 -8.5t8.5 -21.5q0 -8 -4 -15
t-11 -11t-15 -4zM346 758q-13 0 -22 9t-9 21.5t9 21t21.5 8.5t21.5 -8.5t9 -21.5q0 -6 -2.5 -11.5t-6.5 -9.5t-9.5 -6.5t-11.5 -2.5z" />
    <glyph glyph-name="aring" unicode="&#xe5;" horiz-adv-x="596" 
d="M545 37q3 -11 -2 -21.5t-16.5 -14t-22 1.5t-14.5 16l-38 114h-308l-38 -114q-3 -8 -10.5 -13.5t-16.5 -5.5q-15 0 -23.5 12t-4.5 25l212 630q-24 9 -40.5 27t-24 41t-3.5 48q7 37 36 61.5t66.5 25t66.5 -24t36 -61.5t-11.5 -70t-54.5 -46zM241 765q0 -11 4.5 -21.5
t12.5 -18t18 -12t22 -4.5q23 0 39.5 16.5t16.5 40t-16.5 40t-39.5 16.5t-40 -16.5t-17 -40.5zM163 191h270l-134 404z" />
    <glyph glyph-name="ae" unicode="&#xe6;" horiz-adv-x="851" 
d="M773 58q11 0 19.5 -8.5t8.5 -20.5t-8.5 -20.5t-19.5 -8.5h-343q-11 0 -19.5 8.5t-8.5 20.5v104h-258l-38 -114q-2 -5 -6 -9.5t-9.5 -7t-11.5 -2.5q-15 0 -23.5 12t-4.5 25l211 629q7 19 27 19h484q11 0 19.5 -8.5t8.5 -20t-8.5 -20t-19.5 -8.5h-314v-257h228
q12 0 20.5 -8t8.5 -20t-8.5 -20.5t-20.5 -8.5h-228v-256h314zM402 191v437h-92l-147 -437h239z" />
    <glyph glyph-name="ccedilla" unicode="&#xe7;" horiz-adv-x="684" 
d="M625 91q-67 -62 -156 -82l-8 -56q32 -3 52.5 -26.5t18.5 -55.5q-3 -31 -26 -51.5t-54 -20.5h-22q-12 0 -20.5 8.5t-8.5 20.5t8.5 20t20.5 8h25q9 0 14.5 6.5t5.5 15.5q-2 8 -8 13t-13 5h-25q-13 0 -21.5 10t-7.5 22l10 72h-17q-115 0 -206.5 69t-123 179.5t10 217.5
t139 167.5t211.5 50t199 -87.5q10 -9 10 -21.5t-9 -21.5q-9 -7 -20 -7t-19 8q-86 78 -201.5 74t-196 -87.5t-80.5 -199t81 -198.5t197 -86t201 75q8 8 19 8.5t20 -7.5t9 -21t-9 -21z" />
    <glyph glyph-name="egrave" unicode="&#xe8;" horiz-adv-x="499" 
d="M421 58q12 0 20 -8.5t8 -20.5t-8 -20t-20 -8h-342q-12 0 -20.5 8t-8.5 20v627q0 12 8.5 20.5t20.5 8.5h342q12 0 20 -8.5t8 -20t-8 -20t-20 -8.5h-314v-257h228q12 0 20.5 -8t8.5 -20t-8.5 -20.5t-20.5 -8.5h-228v-256h314zM281 747l-94 80q-7 6 -8 16t5.5 17.5t16.5 8.5
t17 -6l94 -79q7 -7 8 -16.5t-5.5 -17t-16 -8.5t-17.5 5z" />
    <glyph glyph-name="eacute" unicode="&#xe9;" horiz-adv-x="499" 
d="M421 58q12 0 20 -8.5t8 -20.5t-8 -20t-20 -8h-342q-12 0 -20.5 8t-8.5 20v627q0 12 8.5 20.5t20.5 8.5h342q12 0 20 -8.5t8 -20t-8 -20t-20 -8.5h-314v-257h228q12 0 20.5 -8t8.5 -20t-8.5 -20.5t-20.5 -8.5h-228v-256h314zM184.5 750.5q-6.5 7.5 -5.5 17t8 16.5l94 79
q8 7 17.5 6t16 -8.5t5.5 -17.5t-8 -16l-94 -80q-7 -6 -17 -5t-16.5 8.5z" />
    <glyph glyph-name="ecircumflex" unicode="&#xea;" horiz-adv-x="499" 
d="M421 58q12 0 20 -8.5t8 -20.5t-8 -20t-20 -8h-342q-12 0 -20.5 8t-8.5 20v627q0 12 8.5 20.5t20.5 8.5h342q12 0 20 -8.5t8 -20t-8 -20t-20 -8.5h-314v-257h228q12 0 20.5 -8t8.5 -20t-8.5 -20.5t-20.5 -8.5h-228v-256h314zM193 751q-7 -7 -16.5 -7t-16.5 7t-7.5 17
t6.5 17l72 72q7 7 17 7t17 -6l75 -73q7 -7 7 -17t-7 -17t-16.5 -7t-16.5 6l-59 57z" />
    <glyph glyph-name="edieresis" unicode="&#xeb;" horiz-adv-x="499" 
d="M421 58q12 0 20 -8.5t8 -20.5t-8 -20t-20 -8h-342q-12 0 -20.5 8t-8.5 20v627q0 12 8.5 20.5t20.5 8.5h342q12 0 20 -8.5t8 -20t-8 -20t-20 -8.5h-314v-257h228q12 0 20.5 -8t8.5 -20t-8.5 -20.5t-20.5 -8.5h-228v-256h314zM202 758q-13 0 -21.5 9t-8.5 21.5t8.5 21
t21 8.5t21.5 -8.5t9 -21.5q0 -8 -4 -15t-11 -11t-15 -4zM297 758q-12 0 -21 9t-9 21.5t9 21t21.5 8.5t21.5 -8.5t9 -21.5q0 -8 -4.5 -15t-11 -11t-15.5 -4z" />
    <glyph glyph-name="igrave" unicode="&#xec;" horiz-adv-x="242" 
d="M121 685q7 0 14 -4t10.5 -10.5t3.5 -14.5v-627q0 -12 -8.5 -20.5t-20 -8.5t-20 8.5t-8.5 20.5v627q0 12 8.5 20.5t20.5 8.5zM183 784q7 -7 8 -16.5t-5.5 -17t-16 -8.5t-17.5 5l-94 80q-7 6 -8 16t5.5 17.5t16.5 8.5t17 -6z" />
    <glyph glyph-name="iacute" unicode="&#xed;" horiz-adv-x="241" 
d="M121 685q7 0 14 -4t10.5 -10.5t3.5 -14.5v-627q0 -12 -8.5 -20.5t-20 -8.5t-20 8.5t-8.5 20.5v627q0 12 8.5 20.5t20.5 8.5zM185.5 860.5q6.5 -7.5 5.5 -17.5t-8 -16l-94 -80q-7 -6 -17 -5t-16.5 8.5t-5.5 17t8 16.5l94 79q8 7 17.5 6t16 -8.5z" />
    <glyph glyph-name="icircumflex" unicode="&#xee;" horiz-adv-x="294" 
d="M147 685q8 0 14.5 -4t10.5 -10.5t4 -14.5v-627q0 -12 -8.5 -20.5t-20.5 -8.5q-8 0 -14.5 4t-10 10.5t-3.5 14.5v627q0 12 8 20.5t20 8.5zM237 785q7 -7 7.5 -17t-6.5 -17t-17 -7t-17 6l-58 57l-55 -56q-7 -7 -17 -7t-17 7t-7 17t7 17l72 72q6 7 16 7t17 -6z" />
    <glyph glyph-name="idieresis" unicode="&#xef;" horiz-adv-x="256" 
d="M128 685q8 0 14.5 -4t10 -10.5t3.5 -14.5v-627q0 -12 -8 -20.5t-20 -8.5t-20.5 8.5t-8.5 20.5v627q0 12 8.5 20.5t20.5 8.5zM80 758q-8 0 -15 4t-11 11t-4 15q0 13 9 21.5t21.5 8.5t21 -8.5t8.5 -21.5q0 -8 -4 -15t-11 -11t-15 -4zM176 758q-13 0 -22 9t-9 21.5t9 21
t21.5 8.5t21.5 -8.5t9 -21.5q0 -8 -4 -15t-11 -11t-15 -4z" />
    <glyph glyph-name="eth" unicode="&#xf0;" horiz-adv-x="737" 
d="M338 685q92 0 171.5 -44t127 -121.5t50.5 -168.5q1 -46 -10 -90.5t-33.5 -84.5t-54.5 -73q-19 -19 -41 -35.5t-46 -29t-50 -21t-53 -13t-55 -4.5h-155q-7 0 -14 4t-10.5 10.5t-3.5 14.5v285h-82q-12 0 -20.5 8.5t-8.5 20.5q0 8 4 14.5t10.5 10t14.5 3.5h82v285
q0 12 8.5 20.5t19.5 8.5h149zM338 57q117 0 202.5 80.5t89.5 196.5q1 58 -20 112t-61 95.5t-93.5 64t-111.5 22.5h-126v-257h89q12 0 20 -8t8 -20t-8 -20.5t-20 -8.5h-89v-257h120z" />
    <glyph glyph-name="ntilde" unicode="&#xf1;" horiz-adv-x="549" 
d="M471 684q12 0 20 -8t8 -20v-628q0 -11 -8 -19.5t-20 -8.5h-17q-16 0 -24 14l-323 563v-549q0 -11 -8.5 -19.5t-20 -8.5t-20 8.5t-8.5 19.5v629q0 12 8.5 20t20.5 8h15q17 0 25 -14l323 -564v549q0 12 8.5 20t20.5 8zM195 782q-14 -3 -24 6.5t-6 22.5q5 18 19 31
q12 12 28 16l1 1q19 4 36 0t30 -16.5t18 -30.5q3 -8 10.5 -12t15.5 -2h2q8 3 12 10q1 2 1 4q4 12 17 16t23 -5.5t6 -23.5q-5 -18 -18 -31q-12 -11 -28 -15l-2 -1q-27 -8 -52 6t-32 41q-3 8 -10.5 12t-15.5 2l-1 -1q-8 -2 -13 -9q-1 -2 -1 -4q-4 -13 -16 -17z" />
    <glyph glyph-name="ograve" unicode="&#xf2;" 
d="M392 685q93 0 171.5 -46t124.5 -124.5t46 -171.5t-46 -172t-124.5 -124.5t-171.5 -45.5t-171.5 45.5t-124.5 124.5t-46 172t46 171.5t124.5 124.5t171.5 46zM392 58q118 0 201.5 83.5t83.5 201.5t-83.5 201.5t-201.5 83.5t-201.5 -83.5t-83.5 -201.5t83.5 -201.5
t201.5 -83.5zM423 747l-93 80q-8 6 -8.5 16t5.5 17.5t16 8.5t17 -6l94 -79q8 -7 8.5 -16.5t-5.5 -17t-16 -8.5t-18 5z" />
    <glyph glyph-name="oacute" unicode="&#xf3;" 
d="M392 685q93 0 171.5 -46t124.5 -124.5t46 -171.5t-46 -172t-124.5 -124.5t-171.5 -45.5q-70 0 -133 27t-109 72.5t-73 109t-27 133.5q0 93 46 171.5t124.5 124.5t171.5 46zM392 58q118 0 201.5 83.5t83.5 201.5q0 77 -38 142.5t-104 104t-143 38.5q-118 0 -201.5 -83.5
t-83.5 -201.5t83.5 -201.5t201.5 -83.5zM327 750.5q-6 7.5 -5.5 17t8.5 16.5l93 79q8 7 18 6t16 -8.5t5.5 -17.5t-8.5 -16l-94 -80q-7 -6 -17 -5t-16 8.5z" />
    <glyph glyph-name="ocircumflex" unicode="&#xf4;" 
d="M392 685q93 0 171.5 -46t124.5 -124.5t46 -171.5t-46 -172t-124.5 -124.5t-171.5 -45.5q-70 0 -133 27t-109 72.5t-73 109t-27 133.5q0 93 46 171.5t124.5 124.5t171.5 46zM392 58q118 0 201.5 83.5t83.5 201.5q0 77 -38 142.5t-104 104t-143 38.5q-118 0 -201.5 -83.5
t-83.5 -201.5t83.5 -201.5t201.5 -83.5zM302 751q-7 7 -7 17t7 17l71 72q7 7 17 7t17 -6l75 -73q7 -7 7 -17t-6.5 -17t-16.5 -7t-17 6l-58 57l-56 -56q-6 -7 -16 -7t-17 7z" />
    <glyph glyph-name="otilde" unicode="&#xf5;" 
d="M392 685q93 0 171.5 -46t124.5 -124.5t46 -171.5t-46 -172t-124.5 -124.5t-171.5 -45.5q-70 0 -133 27t-109 72.5t-73 109t-27 133.5q0 93 46 171.5t124.5 124.5t171.5 46zM392 58q118 0 201.5 83.5t83.5 201.5q0 77 -38 142.5t-104 104t-143 38.5q-118 0 -201.5 -83.5
t-83.5 -201.5t83.5 -201.5t201.5 -83.5zM312 782q-13 -3 -23 6.5t-7 22.5q4 14 13 25q15 17 37 23q14 4 29 2q12 -3 23 -9.5t19 -17t12 -22.5q2 -8 9.5 -12.5t15.5 -1.5h2q10 3 14 14q3 13 16 16q14 4 23.5 -6t5.5 -23q-10 -36 -46 -46l-2 -1q-9 -3 -19 -3q-37 1 -58 32
q-5 8 -7 18q-2 8 -9.5 12t-15.5 2h-2q-8 -3 -12 -10l-2 -4q-4 -13 -16 -17z" />
    <glyph glyph-name="odieresis" unicode="&#xf6;" 
d="M392 685q93 0 171.5 -46t124.5 -124.5t46 -171.5t-46 -172t-124.5 -124.5t-171.5 -45.5q-70 0 -133 27t-109 72.5t-73 109t-27 133.5q0 93 46 171.5t124.5 124.5t171.5 46zM392 58q118 0 201.5 83.5t83.5 201.5q0 77 -38 142.5t-104 104t-143 38.5q-118 0 -201.5 -83.5
t-83.5 -201.5t83.5 -201.5t201.5 -83.5zM344 758q-12 0 -21 9t-9 21.5t9 21t21.5 8.5t21 -8.5t8.5 -21.5q0 -8 -4 -15t-11 -11t-15 -4zM440 758q-13 0 -22 9t-9 21.5t9 21t21.5 8.5t21.5 -8.5t9 -21.5q0 -6 -2.5 -11.5t-6.5 -9.5t-9.5 -6.5t-11.5 -2.5z" />
    <glyph glyph-name="divide" unicode="&#xf7;" horiz-adv-x="442" 
d="M364 371q12 0 20 -8.5t8 -20.5t-8 -20t-20 -8h-285q-12 0 -20.5 8t-8.5 20q0 8 4 14.5t10.5 10.5t14.5 4h285zM221 429q-9 0 -16.5 3.5t-13.5 9t-9.5 13.5t-3.5 17q0 17 12.5 29.5t30.5 12.5q12 0 21.5 -5.5t15.5 -15.5t6 -21q0 -18 -12.5 -30.5t-30.5 -12.5zM221 172
q-9 0 -16.5 3.5t-13.5 9t-9.5 13.5t-3.5 17q0 17 12.5 29.5t30.5 12.5q9 0 17 -3t13.5 -9t9 -14t3.5 -16q0 -18 -12.5 -30.5t-30.5 -12.5z" />
    <glyph glyph-name="oslash" unicode="&#xf8;" 
d="M636 582q93 -95 97.5 -228.5t-82.5 -234.5t-219 -116t-240 63l-55 -63q-10 -13 -26.5 -10t-22 19t5.5 28l54 63q-93 95 -97.5 228.5t82.5 234.5t219.5 116.5t240.5 -63.5l53 62q8 9 20 10t21 -6.5t9.5 -19.5t-6.5 -21zM186 146l369 430q-89 63 -198 49.5t-181 -97
t-69 -193t79 -189.5zM392 58q56 0 108 21t91.5 60t62.5 91q33 78 18 162.5t-73 145.5l-370 -429q73 -51 163 -51z" />
    <glyph glyph-name="ugrave" unicode="&#xf9;" horiz-adv-x="547" 
d="M468.5 684q11.5 0 20 -8t8.5 -20v-433q0 -91 -64 -156t-156 -67q-93 -2 -160 66t-67 162v428q0 12 8.5 20t20 8t20 -8t8.5 -20v-433q0 -68 48 -116.5t116 -49.5q45 -1 84 22.5t62 63t23 85.5v428q0 12 8.5 20t20 8zM305 747l-94 80q-7 6 -8 16t5.5 17.5t16 8.5t17.5 -6
l94 -79q7 -7 8 -16.5t-5.5 -17t-16.5 -8.5t-17 5z" />
    <glyph glyph-name="uacute" unicode="&#xfa;" horiz-adv-x="547" 
d="M468 684q8 0 14.5 -3.5t10.5 -10t4 -14.5v-433q0 -91 -64 -156t-156 -67q-93 -2 -160 66t-67 162v428q0 12 8.5 20t20 8t20 -8t8.5 -20v-433q0 -68 48 -116.5t116 -49.5q69 -1 119 50t50 121v428q0 12 8.5 20t19.5 8zM208.5 750.5q-6.5 7.5 -5.5 17t8 16.5l94 79
q7 7 17 6t16.5 -8.5t5.5 -17.5t-8 -16l-94 -80q-7 -6 -17 -5t-16.5 8.5z" />
    <glyph glyph-name="ucircumflex" unicode="&#xfb;" horiz-adv-x="547" 
d="M468 684q8 0 14.5 -3.5t10.5 -10t4 -14.5v-433q0 -91 -64 -156t-156 -67q-93 -2 -160 66t-67 162v428q0 12 8.5 20t20 8t20 -8t8.5 -20v-433q0 -68 48 -116.5t116 -49.5q69 -1 119 50t50 121v428q0 12 8.5 20t19.5 8zM217 751q-7 -7 -17 -7t-17 7t-7 17t7 17l72 72
q7 7 16.5 7t16.5 -6l75 -73q8 -7 8 -17t-7 -17t-17 -7t-17 6l-58 57z" />
    <glyph glyph-name="udieresis" unicode="&#xfc;" horiz-adv-x="547" 
d="M468.5 684q11.5 0 20 -8t8.5 -20v-433q0 -91 -64 -156t-156 -67q-93 -2 -160 66t-67 162v428q0 12 8.5 20t20 8t20 -8t8.5 -20v-433q0 -68 48 -116.5t116 -49.5q45 -1 84 22.5t62 63t23 85.5v428q0 12 8.5 20t20 8zM226 758q-13 0 -21.5 9t-8.5 21.5t8.5 21t21 8.5
t21.5 -8.5t9 -21.5q0 -8 -4 -15t-11 -11t-15 -4zM321 758q-12 0 -21 9t-9 21.5t9 21t21.5 8.5t21 -8.5t8.5 -21.5q0 -8 -4 -15t-11 -11t-15 -4z" />
    <glyph glyph-name="yacute" unicode="&#xfd;" horiz-adv-x="535" 
d="M456 685q17 0 25 -14.5t0 -28.5l-185 -308v-306q0 -11 -8.5 -19.5t-20 -8.5t-20 8.5t-8.5 19.5v306l-185 308q-9 14 -0.5 28.5t25 15t24.5 -14.5l165 -273l164 273q8 14 24 14zM202.5 750.5q-6.5 7.5 -5.5 17t8 16.5l94 79q7 7 17 6t16.5 -8.5t5.5 -17.5t-8 -16l-94 -80
q-7 -6 -17 -5t-16.5 8.5z" />
    <glyph glyph-name="thorn" unicode="&#xfe;" horiz-adv-x="499" 
d="M449 353q3 -85 -55.5 -146t-143.5 -62h-143v-117q0 -11 -8.5 -19.5t-20 -8.5t-20 8.5t-8.5 19.5v628q0 12 8.5 20t20 8t20 -8t8.5 -20v-111h138q81 0 141 -56t63 -136zM250 202q29 0 55 11.5t45.5 30.5t30.5 45.5t11 55.5q0 59 -41.5 101t-100.5 42h-143v-286h143z" />
    <glyph glyph-name="Ldot" unicode="&#x13f;" horiz-adv-x="509" 
d="M430 57q12 0 20.5 -8.5t8.5 -20t-8.5 -20t-20.5 -8.5h-351q-12 0 -20.5 8.5t-8.5 20.5v627q0 12 8.5 20t20.5 8q7 0 13.5 -3.5t10.5 -10t4 -14.5v-599h323zM208 295q-9 0 -17 3.5t-13.5 9.5t-9 14t-3.5 16q0 18 12.5 30.5t30.5 12.5t30.5 -12.5t12.5 -30t-12.5 -30.5
t-30.5 -13z" />
    <glyph glyph-name="ldot" unicode="&#x140;" horiz-adv-x="509" 
d="M430 57q12 0 20.5 -8.5t8.5 -20t-8.5 -20t-20.5 -8.5h-351q-12 0 -20.5 8.5t-8.5 19.5v628q0 12 8.5 20t20 8t20 -8t8.5 -20v-599h323zM208 295q-9 0 -17 3.5t-13.5 9.5t-9 13.5t-3.5 16.5q0 18 12.5 30.5t30.5 12.5q9 0 17 -3.5t13.5 -9t9 -13.5t3.5 -17
q0 -18 -12.5 -30.5t-30.5 -12.5z" />
    <glyph glyph-name="Nacute" unicode="&#x143;" horiz-adv-x="549" 
d="M471 684q6 0 11 -2t9 -6t6 -9t2 -11v-627q0 -12 -8 -20.5t-20 -8.5h-17q-16 0 -24 14l-323 563v-548q0 -12 -8.5 -20.5t-20 -8.5t-20 8.5t-8.5 20.5v628q0 12 8.5 20t20.5 8h15q17 0 25 -14l323 -564v549q0 12 8.5 20t20.5 8zM209.5 750.5q-6.5 7.5 -5.5 17t8 16.5l94 79
q8 7 17.5 6t16 -8.5t5.5 -17t-8 -16.5l-94 -79q-7 -7 -17 -6t-16.5 8.5z" />
    <glyph glyph-name="nacute" unicode="&#x144;" horiz-adv-x="549" 
d="M471 684q12 0 20 -8t8 -20v-628q0 -11 -8 -19.5t-20 -8.5h-17q-16 0 -24 14l-323 563v-549q0 -11 -8.5 -19.5t-20 -8.5t-20 8.5t-8.5 19.5v629q0 12 8.5 20t20.5 8h15q17 0 25 -14l323 -564v549q0 12 8.5 20t20.5 8zM209.5 750.5q-6.5 7.5 -5.5 17t8 16.5l94 79
q8 7 17.5 6t16 -8.5t5.5 -17.5t-8 -16l-94 -80q-7 -6 -17 -5t-16.5 8.5z" />
    <glyph glyph-name="Ncaron" unicode="&#x147;" horiz-adv-x="549" 
d="M471 684q6 0 11 -2t9 -6t6 -9t2 -11v-627q0 -12 -8 -20.5t-20 -8.5h-17q-16 0 -24 14l-323 563v-548q0 -12 -8.5 -20.5t-20 -8.5t-20 8.5t-8.5 20.5v628q0 12 8.5 20t20.5 8h15q17 0 25 -14l323 -564v549q0 12 8.5 20t20.5 8zM260 734l-75 73q-7 7 -7.5 17t6.5 17t17 7
t17 -7l58 -56l55 55q7 7 17 7.5t17 -6.5t7 -17t-7 -17l-72 -73q-7 -7 -16.5 -7t-16.5 7z" />
    <glyph glyph-name="ncaron" unicode="&#x148;" horiz-adv-x="549" 
d="M471 684q12 0 20 -8t8 -20v-628q0 -11 -8 -19.5t-20 -8.5h-17q-16 0 -24 14l-323 563v-549q0 -11 -8.5 -19.5t-20 -8.5t-20 8.5t-8.5 19.5v629q0 12 8.5 20t20.5 8h15q17 0 25 -14l323 -564v549q0 12 8.5 20t20.5 8zM260 734l-75 73q-7 7 -7.5 16.5t6.5 17t17 7.5t17 -7
l58 -57l55 56q7 7 17 7t17 -6.5t7 -16.5t-7 -17l-72 -73q-7 -7 -16.5 -7t-16.5 7z" />
    <glyph glyph-name="OE" unicode="&#x152;" horiz-adv-x="934" 
d="M856 57q12 0 20 -8.5t8 -20t-8 -20t-20 -8.5l-465 -1q-93 1 -171.5 47t-124 124.5t-45.5 171.5q0 70 27 133t72.5 109t108.5 73t133 28h465q12 0 20 -8.5t8 -20t-8 -20t-20 -8.5h-352v-257h257q8 0 14.5 -4t10.5 -10.5t4 -14t-4 -14t-10.5 -10.5t-14.5 -4h-257v-257h352z
M447 56v572h-56q-118 -1 -201 -84.5t-83 -201.5t83 -201.5t201 -84.5h56z" />
    <glyph glyph-name="oe" unicode="&#x153;" horiz-adv-x="934" 
d="M856 57q12 0 20 -8.5t8 -20t-8 -20t-20 -8.5l-465 -1q-93 1 -171.5 47t-124 124.5t-45.5 171.5q0 69 27 132.5t72.5 109.5t108.5 73t133 28h465q7 0 14 -4t10.5 -10.5t3.5 -14.5q0 -11 -8 -19.5t-20 -8.5h-352v-257h257q8 0 14.5 -4t10.5 -10.5t4 -14.5q0 -11 -8.5 -19.5
t-20.5 -8.5h-257v-257h352zM447 56v572h-56q-77 -1 -142.5 -39t-103.5 -104t-38 -143q0 -118 83 -201.5t201 -84.5h56z" />
    <glyph glyph-name="Racute" unicode="&#x154;" horiz-adv-x="530" 
d="M289 253l157 -207q7 -10 5.5 -21.5t-11 -18.5t-21.5 -5.5t-19 10.5l-181 241h-112v-220q0 -12 -8.5 -20.5t-20 -8.5t-20 8.5t-8.5 20.5v624q0 12 8.5 20t20.5 8h180q89 0 154 -61t67 -149q2 -84 -52.5 -147.5t-138.5 -73.5zM107 309h157q66 0 112.5 46.5t46.5 112.5
t-46.5 112.5t-112.5 46.5h-157v-318zM200 750.5q-6 7.5 -5.5 17t8.5 16.5l93 79q8 7 18 6t16 -8.5t5.5 -17t-8.5 -16.5l-93 -79q-8 -7 -18 -6t-16 8.5z" />
    <glyph glyph-name="racute" unicode="&#x155;" horiz-adv-x="530" 
d="M289 253l157 -207q7 -10 5.5 -21.5t-11 -19t-21.5 -5.5t-19 11l-181 241h-112v-220q0 -12 -8.5 -20.5t-20 -8.5t-20 8.5t-8.5 20.5v624q0 12 8.5 20t20.5 8h180q58 0 108 -27.5t80.5 -76t32.5 -106.5q2 -84 -52.5 -147.5t-138.5 -73.5zM107 309h157q66 0 112.5 46.5
t46.5 112.5t-46.5 112.5t-112.5 46.5h-157v-318zM200 750.5q-6 7.5 -5.5 17t8.5 16.5l93 79q8 7 18 6t16 -8.5t5.5 -17.5t-8.5 -16l-93 -80q-8 -6 -18 -5t-16 8.5z" />
    <glyph glyph-name="Tcaron" unicode="&#x164;" horiz-adv-x="613" 
d="M535 684q12 0 20 -8t8 -20t-8 -20.5t-20 -8.5h-200v-599q0 -11 -8 -19.5t-20 -8.5t-20.5 8.5t-8.5 19.5v599h-199q-8 0 -14.5 4t-10.5 10.5t-4 14.5q0 12 8.5 20t20.5 8h456zM292 734l-75 73q-7 7 -7.5 17t6.5 17t17 7t17 -7l58 -56l55 55q7 7 17 7.5t17 -6.5t7 -17
t-7 -17l-72 -73q-6 -7 -16 -7t-17 7z" />
    <glyph glyph-name="tcaron" unicode="&#x165;" horiz-adv-x="613" 
d="M535 684q12 0 20 -8t8 -20t-8 -20.5t-20 -8.5h-200v-599q0 -11 -8 -19.5t-20 -8.5t-20.5 8.5t-8.5 19.5v599h-199q-12 0 -20.5 8.5t-8.5 20.5t8.5 20t20.5 8h456zM292 734l-75 73q-7 7 -7.5 16.5t6.5 17t17 7.5t17 -7l58 -57l55 56q7 7 17 7t17 -6.5t7 -16.5t-7 -17
l-72 -73q-6 -7 -16 -7t-17 7z" />
    <glyph glyph-name="Tbar" unicode="&#x166;" horiz-adv-x="613" 
d="M535 684q12 0 20 -8t8 -20t-8 -20.5t-20 -8.5h-200v-256h86q12 0 20 -8t8 -20q0 -6 -2 -11.5t-6 -9t-9 -6t-11 -2.5h-86v-286q0 -11 -8 -19.5t-20 -8.5t-20.5 8.5t-8.5 19.5v286h-85q-6 0 -11.5 2.5t-9 6t-6 9t-2.5 11.5q0 12 8.5 20t20.5 8h85v256h-199q-8 0 -14.5 4
t-10.5 10.5t-4 14.5q0 12 8.5 20t20.5 8h456z" />
    <glyph glyph-name="tbar" unicode="&#x167;" horiz-adv-x="613" 
d="M535 684q12 0 20 -8t8 -20t-8 -20.5t-20 -8.5h-200v-256h86q12 0 20 -8t8 -20t-8 -20.5t-20 -8.5h-86v-286q0 -11 -8 -19.5t-20 -8.5t-20.5 8.5t-8.5 19.5v286h-85q-6 0 -11.5 2.5t-9 6t-6 9t-2.5 11.5q0 8 4 14.5t10.5 10t14.5 3.5h85v256h-199q-12 0 -20.5 8.5
t-8.5 20.5t8.5 20t20.5 8h456z" />
    <glyph glyph-name="Omegagreek" unicode="&#x3a9;" horiz-adv-x="565" 
d="M487 200q12 0 20 -8.5t8 -20.5t-8 -20t-20 -8h-117q-10 0 -18 6.5t-10 16.5l-2 10q-4 20 14 30q22 12 38.5 31t26 40.5t11.5 46.5t-4 49q-13 50 -53 81t-91 31t-91 -31t-53 -80.5t7 -96t64 -71.5q18 -10 14 -30l-2 -10q-2 -10 -9.5 -16.5t-18.5 -6.5h-114q-12 0 -20.5 8
t-8.5 20t8.5 20.5t20.5 8.5h48q-54 62 -50.5 144.5t63 140t142.5 57.5t142.5 -57.5t63 -140t-51.5 -144.5h51z" />
    <glyph glyph-name="quoteright" unicode="&#x2019;" horiz-adv-x="153" 
d="M79 686q11 0 18 -8.5t5 -18.5l-32 -185q-1 -7 -8 -7h-4q-8 0 -8 8v188q0 6 3 11.5t8.5 8.5t11.5 3h6z" />
    <glyph glyph-name="ellipsis" unicode="&#x2026;" horiz-adv-x="490" 
d="M92.5 1q-17.5 0 -30 12.5t-12.5 29.5q0 12 5.5 22t15.5 15.5t22 5.5q17 0 30 -12.5t13 -30t-13 -30t-30.5 -12.5zM245 1q-18 0 -30.5 12.5t-12.5 30t12.5 30t30.5 12.5t30.5 -12.5t12.5 -30t-12.5 -30t-30.5 -12.5zM397.5 1q-17.5 0 -30.5 12.5t-13 30t13 30t30.5 12.5
t30 -12.5t12.5 -30t-12.5 -30t-30 -12.5z" />
    <glyph glyph-name="perthousand" unicode="&#x2030;" horiz-adv-x="833" 
d="M250 566q0 -42 -29.5 -71t-71 -29t-70.5 29t-29 71v19q0 41 29 70.5t70.5 29.5t71 -29.5t29.5 -70.5v-19zM193 566v19q0 17 -12.5 29.5t-30.5 12.5q-12 0 -21.5 -5.5t-15.5 -15.5t-6 -21v-19q0 -18 12.5 -30.5t30.5 -12.5t30.5 12.5t12.5 30.5zM444.5 218q41.5 0 71 -29
t29.5 -71v-19q0 -41 -29.5 -70.5t-71 -29.5t-70.5 29.5t-29 70.5v19q0 42 29 71t70.5 29zM488 99v19q0 18 -12.5 30.5t-30.5 12.5q-9 0 -17 -3.5t-13.5 -9t-9 -13.5t-3.5 -17v-19q0 -17 12.5 -29.5t30.5 -12.5q9 0 16.5 3t13.5 9t9.5 14t3.5 16zM682.5 218q41.5 0 70.5 -29
t30 -71v-19q0 -41 -29.5 -70.5t-71 -29.5t-70.5 29.5t-29 70.5v19q0 42 29 71t70.5 29zM725 99v19q0 18 -12.5 30.5t-30 12.5t-30 -12.5t-12.5 -30.5v-19q0 -17 12.5 -29.5t30 -12.5t30 12.5t12.5 29.5zM388 685q15 0 23.5 -11.5t4.5 -24.5l-189 -629q-6 -20 -27 -20
q-15 0 -23.5 11.5t-4.5 25.5l189 628q6 20 27 20z" />
    <glyph glyph-name="lira" unicode="&#x20a4;" horiz-adv-x="594" 
d="M517 57q11 0 19 -8t8 -19v-3q0 -7 -3.5 -13.5t-10 -10t-13.5 -3.5h-440q-11 0 -19 8t-8 19v3q0 11 8 19t19 8h1q38 0 66 26.5t28 62.5v109h-95q-11 0 -19 8t-8 19v3q0 7 3.5 13.5t10 10t13.5 3.5h95v62h-95q-11 0 -19 8t-8 19v3q0 7 3.5 13.5t10 10t13.5 3.5h95v48
q0 83 59 144t142 61q65 0 117 -39q10 -7 11 -19.5t-8 -20.5l-2 -3q-7 -7 -17 -7.5t-18 5.5q-36 26 -81 27q-60 1 -103 -43t-43 -105v-48h92q11 0 19 -8t8 -19v-3q0 -6 -2 -11t-6 -8.5t-9 -5.5t-10 -2h-92v-62h92q11 0 19 -8t8 -19v-3q0 -6 -2 -11t-6 -8.5t-9 -5.5t-10 -2
h-92v-109q0 -50 -32 -89h320z" />
    <glyph glyph-name="Euro" unicode="&#x20ac;" horiz-adv-x="805" 
d="M746 134q9 -9 9 -21.5t-9 -21.5q-66 -61 -153.5 -81.5t-174 4.5t-149 89.5t-85.5 151.5h-105q-12 0 -20.5 8.5t-8.5 19.5v1q0 11 8.5 19.5t20.5 8.5h95q-2 16 -2 31t2 31h-95q-12 0 -20.5 8.5t-8.5 20t8.5 20t20.5 8.5h105q23 86 85.5 150.5t148.5 89.5t173 5t153 -81
q10 -8 10 -20.5t-9 -21.5q-9 -7 -20 -7t-19 7q-54 49 -124.5 66.5t-140.5 -1t-122.5 -68.5t-74.5 -119h123q12 0 20.5 -8.5t8.5 -20.5q0 -7 -4 -13.5t-10.5 -10.5t-14.5 -4h-136q-3 -31 0 -62h136q12 0 20.5 -8.5t8.5 -19.5v-1q0 -11 -8.5 -19.5t-20.5 -8.5h-124
q23 -69 76 -119t123 -68.5t141 -1t124 66.5q8 8 19.5 8t19.5 -7z" />
    <glyph glyph-name="trademark" unicode="&#x2122;" horiz-adv-x="574" 
d="M248 685q6 0 11 -2t8.5 -5.5t5.5 -8.5t2 -10v-4q0 -11 -8 -19t-19 -8h-57v-176q0 -11 -8 -18.5t-19 -7.5h-3q-11 0 -19 7.5t-8 18.5v176h-57q-11 0 -19 8t-8 19v4q0 7 3.5 13t9.5 9.5t14 3.5h171zM497 685q11 0 19 -7.5t8 -18.5v-207q0 -11 -8 -18.5t-19 -7.5h-3
q-8 0 -14 3.5t-9.5 9.5t-3.5 13v94l-32 -55q-8 -13 -23.5 -13t-22.5 13l-34 57v-96q0 -11 -8 -18.5t-19 -7.5h-4q-7 0 -13 3.5t-9.5 9.5t-3.5 13v207q0 20 19.5 25.5t29.5 -12.5l64 -108l63 108q8 13 23 13z" />
    </font>
</defs>
</svg>
