<?xml version="1.0" standalone="no"?>
<!DOCTYPE svg PUBLIC "-//W3C//DTD SVG 1.1//EN" "http://www.w3.org/Graphics/SVG/1.1/DTD/svg11.dtd" >
<svg xmlns="http://www.w3.org/2000/svg" xmlns:xlink="http://www.w3.org/1999/xlink" version="1.1">
<metadata>
Created by FontForge 20170731 at Thu Apr 25 23:37:14 2019
 By Aleksey,,,
Factory738
</metadata>
<defs>
<font id="LeoSemiRoundedBold" horiz-adv-x="678" >
  <font-face 
    font-family="Leo SemiRounded"
    font-weight="700"
    font-stretch="normal"
    units-per-em="1000"
    panose-1="0 0 0 0 0 0 0 0 0 0"
    ascent="800"
    descent="-200"
    x-height="684"
    cap-height="770"
    bbox="49.3736 -210.083 970.333 869.125"
    underline-thickness="50"
    underline-position="-200"
    unicode-range="U+000A-2122"
  />
<missing-glyph horiz-adv-x="527" 
d="M50 700h427v-700h-427v700zM78 680l185 -309l186 309h-371zM251 350l-180 300v-601zM264 329l-185 -308h370zM276 350l181 -303v605z" />
    <glyph glyph-name=".notdef" horiz-adv-x="527" 
d="M50 700h427v-700h-427v700zM78 680l185 -309l186 309h-371zM251 350l-180 300v-601zM264 329l-185 -308h370zM276 350l181 -303v605z" />
    <glyph glyph-name="uni0000" horiz-adv-x="0" 
 />
    <glyph glyph-name="uni0000" horiz-adv-x="0" 
 />
    <glyph glyph-name="nonmarkingreturn" horiz-adv-x="333" 
 />
    <glyph glyph-name="controlLF" unicode="&#xa;" horiz-adv-x="0" 
 />
    <glyph glyph-name="controlCR" unicode="&#xd;" horiz-adv-x="0" 
 />
    <glyph glyph-name="space" unicode=" " horiz-adv-x="280" 
 />
    <glyph glyph-name="exclam" unicode="!" horiz-adv-x="233" 
d="M163 20q-19 -19 -46.5 -19t-46.5 19t-19 46.5t19 46.5t46.5 19t46.5 -19t19 -46.5t-19 -46.5zM156 168h-79q-7 0 -13.5 3.5t-10 10t-3.5 13.5v464q0 11 8 19t19 8h79q11 0 19 -8t8 -19v-464q0 -7 -3.5 -13.5t-9.5 -10t-14 -3.5z" />
    <glyph glyph-name="quotedbl" unicode="&#x22;" horiz-adv-x="391" 
d="M150 686q11 0 19 -8t8 -19v-165q0 -7 -4 -13t-10 -10t-13 -4h-37q-10 0 -17.5 6t-9.5 16l-35 164q-3 13 5 23t21 10h73zM314 686q13 0 21.5 -10t5.5 -23l-36 -164q-2 -10 -9.5 -16t-16.5 -6h-37q-11 0 -19 8t-8 19v165q0 7 3.5 13.5t9.5 10t14 3.5h72z" />
    <glyph glyph-name="quotedbl" unicode="&#x201d;" horiz-adv-x="391" 
d="M150 686q11 0 19 -8t8 -19v-165q0 -7 -4 -13t-10 -10t-13 -4h-37q-10 0 -17.5 6t-9.5 16l-35 164q-3 13 5 23t21 10h73zM314 686q13 0 21.5 -10t5.5 -23l-36 -164q-2 -10 -9.5 -16t-16.5 -6h-37q-11 0 -19 8t-8 19v165q0 7 3.5 13.5t9.5 10t14 3.5h72z" />
    <glyph glyph-name="quotedbl" unicode="&#x201c;" horiz-adv-x="391" 
d="M150 686q11 0 19 -8t8 -19v-165q0 -7 -4 -13t-10 -10t-13 -4h-37q-10 0 -17.5 6t-9.5 16l-35 164q-3 13 5 23t21 10h73zM314 686q13 0 21.5 -10t5.5 -23l-36 -164q-2 -10 -9.5 -16t-16.5 -6h-37q-11 0 -19 8t-8 19v165q0 7 3.5 13.5t9.5 10t14 3.5h72z" />
    <glyph glyph-name="numbersign" unicode="#" horiz-adv-x="618" 
d="M541 363h-77v-43h77q12 0 19.5 -8t7.5 -19v-79q0 -11 -7.5 -19t-19.5 -8h-77v-75q0 -11 -8 -19t-19 -8h-79q-12 0 -19.5 8t-7.5 19v75h-41v-75q0 -11 -8 -19t-19 -8h-79q-11 0 -19 8t-8 19v75h-80q-11 0 -19 8t-8 19v79q0 11 8 19t19 8h80v43h-80q-11 0 -19 8t-8 19v79
q0 11 8 19t19 8h80v74q0 12 8 19.5t19 7.5h79q11 0 19 -7.5t8 -19.5v-74h41v74q0 12 7.5 19.5t19.5 7.5h79q11 0 19 -7.5t8 -19.5v-74h77q12 0 19.5 -8t7.5 -19v-79q0 -11 -7.5 -19t-19.5 -8zM331 320v43h-41v-43h41z" />
    <glyph glyph-name="dollar" unicode="$" horiz-adv-x="583" 
d="M380 386q45 -14 80 -42t54 -65.5t19 -79.5v-1q-1 -77 -56 -131q-62 -59 -147 -66v-58q0 -11 -8 -19t-19 -8h-23q-11 0 -19 8t-8 19v58q-76 7 -132 53.5t-68 112.5q-2 12 6 21.5t20 9.5h83q17 0 24 -17q8 -20 33.5 -34t56.5 -14h30q44 -1 77 29q16 14 17 36v1q0 19 -16 35
t-42 24l-139 42q-45 13 -80 41t-54 66t-19 80q0 76 58.5 132.5t144.5 63.5v60q0 11 8 19t19 8h23q11 0 19 -8t8 -19v-60q76 -6 132 -52.5t68 -112.5q2 -12 -6 -21.5t-21 -9.5h-82q-18 0 -24 16q-9 21 -34 34.5t-57 13.5h-29q-38 0 -66 -19t-28 -45q0 -19 16 -35.5t42 -24.5z
" />
    <glyph glyph-name="percent" unicode="%" horiz-adv-x="614" 
d="M269 556q0 -45 -32 -77t-78 -32q-29 0 -54.5 14.5t-40 39.5t-14.5 55v19q0 45 32 77.5t77 32.5q30 0 55 -15t40 -40t15 -55v-19zM126 556q0 -14 10 -23.5t23 -9.5q7 0 13 2.5t10.5 7t7.5 10.5t3 13v19q0 7 -3 13t-7.5 10.5t-10.5 7t-12.5 2.5t-13 -2.5t-11 -7t-7 -10.5
t-2.5 -13v-19zM454 237q30 0 55 -14.5t40 -39.5t15 -55v-19q0 -45 -32 -77.5t-77.5 -32.5t-77.5 32.5t-32 77.5v19q0 45 32 77t77 32zM488 109v19q0 14 -10 23.5t-23.5 9.5t-23.5 -9.5t-10 -23.5v-19q0 -9 4.5 -17t12 -12t16.5 -4q14 0 24 9.5t10 23.5zM440 685
q13 0 21.5 -10.5t4.5 -23.5l-190 -632q-6 -19 -26 -19h-83q-13 0 -21.5 11t-4.5 24l190 631q6 19 26 19h83z" />
    <glyph glyph-name="ampersand" unicode="&#x26;" horiz-adv-x="666" 
d="M589 486q11 0 19 -7.5t8 -19.5v-79q0 -11 -8 -19t-19 -8h-79q44 -86 16.5 -179t-111.5 -141.5t-178 -26t-147 103t-36 176t94 152.5q-23 43 -20 92t33 88q19 26 46.5 43t58.5 21.5t64 -1.5q48 -11 82 -46.5t44 -83.5q2 -12 -6 -22t-21 -10h-83q-17 0 -24 15q-6 11 -17 15
t-22.5 0.5t-17.5 -14t-4 -22.5q1 -5 4 -10t7 -9t9.5 -6t11.5 -2h296zM215 166q33 -32 78.5 -32t77.5 32t32 77.5t-32 77.5t-77.5 32t-78 -32t-32.5 -77.5t32 -77.5z" />
    <glyph glyph-name="quotesingle" unicode="'" horiz-adv-x="227" 
d="M150 686q13 0 21 -10t5 -23l-36 -164q-2 -10 -9.5 -16t-16.5 -6h-37q-11 0 -19 8t-8 19v165q0 11 8 19t19 8h73z" />
    <glyph glyph-name="quotesingle" unicode="&#x2018;" horiz-adv-x="227" 
d="M150 686q13 0 21 -10t5 -23l-36 -164q-2 -10 -9.5 -16t-16.5 -6h-37q-11 0 -19 8t-8 19v165q0 11 8 19t19 8h73z" />
    <glyph glyph-name="parenleft" unicode="(" horiz-adv-x="255" 
d="M205 31q1 -12 -7 -21.5t-20 -9.5h-80q-10 0 -17.5 6.5t-9.5 16.5q-42 320 0 639q1 10 8.5 16.5t17.5 6.5h80q13 0 21 -9t6 -21q-42 -312 1 -624z" />
    <glyph glyph-name="parenright" unicode=")" horiz-adv-x="255" 
d="M184 662q42 -319 0 -639q-2 -10 -9.5 -16.5t-17.5 -6.5h-80q-12 0 -20 9.5t-7 21.5q43 312 1 624q-2 12 6 21t21 9h80q10 0 17.5 -6.5t8.5 -16.5z" />
    <glyph glyph-name="asterisk" unicode="*" horiz-adv-x="343" 
d="M282 525q9 -6 11 -17t-5 -20l-12 -19q-7 -9 -18 -11t-20 5l-28 20v-29q0 -8 -4 -14t-10 -9.5t-13 -3.5h-22q-12 0 -19.5 7.5t-7.5 19.5v29l-29 -20q-9 -7 -20 -5t-17 11l-13 19q-6 9 -4 20t11 17l43 30l-43 31q-10 6 -12 17t5 20l13 19q6 9 17 11t20 -5l29 -20v29
q0 8 3.5 14t9.5 9.5t13 3.5h23q11 0 19 -7.5t8 -19.5v-29l28 20q9 7 20 5t17 -12l13 -18q7 -9 5 -20t-12 -17l-43 -31z" />
    <glyph glyph-name="plus" unicode="+" horiz-adv-x="442" 
d="M365 409q12 0 19.5 -8t7.5 -19v-79q0 -12 -7.5 -19.5t-19.5 -7.5h-77v-78q0 -11 -8 -19t-19 -8h-79q-8 0 -14 3.5t-9.5 10t-3.5 13.5v78h-78q-11 0 -19 7.5t-8 19.5v79q0 11 8 19t19 8h78v74q0 8 3.5 14t9.5 9.5t14 3.5h79q11 0 19 -8t8 -19v-74h77z" />
    <glyph glyph-name="comma" unicode="," horiz-adv-x="227" 
d="M150 134q13 0 21 -10t5 -23l-36 -164q-1 -7 -5 -11.5t-9.5 -7.5t-11.5 -3h-37q-11 0 -19 8t-8 19v165q0 11 8 19t19 8h73z" />
    <glyph glyph-name="hyphen" unicode="-" horiz-adv-x="442" 
d="M365 276h-288q-11 0 -19 7.5t-8 19.5v79q0 11 8 19t19 8h288q12 0 19.5 -8t7.5 -19v-79q0 -12 -7.5 -19.5t-19.5 -7.5z" />
    <glyph glyph-name="period" unicode="." horiz-adv-x="232" 
d="M162 20q-19 -19 -46 -19t-46.5 19t-19.5 46.5t19.5 46.5t46.5 19t46.5 -19t19.5 -46.5t-20 -46.5z" />
    <glyph glyph-name="slash" unicode="/" horiz-adv-x="427" 
d="M350 685q13 0 21 -10.5t4 -23.5l-189 -632q-6 -19 -26 -19h-83q-14 0 -22 11t-4 24l190 631q6 19 26 19h83z" />
    <glyph glyph-name="zero" unicode="0" horiz-adv-x="682" 
d="M195 638q67 46 146 46t146 -45.5t106 -124.5t39 -171.5t-39 -171.5t-106 -124.5t-146 -45.5t-146 45.5t-106 124.5t-39 171.5t39 171.5t106 124zM229 195q47 -61 112 -61t111.5 61t46.5 147.5t-46.5 147.5t-111.5 61t-111.5 -61t-46.5 -147.5t46 -147.5z" />
    <glyph glyph-name="one" unicode="1" horiz-adv-x="311" 
d="M234 684q11 0 19 -7.5t8 -19.5v-632q0 -7 -3.5 -13.5t-10 -10t-13.5 -3.5h-79q-11 0 -19 8t-8 19v526h-51q-5 0 -10 2.5t-9 6t-6 8.5t-2 10v79q0 12 8 19.5t19 7.5h157z" />
    <glyph glyph-name="two" unicode="2" horiz-adv-x="578" 
d="M501 133q11 0 19 -8t8 -19v-79q0 -11 -8 -19t-19 -8h-424q-11 0 -19 8t-8 19v40q0 66 35.5 123t94.5 87l155 77q33 15 49.5 48t8 68.5t-37 58.5t-65.5 22h-1q-25 0 -47 -10.5t-37 -30t-20 -43.5q-2 -10 -9.5 -16t-17.5 -6h-79q-12 0 -20.5 9.5t-6.5 21.5
q12 89 79.5 148.5t157.5 59.5h1q84 1 149 -51t83 -133q12 -53 0 -106t-46 -95t-83 -65l-153 -76q-19 -9 -32 -25h293z" />
    <glyph glyph-name="three" unicode="3" horiz-adv-x="556" 
d="M506 480q-1 -80 -57 -137q57 -58 57 -138q0 -85 -64 -145t-155 -60h-21q-81 0 -142.5 50t-73.5 124q-1 12 7 21t20 9h81q20 0 26 -18q7 -23 30 -38t52 -15h21q36 0 61 21t25 50q0 28 -20 46q-28 26 -66 26h-4q-11 0 -19 8t-8 19v79q0 11 8 19t19 8h4h1q35 0 60 21
t25 50.5t-25 50t-61 20.5h-21q-19 0 -36.5 -6.5t-29 -19t-16.5 -27.5q-6 -18 -26 -18h-81q-12 0 -20 9.5t-7 21.5q12 74 73.5 123.5t142.5 49.5h21q36 0 69.5 -10t60 -29t47 -44t31.5 -56.5t11 -64.5z" />
    <glyph glyph-name="four" unicode="4" horiz-adv-x="606" 
d="M529 216q11 0 19 -8t8 -19v-79q0 -6 -2.5 -11t-6 -8.5t-8.5 -5.5t-10 -2h-41v-56q0 -11 -8 -19t-19 -8h-79q-12 0 -19.5 8t-7.5 19v56h-278q-15 0 -23 13t-1 26l291 549q8 14 24 14h93q11 0 19 -7.5t8 -19.5v-442h41zM355 216v191l-102 -191h102z" />
    <glyph glyph-name="five" unicode="5" horiz-adv-x="572" 
d="M280 484q90 0 158 -59t81 -148t-35 -165t-134 -102t-168.5 11t-120.5 118q-5 11 0 22t16 15l77 25q21 6 32 -13q14 -26 39.5 -40.5t54.5 -14.5t53.5 14t39.5 38.5t16 53.5q1 37 -21.5 67.5t-59.5 40.5q-18 5 -36.5 3.5t-35 -8.5t-30 -19.5t-22.5 -29.5q-10 -18 -30 -14
l-83 19q-10 2 -16 11t-5 19l49 333q2 10 9.5 16.5t17.5 6.5h331q11 0 19 -7.5t8 -19.5v-79q0 -11 -8 -19t-19 -8h-239l-12 -79q36 12 74 12z" />
    <glyph glyph-name="six" unicode="6" horiz-adv-x="584" 
d="M294 484q82 -1 146.5 -51t85.5 -129t-10.5 -154.5t-102 -116.5t-151.5 -31t-139.5 67.5t-70 138t28.5 152.5l159 311q8 14 24 14h89q15 0 23 -12.5t1 -26.5zM292 133q19 0 37.5 7t32.5 18.5t23.5 28.5t13.5 36q7 39 -13 73.5t-57 48t-74.5 -0.5t-56.5 -48l-5 -10
q-25 -54 7 -103q15 -24 39.5 -37t52.5 -13z" />
    <glyph glyph-name="seven" unicode="7" horiz-adv-x="566" 
d="M489 684q14 0 22 -11t3 -24l-221 -631q-7 -18 -26 -18h-84q-14 0 -22 11.5t-3 24.5l181 515h-262q-11 0 -19 8t-8 19v79q0 12 8 19.5t19 7.5h412z" />
    <glyph glyph-name="eight" unicode="8" horiz-adv-x="564" 
d="M436 391q37 -31 57.5 -75t20.5 -92q0 -93 -68 -158.5t-164 -65.5t-164 65.5t-68 158.5q0 48 20.5 92t57.5 75q-37 48 -37 109q0 76 56 130t135 54t135 -54t56 -130q-1 -61 -37 -109zM322 536q-16 15 -40 15t-41 -15t-17 -36.5t17 -36.5t41 -15t40.5 15t16.5 36.5
t-17 36.5zM212 159q29 -26 70 -26t70 26.5t29 64.5t-29 64.5t-70 26.5t-70 -26.5t-29 -64.5t29 -65z" />
    <glyph glyph-name="nine" unicode="9" horiz-adv-x="584" 
d="M533 464q7 -74 -30 -139l-159 -310q-8 -15 -24 -15h-89q-15 0 -23 13t-1 26l83 162q-98 1 -168 69.5t-72 166.5t64 170t164 77.5t172 -58.5t83 -162zM391 398q18 41 3 82.5t-55 60.5t-81.5 5t-62 -53.5t-7.5 -81.5t52 -63.5t81.5 -9.5t64.5 51z" />
    <glyph glyph-name="colon" unicode=":" horiz-adv-x="232" 
d="M116 513q18 0 33 -9t24 -24t9 -33q0 -27 -19.5 -46.5t-46.5 -19.5t-46.5 19.5t-19.5 46.5t19.5 46.5t46.5 19.5zM116 303q18 0 33 -8.5t24 -23.5t9 -33q0 -28 -19.5 -47t-46.5 -19t-46.5 19t-19.5 46.5t19.5 46.5t46.5 19z" />
    <glyph glyph-name="semicolon" unicode=";" horiz-adv-x="232" 
d="M117 513q17 0 32.5 -9t24 -24t8.5 -33q0 -27 -19 -46.5t-46.5 -19.5t-46.5 19.5t-19 46.5t19 46.5t47 19.5zM150 305q13 0 21 -10t5 -22l-36 -166q-2 -10 -9.5 -16t-16.5 -6h-37q-11 0 -19 8t-8 19v166q0 11 8 19t19 8h73z" />
    <glyph glyph-name="less" unicode="&#x3c;" horiz-adv-x="355" 
d="M297 236q8 -8 8 -19t-8 -19l-56 -56q-7 -8 -18.5 -8t-19.5 8l-145 145q-8 8 -8 19v72q0 11 8 19l143 145q7 8 18.5 8t19.5 -7l56 -56q8 -8 8 -19t-7 -19l-105 -106z" />
    <glyph glyph-name="equal" unicode="=" horiz-adv-x="446" 
d="M369 383h-292q-11 0 -19 8t-8 19v80q0 11 8 18.5t19 7.5h292q11 0 19 -7.5t8 -18.5v-80q0 -11 -8 -19t-19 -8zM369 169h-292q-7 0 -13.5 4t-10 10t-3.5 13v80q0 11 8 18.5t19 7.5h292q11 0 19 -7.5t8 -18.5v-80q0 -11 -8 -19t-19 -8z" />
    <glyph glyph-name="greater" unicode="&#x3e;" horiz-adv-x="355" 
d="M305 379v-72q0 -11 -7 -19l-143 -145q-8 -8 -19 -8t-19 7l-57 56q-8 8 -8 19t8 19l104 106l-106 107q-8 8 -8 19t8 19l56 56q8 8 19 8t19 -8l145 -145q8 -8 8 -19z" />
    <glyph glyph-name="question" unicode="?" horiz-adv-x="591" 
d="M288 684q93 3 164.5 -56.5t85.5 -151.5t-36 -170t-140 -103v-8q0 -11 -8 -19t-19 -8h-79q-7 0 -13.5 3.5t-10 10t-3.5 13.5v105q0 7 3.5 13t10 10t13.5 4h36q47 -1 81 32t35 80q0 30 -15 56t-41 41t-57 15q-47 -1 -79.5 -34.5t-32.5 -80.5v-3q0 -5 -5 -5h-123q-5 0 -5 5
v1q0 100 69 173.5t169 76.5zM293 132q18 0 33 -8.5t24 -24t9 -33.5q0 -27 -19 -46t-46.5 -19t-47 19t-19.5 46.5t19.5 46.5t46.5 19z" />
    <glyph glyph-name="at" unicode="@" horiz-adv-x="527" 
d="M344 210q-12 0 -19.5 7.5t-7.5 19.5v159h-48q-11 0 -19 8t-8 19v22q0 11 8 19t19 8h171q11 0 19 -8t8 -19v-22q0 -11 -8 -19t-19 -8h-47v-159q0 -12 -8 -19.5t-19 -7.5h-22zM60 494q-10 0 -10 9.5t10 9.5h407q10 0 10 -9.5t-10 -9.5h-407zM60 190h407q10 0 10 -9.5
t-10 -9.5h-407q-10 0 -10 9.5t10 9.5zM189 472q6 0 11.5 -2.5t9 -7.5t5.5 -11l52 -208q3 -13 -5 -23t-22 -10h-22q-10 0 -17 5.5t-9 14.5l-2 8h-46l-1 -8q-2 -6 -6 -10.5t-9 -7t-12 -2.5h-22q-14 0 -22 10t-5 23l52 208q3 9 10 15t16 6h44zM159 295h16l-8 33z" />
    <glyph glyph-name="A" unicode="A" horiz-adv-x="706" 
d="M655 -52q4 -13 -4 -24t-22 -11h-83q-20 0 -26 18l-181 544l-153 -457q-6 -18 -25 -18h-84q-14 0 -22 11t-4 24l212 631q6 18 25 18h102q19 0 26 -18z" />
    <glyph glyph-name="B" unicode="B" horiz-adv-x="612" 
d="M477 370q42 -30 64.5 -76t20.5 -97q-3 -83 -64 -140t-145 -57h-276q-7 0 -13.5 3.5t-10 10t-3.5 13.5v630q0 12 8 19.5t19 7.5h223q84 0 146 -58t63 -142q2 -62 -32 -114zM183 551v-142h122q29 0 50 21t21 50.5t-21 50t-50 20.5h-122zM183 133h175q29 0 49.5 21
t20.5 50.5t-20.5 50t-49.5 21.5h-175v-143z" />
    <glyph glyph-name="C" unicode="C" horiz-adv-x="685" 
d="M292 684q115 0 207 -69.5t123 -180.5t-11.5 -218t-141 -166.5t-213 -47.5t-198.5 91q-8 8 -8 19.5t9 19.5l59 53q8 7 18 7t18 -6q63 -56 146.5 -52.5t142 64t59 144.5t-57.5 144.5t-142 64.5t-147 -51q-8 -7 -18 -7t-18 7l-59 54q-9 8 -8.5 20t9.5 20q98 90 231 90z" />
    <glyph glyph-name="D" unicode="D" horiz-adv-x="686" 
d="M287 684q93 0 172 -44t127 -121t50 -169q1 -69 -24 -133t-73.5 -113.5t-112 -76.5t-132.5 -27h-217q-11 0 -19 8t-8 19v630q0 12 8 19.5t19 7.5h210zM183 133h111q86 0 147.5 61.5t61.5 148t-61.5 147.5t-147.5 61h-111v-418z" />
    <glyph glyph-name="E" unicode="E" horiz-adv-x="528" 
d="M451 684q11 0 19 -7.5t8 -19.5v-630q0 -7 -3.5 -13.5t-10 -10t-13.5 -3.5h-374q-11 0 -19 8t-8 19v79q0 11 8 19t19 8h268v143h-182q-12 0 -19.5 7.5t-7.5 19.5v79q0 7 3.5 13.5t9.5 10t14 3.5h182v142h-268q-11 0 -19 8t-8 19v79q0 12 8 19.5t19 7.5h374z" />
    <glyph glyph-name="F" unicode="F" horiz-adv-x="528" 
d="M451 684q7 0 13.5 -3.5t10 -9.5t3.5 -14v-79q0 -11 -8 -19t-19 -8h-268v-142h182q12 0 19.5 -8t7.5 -19v-79q0 -12 -7.5 -19.5t-19.5 -7.5h-182v-335q0 -7 -3.5 -13t-10 -10t-13.5 -4h-79q-7 0 -13.5 4t-10 10t-3.5 13v716q0 12 8 19.5t19 7.5h374z" />
    <glyph glyph-name="G" unicode="G" horiz-adv-x="713" 
d="M636 390q11 0 19 -8t8 -19v-226q0 -11 -7 -19l-11 -11q-48 -51 -112 -79t-134 -28h-13q-67 0 -129 25.5t-109 73t-72.5 109t-25.5 128.5v13q0 91 45 168.5t122 122t169 44.5h13q131 0 227 -88q9 -8 9 -20t-9 -20l-59 -54q-7 -6 -17 -6.5t-18 6.5q-57 49 -133 49h-13
q-84 0 -143.5 -59t-59.5 -143v-13q0 -55 27 -102t74 -74t102 -27h13q74 0 131 48v182q0 11 7.5 19t19.5 8h79z" />
    <glyph glyph-name="H" unicode="H" horiz-adv-x="576" 
d="M499 770q5 0 10 -2t8.5 -5.5t5.5 -8.5t2 -11v-716q0 -6 -2 -11t-5.5 -8.5t-8.5 -5.5t-10 -2h-80q-11 0 -19 8t-8 19v249h-209v-249q0 -6 -2 -11t-5.5 -8.5t-8.5 -5.5t-11 -2h-79q-11 0 -19 8t-8 19v631q0 11 8 18.5t19 7.5h79q11 0 19 -7.5t8 -18.5v-249h209v334
q0 11 8 19t19 8h80z" />
    <glyph glyph-name="I" unicode="I" horiz-adv-x="233" 
d="M50 743q0 11 8 19t19 8h79q11 0 19 -8t8 -19v-716q0 -7 -3.5 -13.5t-9.5 -10t-14 -3.5h-79q-11 0 -19 8t-8 19v716z" />
    <glyph glyph-name="J" unicode="J" horiz-adv-x="536" 
d="M459 770q11 0 19 -8t8 -19v-500q0 -44 -16 -86t-43.5 -74t-66 -54t-82.5 -27q-65 -8 -125 17.5t-98 78.5q-7 10 -4.5 22t13.5 18l71 38q19 11 33 -6q19 -22 46 -31t55 -4q37 8 60.5 38t22.5 68v502q0 11 8 19t19 8h80z" />
    <glyph glyph-name="K" unicode="K" horiz-adv-x="622" 
d="M567 -44q9 -13 1.5 -27.5t-23.5 -14.5h-96q-14 0 -22 12l-244 354v-253q0 -6 -2 -11t-5.5 -8.5t-8.5 -5.5t-11 -2h-79q-7 0 -13.5 3.5t-10 10t-3.5 13.5v631q0 11 8 18.5t19 7.5h79q11 0 19 -7.5t8 -18.5v-253l183 269q8 11 22 11h96q16 0 23.5 -14t-1.5 -28l-204 -301z
" />
    <glyph glyph-name="L" unicode="L" horiz-adv-x="537" 
d="M461 133q11 0 18.5 -8t7.5 -19v-79q0 -7 -3.5 -13.5t-9.5 -10t-13 -3.5h-384q-11 0 -19 8t-8 19v716q0 11 8 19t19 8h79q11 0 19 -8t8 -19v-610h278z" />
    <glyph glyph-name="M" unicode="M" horiz-adv-x="747" 
d="M670 684q11 1 19 -7t8 -19v-631q0 -6 -2.5 -11t-6 -8.5t-8.5 -5.5t-10 -2h-79q-8 0 -14 3.5t-9.5 10t-3.5 13.5v332l-166 -388q-7 -16 -24.5 -16t-24.5 16l-166 388v-332q0 -6 -2 -11t-5.5 -8.5t-8.5 -5.5t-11 -2h-79q-11 0 -19 8t-8 19v631q0 11 8 18.5t19 7.5h94
q18 0 25 -16l177 -416l178 416q7 16 25 16h94z" />
    <glyph glyph-name="N" unicode="N" horiz-adv-x="578" 
d="M501 685q11 0 19 -7.5t8 -19.5v-717q0 -11 -8 -19t-19 -8h-79q-6 0 -11 2.5t-8.5 6t-5.5 8.5t-2 10v463l-196 -389q-2 -4 -4.5 -6.5t-5.5 -4.5t-7 -3t-7 -1h-98q-11 0 -19 8t-8 19v631q0 11 8 18.5t19 7.5h79q11 0 19 -7.5t8 -18.5v-378l197 391q7 14 24 14h97z" />
    <glyph glyph-name="O" unicode="O" horiz-adv-x="784" 
d="M392 1q-70 0 -133 27t-109 72.5t-73 109t-27 132.5q0 93 45.5 172t124.5 124.5t172 45.5t171.5 -45.5t124.5 -124.5t46 -171.5t-46 -171.5t-124.5 -124.5t-171.5 -45.5zM392 134q56 0 104.5 28t76 76t28.5 104q0 42 -16 80.5t-45.5 67.5t-67.5 45q-59 24 -121 12
t-107 -57t-57 -107t12 -120.5t77 -93.5t116 -35z" />
    <glyph glyph-name="P" unicode="P" horiz-adv-x="586" 
d="M536 447q3 -103 -69 -177t-175 -74h-109v-255q0 -7 -3.5 -13t-9.5 -10t-14 -4h-79q-7 0 -13.5 4t-10 10t-3.5 13v716q0 12 8 19.5t19 7.5h210q100 0 173 -68.5t76 -168.5zM292 329q46 0 78.5 32.5t32.5 78.5t-32.5 78.5t-78.5 32.5h-109v-222h109z" />
    <glyph glyph-name="Q" unicode="Q" horiz-adv-x="852" 
d="M796 -41q11 -14 3.5 -29.5t-24.5 -15.5h-104q-12 0 -20 10l-100 117q-116 -61 -243 -29t-199 141.5t-52.5 239t121 212t232.5 76t223 -99.5t98.5 -224t-77.5 -232zM542 199q58 61 58 144q0 75 -48 132.5t-121.5 72t-139 -21.5t-93.5 -105.5t-5 -141t86 -112t137.5 -31.5
t125.5 63z" />
    <glyph glyph-name="R" unicode="R" horiz-adv-x="641" 
d="M586 -43q10 -13 2.5 -28t-24.5 -15h-99q-13 0 -21 11l-204 271h-57v-169q0 -7 -3.5 -13.5t-10 -10t-13.5 -3.5h-79q-7 0 -13.5 3.5t-10 10t-3.5 13.5v630q0 12 8 19.5t19 7.5h210q102 0 175.5 -70.5t73.5 -171.5q1 -73 -39 -134.5t-106 -91.5zM292 329q46 0 78.5 32.5
t32.5 78.5t-32.5 78.5t-78.5 32.5h-109v-222h109z" />
    <glyph glyph-name="S" unicode="S" horiz-adv-x="583" 
d="M380 386q69 -21 111 -72.5t42 -114.5v-1q-1 -77 -56 -131q-72 -68 -171 -67h-1h-30q-83 0 -146 47.5t-76 117.5q-2 13 6 23t20 10h83q17 0 24 -17q8 -20 33.5 -34t56.5 -14h30q44 -1 77 29q16 14 17 36v1q0 19 -16 35t-42 24l-139 42q-69 20 -111 71.5t-42 115.5
q0 82 66.5 139.5t160.5 57.5h29q84 0 147 -47t77 -118q2 -12 -6 -22t-21 -10h-82q-18 0 -24 16q-9 21 -34 34.5t-57 13.5h-29q-38 0 -66 -19t-28 -45q0 -19 16 -35.5t42 -24.5z" />
    <glyph glyph-name="T" unicode="T" horiz-adv-x="614" 
d="M537 684q7 0 13 -3.5t10 -9.5t4 -14v-79q0 -11 -8 -19t-19 -8h-164v-610q0 -11 -7.5 -19t-19.5 -8h-79q-11 0 -19 8t-8 19v610h-163q-11 0 -19 8t-8 19v79q0 12 8 19.5t19 7.5h460z" />
    <glyph glyph-name="U" unicode="U" horiz-adv-x="576" 
d="M499 770q11 0 19 -8t8 -19v-505q-1 -97 -69 -166.5t-165 -71.5q-99 -2 -170.5 70.5t-71.5 172.5v415q0 11 8 18.5t19 7.5h79q11 0 19 -7.5t8 -18.5v-417q0 -41 27 -72t68 -35q46 -5 80 26t34 78v505q0 11 8 19t19 8h80z" />
    <glyph glyph-name="V" unicode="V" horiz-adv-x="707" 
d="M630 772q14 0 22 -11t4 -24l-241 -719q-7 -18 -26 -18h-102q-19 0 -25 18l-211 632q-4 13 4 24t22 11h83q20 0 26 -18l152 -457l183 544q6 18 25 18h84z" />
    <glyph glyph-name="W" unicode="W" horiz-adv-x="934" 
d="M857 684q14 0 22 -11t4 -24l-212 -631q-6 -18 -25 -18h-102q-19 0 -26 18l-51 156l-53 -156q-6 -18 -25 -18h-102q-19 0 -25 18l-211 631q-4 13 4 24t22 11h83q20 0 26 -18l152 -456l59 174l-89 265q-4 13 4 24t22 11h83q20 0 26 -18l152 -456l153 456q6 18 26 18h83z
" />
    <glyph glyph-name="X" unicode="X" horiz-adv-x="675" 
d="M622 -45q8 -14 0 -27.5t-24 -13.5h-92q-15 0 -23 13l-170 284l-119 -198q-7 -13 -23 -13h-92q-16 0 -23.5 13.5t0.5 27.5l179 300l-181 304q-8 13 -0.5 26.5t23.5 13.5h92q16 0 23 -13l121 -201l121 201q8 13 23 13h92q16 0 23.5 -13.5t-0.5 -26.5l-181 -304z" />
    <glyph glyph-name="Y" unicode="Y" 
d="M601 772q16 0 23.5 -13.5t-0.5 -26.5l-245 -408v-297q0 -11 -7.5 -19t-18.5 -8h-80q-11 0 -19 8t-8 19v297l-192 321q-8 13 -0.5 26.5t23.5 13.5h92q16 0 23 -13l121 -200l173 287q7 13 23 13h92z" />
    <glyph glyph-name="Z" unicode="Z" horiz-adv-x="610" 
d="M533 133q12 0 19.5 -8t7.5 -19v-79q0 -11 -7.5 -19t-19.5 -8h-443q-15 0 -23 13t-1 26l262 512h-251q-11 0 -19 8t-8 19v79q0 12 8 19.5t19 7.5h424q16 0 23.5 -12.5t0.5 -26.5l-261 -512h269z" />
    <glyph glyph-name="bracketleft" unicode="[" horiz-adv-x="336" 
d="M259 551h-76v-418h76q11 0 19 -8t8 -19v-79q0 -11 -8 -19t-19 -8h-182q-11 0 -19 8t-8 19v630q0 12 8 19.5t19 7.5h182q11 0 19 -7.5t8 -19.5v-79q0 -11 -8 -19t-19 -8z" />
    <glyph glyph-name="backslash" unicode="\" horiz-adv-x="427" 
d="M375 35q4 -13 -4 -24t-21 -11h-83q-20 0 -26 19l-190 632q-4 13 4 23.5t22 10.5h83q20 0 26 -19z" />
    <glyph glyph-name="bracketright" unicode="]" horiz-adv-x="338" 
d="M261 684q11 0 19 -7.5t8 -19.5v-630q0 -11 -8 -19t-19 -8h-184q-11 0 -19 8t-8 19v79q0 11 8 19t19 8h78v418h-78q-11 0 -19 8t-8 19v79q0 12 8 19.5t19 7.5h184z" />
    <glyph glyph-name="asciicircum" unicode="^" horiz-adv-x="516" 
d="M458 535q8 -8 8 -19t-8 -19l-55 -57q-8 -8 -19 -8t-19 8l-107 104l-106 -106q-8 -8 -19 -8t-19 8l-56 56q-8 8 -8 19t8 19l145 145q8 8 19 8h71q12 0 19 -7z" />
    <glyph glyph-name="underscore" unicode="_" horiz-adv-x="614" 
d="M537 0h-460q-11 0 -19 8t-8 19v79q0 11 8 19t19 8h460q11 0 19 -8t8 -19v-79q0 -6 -2.5 -11t-6 -8.5t-8.5 -5.5t-10 -2z" />
    <glyph glyph-name="grave" unicode="`" horiz-adv-x="291" 
d="M239 505q6 -13 -2 -25.5t-23 -12.5h-29q-15 0 -23 12l-108 165q-8 14 -0.5 28t23.5 14h66q17 0 24 -16z" />
    <glyph glyph-name="a" unicode="a" horiz-adv-x="677" 
d="M626 35q4 -13 -4 -24t-22 -11h-83q-20 0 -26 18l-22 67h-260l-23 -67q-6 -18 -25 -18h-84q-14 0 -22 11t-4 24l212 632q6 18 26 18h101q19 0 25 -18zM253 218h171l-85 256z" />
    <glyph glyph-name="b" unicode="b" horiz-adv-x="612" 
d="M477 370q42 -30 64.5 -76t20.5 -97q-3 -83 -64 -140t-145 -57h-276q-7 0 -13.5 3.5t-10 10t-3.5 13.5v630q0 12 8 19.5t19 7.5h223q55 0 103 -26t76.5 -72.5t29.5 -101.5q2 -62 -32 -114zM183 551v-142h122q29 0 50 21t21 50q0 19 -9.5 35.5t-26 26t-35.5 9.5h-122z
M358 133q42 0 62 36q10 16 10 35.5t-10 35.5q-20 36 -62 36h-175v-143h175z" />
    <glyph glyph-name="c" unicode="c" horiz-adv-x="685" 
d="M626 132q8 -8 8.5 -19.5t-8.5 -19.5q-66 -63 -153.5 -84t-173.5 3.5t-150.5 89.5t-87.5 152t-0.5 173.5t86 152.5t149.5 91t173.5 5t154.5 -82q9 -8 9 -20t-9 -20l-59 -54q-7 -7 -17 -7t-18 7q-63 55 -147 51t-142 -64.5t-58 -144.5t58.5 -144.5t142.5 -64t147 52.5
q8 6 18 6t17 -7z" />
    <glyph glyph-name="d" unicode="d" horiz-adv-x="686" 
d="M287 684q69 0 132.5 -26t110.5 -70.5t75.5 -106.5t30.5 -131t-23.5 -133t-74 -113.5t-112 -76.5t-132.5 -27h-217q-11 0 -19 8t-8 19v630q0 12 8 19.5t19 7.5h210zM183 133h111q86 0 147.5 61.5t61.5 148t-61.5 147.5t-147.5 61h-111v-418z" />
    <glyph glyph-name="e" unicode="e" horiz-adv-x="528" 
d="M451 551h-268v-142h182q12 0 19.5 -8t7.5 -19v-79q0 -12 -7.5 -19.5t-19.5 -7.5h-182v-143h268q11 0 19 -8t8 -19v-79q0 -7 -3.5 -13.5t-10 -10t-13.5 -3.5h-374q-7 0 -13.5 3.5t-10 10t-3.5 13.5v630q0 12 8 19.5t19 7.5h374q11 0 19 -7.5t8 -19.5v-79q0 -11 -8 -19
t-19 -8z" />
    <glyph glyph-name="f" unicode="f" horiz-adv-x="528" 
d="M451 684q11 0 19 -7.5t8 -19.5v-79q0 -11 -8 -19t-19 -8h-268v-142h182q12 0 19.5 -8t7.5 -19v-79q0 -12 -7.5 -19.5t-19.5 -7.5h-182v-249q0 -6 -2 -11t-5.5 -8.5t-8.5 -5.5t-11 -2h-79q-7 0 -13.5 3.5t-10 10t-3.5 13.5v630q0 12 8 19.5t19 7.5h374z" />
    <glyph glyph-name="g" unicode="g" horiz-adv-x="713" 
d="M636 409q11 0 19 -8t8 -19v-245q0 -11 -8 -19l-10 -11q-48 -51 -112 -79t-134 -28h-13q-92 0 -169 45t-122 122t-45 169v13q0 91 45 168.5t122 122t169 44.5h13q131 0 227 -88q9 -8 9 -20t-9 -20l-59 -54q-7 -6 -17 -6.5t-18 6.5q-57 49 -133 49h-13q-84 0 -143.5 -59
t-59.5 -143v-13q0 -55 27 -102t74 -74t102 -27h13q74 0 131 48v95h-109q-12 0 -19.5 7.5t-7.5 19.5v79q0 11 7.5 19t19.5 8h215z" />
    <glyph glyph-name="h" unicode="h" horiz-adv-x="576" 
d="M499 684q11 0 18.5 -7.5t7.5 -18.5v-631q0 -6 -2 -11t-5.5 -8.5t-8.5 -5.5t-10 -2h-80q-11 0 -19 8t-8 19v249h-209v-249q0 -6 -2 -11t-5.5 -8.5t-8.5 -5.5t-11 -2h-79q-11 0 -19 8t-8 19v631q0 11 8 18.5t19 7.5h79q11 0 19 -7.5t8 -18.5v-249h209v249q0 11 8 18.5
t19 7.5h80z" />
    <glyph glyph-name="i" unicode="i" horiz-adv-x="233" 
d="M50 658q0 11 8 18.5t19 7.5h79q11 0 19 -7.5t8 -18.5v-631q0 -7 -3.5 -13.5t-9.5 -10t-14 -3.5h-79q-11 0 -19 8t-8 19v631z" />
    <glyph glyph-name="j" unicode="j" horiz-adv-x="536" 
d="M459 684q11 0 19 -7.5t8 -18.5v-415q0 -91 -59.5 -160.5t-148.5 -80.5q-65 -8 -125 18t-98 78q-7 10 -4.5 22t13.5 18l71 38q19 11 33 -6q19 -22 46 -31t55 -4q37 8 60.5 38t22.5 68v417q0 11 8 18.5t19 7.5h80z" />
    <glyph glyph-name="k" unicode="k" horiz-adv-x="563" 
d="M508 42q9 -13 1.5 -27.5t-23.5 -14.5h-96q-14 0 -22 12l-185 268v-253q0 -7 -3.5 -13.5t-9.5 -10t-14 -3.5h-79q-11 0 -19 8t-8 19v631q0 11 8 18.5t19 7.5h79q11 0 19 -7.5t8 -18.5v-253l183 269q8 11 22 11h96q16 0 23.5 -14t-1.5 -28l-204 -301z" />
    <glyph glyph-name="l" unicode="l" horiz-adv-x="537" 
d="M461 133q11 0 18.5 -8t7.5 -19v-79q0 -7 -3.5 -13.5t-9.5 -10t-13 -3.5h-384q-7 0 -13.5 3.5t-10 10t-3.5 13.5v631q0 11 8 18.5t19 7.5h79q11 0 19 -7.5t8 -18.5v-525h278z" />
    <glyph glyph-name="m" unicode="m" horiz-adv-x="747" 
d="M670 685q11 0 19 -7.5t8 -19.5v-631q0 -3 -1 -6l-2 -6t-3 -5t-4.5 -4t-5 -3.5t-5.5 -2t-6 -0.5h-80q-5 0 -10 2t-8.5 5.5t-5.5 8.5t-2 11v294l-115 -304q-7 -17 -26 -17h-100q-18 0 -25 17l-115 304v-294q0 -4 -1.5 -8.5t-4 -7.5t-5.5 -5.5t-7 -4t-9 -1.5h-79
q-11 0 -19 8t-8 19v631q0 12 8 19.5t19 7.5h92q18 0 25 -17l179 -473l180 473q6 17 25 17h92z" />
    <glyph glyph-name="n" unicode="n" horiz-adv-x="578" 
d="M501 684q11 0 19 -7.5t8 -19.5v-630q0 -6 -2 -11t-6 -8.5t-9 -5.5t-10 -2h-98q-16 0 -24 15l-196 389v-377q0 -4 -1.5 -8.5t-4 -7.5t-5.5 -5.5t-7 -4t-9 -1.5h-79q-7 0 -13.5 3.5t-10 10t-3.5 13.5v631q0 12 8 19.5t19 7.5h97q17 0 24 -14l197 -391v378q0 11 8 18.5
t19 7.5h79z" />
    <glyph glyph-name="o" unicode="o" horiz-adv-x="784" 
d="M392 1q-70 0 -133 27t-109 72.5t-73 109t-27 133.5q0 92 45.5 171t124.5 124.5t172 45.5t171.5 -45.5t124.5 -124.5t46 -171.5t-46 -171.5t-124.5 -124.5t-171.5 -45.5zM392 134q86 0 147 61t61.5 147.5t-61 147.5t-148 61t-147.5 -61t-61 -147q0 -43 16.5 -81.5
t44.5 -66.5t66.5 -44.5t81.5 -16.5z" />
    <glyph glyph-name="p" unicode="p" horiz-adv-x="586" 
d="M536 447q3 -103 -69 -177t-175 -74h-109v-169q0 -6 -2 -11t-5.5 -8.5t-8.5 -5.5t-11 -2h-79q-7 0 -13.5 3.5t-10 10t-3.5 13.5v630q0 12 8 19.5t19 7.5h210q100 0 173 -68.5t76 -168.5zM183 329h109q46 0 78.5 32.5t32.5 78.5t-32.5 78.5t-78.5 32.5h-109v-222z" />
    <glyph glyph-name="q" unicode="q" horiz-adv-x="783" 
d="M654 125l50 -59q7 -8 6 -19t-9 -19l-61 -51q-8 -7 -19 -6t-19 9l-51 61q-116 -61 -243 -29t-199.5 141.5t-52.5 239t121.5 212t232 76t223 -99.5t98.5 -224t-77 -232zM542 199q58 61 57 144q0 75 -47.5 132.5t-121 72t-139 -21.5t-93.5 -105.5t-5 -141t86 -112t137 -31.5
t126 63z" />
    <glyph glyph-name="r" unicode="r" horiz-adv-x="586" 
d="M391 216l130 -173q10 -13 2.5 -28t-23.5 -15h-100q-13 0 -21 11l-139 185h-57v-169q0 -7 -3.5 -13.5t-9.5 -10t-14 -3.5h-79q-11 0 -19 8t-8 19v630q0 12 8 19.5t19 7.5h210q102 0 175.5 -70.5t73.5 -171.5q1 -73 -39 -134.5t-106 -91.5zM292 329q46 0 78.5 32.5
t32.5 78.5t-32.5 78.5t-78.5 32.5h-109v-222h109z" />
    <glyph glyph-name="s" unicode="s" horiz-adv-x="583" 
d="M380 386q69 -21 111 -72.5t42 -114.5v-1q-1 -77 -56 -131q-72 -68 -171 -67h-1h-30q-83 0 -146 47.5t-76 117.5q-2 13 6 23t20 10h83q17 0 24 -17q8 -20 33.5 -34t56.5 -14h30q44 -1 77 29q16 14 17 36v1q0 19 -16 35t-42 24l-139 42q-69 20 -111 71.5t-42 115.5
q0 81 66.5 139t160.5 58h29q84 0 147 -47t77 -118q2 -12 -6 -22t-21 -10h-82q-18 0 -24 16q-9 21 -34 34.5t-57 13.5h-29q-38 0 -66 -19t-28 -45q0 -19 16 -35.5t42 -24.5z" />
    <glyph glyph-name="s" unicode="&#xdf;" horiz-adv-x="583" 
d="M380 386q69 -21 111 -72.5t42 -114.5v-1q-1 -77 -56 -131q-72 -68 -171 -67h-1h-30q-83 0 -146 47.5t-76 117.5q-2 13 6 23t20 10h83q17 0 24 -17q8 -20 33.5 -34t56.5 -14h30q44 -1 77 29q16 14 17 36v1q0 19 -16 35t-42 24l-139 42q-69 20 -111 71.5t-42 115.5
q0 81 66.5 139t160.5 58h29q84 0 147 -47t77 -118q2 -12 -6 -22t-21 -10h-82q-18 0 -24 16q-9 21 -34 34.5t-57 13.5h-29q-38 0 -66 -19t-28 -45q0 -19 16 -35.5t42 -24.5z" />
    <glyph glyph-name="t" unicode="t" horiz-adv-x="614" 
d="M537 684q7 0 13 -3.5t10 -9.5t4 -14v-79q0 -11 -8 -19t-19 -8h-164v-524q0 -6 -2 -11t-5.5 -8.5t-8.5 -5.5t-11 -2h-79q-11 0 -19 8t-8 19v524h-163q-11 0 -19 8t-8 19v79q0 12 8 19.5t19 7.5h460z" />
    <glyph glyph-name="u" unicode="u" horiz-adv-x="576" 
d="M499 684q11 0 18.5 -7.5t8.5 -18.5v-420q-1 -97 -69 -166.5t-165 -71.5q-99 -2 -170.5 70.5t-71.5 172.5v415q0 11 8 18.5t19 7.5h79q11 0 19 -7.5t8 -18.5v-417q0 -41 27 -72t68 -35q46 -5 80 26t34 78v420q0 11 8 18.5t19 7.5h80z" />
    <glyph glyph-name="v" unicode="v" 
d="M601 685q14 0 22 -11t3 -24l-211 -632q-7 -18 -26 -18h-102q-19 0 -25 18l-211 632q-4 13 4 24t22 11h83q20 0 26 -18l152 -457l154 457q6 18 25 18h84z" />
    <glyph glyph-name="w" unicode="w" horiz-adv-x="1020" 
d="M943 685q14 0 22 -11t4 -24l-213 -632q-6 -18 -25 -18h-99q-9 0 -16.5 5.5t-9.5 14.5l-96 389l-98 -389q-2 -9 -9.5 -14.5t-16.5 -5.5h-99q-19 0 -25 18l-211 632q-4 13 4 24t22 11h83q20 0 26 -18l143 -430l108 428q3 9 10 14.5t16 5.5h95q9 0 16.5 -5.5t9.5 -14.5
l105 -427l145 429q6 18 25 18h84z" />
    <glyph glyph-name="x" unicode="x" horiz-adv-x="626" 
d="M391 341l179 -300q8 -14 0.5 -27.5t-23.5 -13.5h-92q-16 0 -23 13l-119 198l-119 -198q-7 -13 -23 -13h-92q-16 0 -23.5 13.5t0.5 27.5l179 300l-181 304q-8 13 -0.5 26.5t23.5 13.5h92q15 0 23 -13l121 -201l121 201q8 13 23 13h92q16 0 23.5 -13.5t-0.5 -26.5z" />
    <glyph glyph-name="y" unicode="y" horiz-adv-x="626" 
d="M549 685q16 0 23.5 -13.5t-0.5 -26.5l-193 -321v-297q0 -11 -7.5 -19t-18.5 -8h-80q-11 0 -19 8t-8 19v297l-192 321q-8 13 -0.5 26.5t23.5 13.5h92q16 0 23 -13l121 -200l120 200q8 13 23 13h93z" />
    <glyph glyph-name="y" unicode="&#xff;" horiz-adv-x="626" 
d="M549 685q16 0 23.5 -13.5t-0.5 -26.5l-193 -321v-297q0 -11 -7.5 -19t-18.5 -8h-80q-11 0 -19 8t-8 19v297l-192 321q-8 13 -0.5 26.5t23.5 13.5h92q16 0 23 -13l121 -200l120 200q8 13 23 13h93z" />
    <glyph glyph-name="z" unicode="z" horiz-adv-x="610" 
d="M533 133q12 0 19.5 -8t7.5 -19v-79q0 -11 -7.5 -19t-19.5 -8h-443q-15 0 -23 13t-1 26l262 512h-251q-11 0 -19 8t-8 19v79q0 12 8 19.5t19 7.5h424q16 0 23.5 -12.5t0.5 -26.5l-261 -512h269z" />
    <glyph glyph-name="braceleft" unicode="{" horiz-adv-x="441" 
d="M364 551h-76v-418h76q11 0 19 -8t8 -19v-79q0 -11 -8 -19t-19 -8h-182q-11 0 -19 8t-8 19v249h-78q-11 0 -19 7.5t-8 19.5v79q0 11 8 19t19 8h78v248q0 8 3.5 14t10 9.5t13.5 3.5h182q11 0 19 -7.5t8 -19.5v-79q0 -11 -8 -19t-19 -8z" />
    <glyph glyph-name="verticalbar" unicode="|" horiz-adv-x="233" 
d="M156 0h-79q-11 0 -19 8t-8 19v631q0 12 8 19.5t19 7.5h79q11 0 19 -7.5t8 -19.5v-631q0 -7 -3.5 -13.5t-9.5 -10t-14 -3.5z" />
    <glyph glyph-name="braceright" unicode="}" horiz-adv-x="440" 
d="M363 409q12 0 19.5 -8t7.5 -19v-79q0 -12 -7.5 -19.5t-19.5 -7.5h-75v-249q0 -11 -8 -19t-19 -8h-184q-11 0 -19 8t-8 19v79q0 11 8 19t19 8h78v418h-78q-11 0 -19 8t-8 19v79q0 12 8 19.5t19 7.5h184q11 0 19 -7.5t8 -19.5v-248h75z" />
    <glyph glyph-name="asciitilde" unicode="~" horiz-adv-x="558" 
d="M481 428q12 0 19.5 -8t7.5 -19v-38q0 -41 -20 -75.5t-54.5 -54.5t-75.5 -20h-6q-63 0 -107 45l-33 33q-8 8 -18.5 4t-10.5 -16v-34q0 -6 -2 -11t-5.5 -8.5t-8.5 -5.5t-11 -2h-79q-7 0 -13.5 3.5t-10 9.5t-3.5 14v34q0 66 48 110.5t114 39.5q58 -5 99 -48l29 -30
q5 -5 12 -5h6q7 0 12 5t5 12v38q0 11 8 19t19 8h79z" />
    <glyph glyph-name="nonbreakingspace" unicode="&#xa0;" horiz-adv-x="280" 
 />
    <glyph glyph-name="exclamdown" unicode="&#xa1;" horiz-adv-x="233" 
d="M163 573q-19 -19 -46.5 -19t-46.5 19.5t-19 46.5t19 46.5t46.5 19.5t46.5 -19.5t19 -46.5t-19 -47zM156 1h-79q-11 0 -19 7.5t-8 19.5v463q0 11 8 19t19 8h79q11 0 19 -8t8 -19v-463q0 -8 -3.5 -14t-9.5 -9.5t-14 -3.5z" />
    <glyph glyph-name="cent" unicode="&#xa2;" horiz-adv-x="685" 
d="M626 132q8 -8 8.5 -19.5t-8.5 -19.5q-89 -84 -212 -92v-57q0 -12 -8 -19.5t-19 -7.5h-22q-11 0 -19 7.5t-8 19.5v60q-125 20 -206.5 116t-81.5 222t81.5 222t206.5 116v63q0 11 8 19t19 8h22q11 0 19 -8t8 -19v-59q121 -8 211 -91q8 -8 8 -19.5t-9 -19.5l-59 -54
q-7 -7 -17 -7t-18 7q-63 55 -147 51t-142 -64.5t-58 -144.5t58.5 -144.5t142.5 -64t147 52.5q8 6 18 6t17 -7z" />
    <glyph glyph-name="sterling" unicode="&#xa3;" horiz-adv-x="577" 
d="M500 134q7 0 13.5 -4t10 -10t3.5 -13v-80q0 -11 -8 -19t-19 -8h-423q-11 0 -19 8t-8 19v80q0 11 8 19t19 8h41q8 -1 15 2t12.5 8t9 11.5t4.5 14.5v137h-82q-11 0 -19 8t-8 19v22q0 11 8 19t19 8h82v78q0 90 64 156.5t154 66.5q72 0 130 -44q9 -7 10 -19.5t-8 -20.5
l-57 -57q-15 -15 -33 -4q-21 12 -45 12q-35 -2 -58.5 -27.5t-23.5 -59.5v-81h77q11 0 19 -8t8 -19v-22q0 -11 -8 -19t-19 -8h-77v-137q0 -18 -4 -36h212z" />
    <glyph glyph-name="currency" unicode="&#xa4;" horiz-adv-x="371" 
d="M299 286l14 -14q8 -8 8 -19t-8 -19l-16 -16q-8 -7 -19 -7t-19 7l-13 14q-29 -15 -61 -15t-60 15l-13 -14q-8 -7 -19.5 -7t-18.5 7l-16 16q-8 8 -8 19t8 19l14 14q-30 58 0 116l-14 14q-8 8 -8 19.5t8 18.5l16 16q3 3 6.5 5t8 2.5t8.5 0t8 -2.5t7 -5l13 -13q28 15 60 15
t61 -15l13 13q8 8 19 8t19 -8l16 -16q8 -7 8 -18.5t-8 -19.5l-14 -14q30 -58 0 -116zM185 396q-10 0 -19.5 -4t-16.5 -11t-11 -16.5t-4 -20.5q0 -21 15 -36t36.5 -15t36.5 15t15 36.5t-15 36.5t-37 15z" />
    <glyph glyph-name="yen" unicode="&#xa5;" horiz-adv-x="626" 
d="M549 685q16 0 23.5 -13.5t-0.5 -26.5l-191 -319h78q11 0 19 -8t8 -19v-22q0 -11 -8 -19t-19 -8h-80v-43h80q7 0 13 -3.5t10 -9.5t4 -14v-22q0 -11 -8 -19t-19 -8h-80v-104q0 -11 -7.5 -19t-18.5 -8h-80q-11 0 -19 8t-8 19v104h-79q-7 0 -13.5 3.5t-10 10t-3.5 13.5v22
q0 11 8 19t19 8h79v43h-79q-11 0 -19 8t-8 19v22q0 11 8 19t19 8h78l-191 319q-8 13 -0.5 26.5t23.5 13.5h92q16 0 23 -13l121 -200l120 200q8 13 23 13h93z" />
    <glyph glyph-name="section" unicode="&#xa7;" horiz-adv-x="456" 
d="M406 343q-1 -70 -49 -121q22 -39 19 -83t-29.5 -79t-68 -50t-84.5 -5t-73.5 41.5t-38.5 75.5q-2 11 5.5 19.5t18.5 8.5h91q12 -1 19 -10q5 -6 12 -6q6 0 10.5 4.5t4.5 11t-4.5 11t-10.5 4.5q-53 0 -97.5 29t-65.5 78t-12 101t45 91q-21 38 -18 82t29.5 79t67.5 50.5
t84 5.5t73.5 -42t39.5 -75q1 -11 -6 -19.5t-18 -8.5h-92q-11 0 -19 10q-7 9 -18 3.5t-8 -17.5t15 -11q73 -1 125 -53t53 -125zM228 298q5 0 10 1.5t9.5 3.5t8 5t6.5 7t5.5 8.5t3.5 9.5t1 10q0 18 -13 31t-31 13q-12 0 -22.5 -6t-16.5 -16t-6 -22q0 -19 13 -32t32 -13z" />
    <glyph glyph-name="copyright" unicode="&#xa9;" horiz-adv-x="461" 
d="M311 289q12 -7 13 -20.5t-9 -22.5q-39 -34 -90 -33t-87.5 37.5t-38 88t32.5 89.5t85.5 42.5t91.5 -27.5q10 -8 9.5 -21.5t-11.5 -20.5l-18 -14q-15 -11 -31 -1q-17 11 -37 8.5t-33 -18t-12.5 -36t14.5 -35t34.5 -16t36.5 10.5q15 12 31 2zM231 161q-37 0 -70.5 14.5
t-57.5 38.5t-38.5 57.5t-14.5 70.5q0 75 53 128t127.5 53t127.5 -53t53 -128t-52.5 -128t-127.5 -53zM392 342q0 33 -12.5 63t-34.5 51.5t-51.5 34.5t-62.5 13q-44 0 -81.5 -21.5t-59 -59t-21.5 -81.5q0 -67 47.5 -114.5t114.5 -47t114 47.5t47 114z" />
    <glyph glyph-name="guillemotleft" unicode="&#xab;" horiz-adv-x="459" 
d="M171 343l65 -155q4 -10 0 -20t-15 -15l-55 -23q-10 -4 -20.5 0t-14.5 14l-79 188q-4 11 0 21l79 188q4 10 14.5 14t20.5 0l55 -23q11 -4 15 -14.5t0 -20.5zM343 343l64 -155q4 -10 0 -20t-14 -15l-56 -23q-10 -4 -20.5 0t-14.5 14l-79 188q-4 11 0 21l79 188
q4 10 14.5 14t20.5 0l56 -23q10 -5 14 -15t0 -20z" />
    <glyph glyph-name="softhyphen" unicode="&#xad;" horiz-adv-x="0" 
 />
    <glyph glyph-name="registered" unicode="&#xae;" horiz-adv-x="461" 
d="M231 161q-37 0 -70.5 14.5t-57.5 38.5t-38.5 57.5t-14.5 70.5q0 75 53 128t127.5 53t127.5 -53t53 -128t-52.5 -128t-127.5 -53zM351 234q51 57 40 133q-10 61 -57.5 100t-109.5 36.5t-106 -45.5t-48.5 -104.5t33.5 -110.5t99 -60q44 -8 86 8l-48 63h-14v-10
q0 -7 -3.5 -13t-10 -9.5t-13.5 -3.5h-22q-8 0 -14 3.5t-9.5 9.5t-3.5 13v194q0 7 3.5 13t9.5 10t14 4h76q44 0 76.5 -31.5t32.5 -75.5q-1 -52 -42 -83zM257 389h-31v-59h31q12 0 20.5 8.5t8.5 20.5t-8.5 21t-20.5 9z" />
    <glyph glyph-name="plusminus" unicode="&#xb1;" horiz-adv-x="442" 
d="M365 0h-288q-11 0 -19 7.5t-8 19.5v79q0 11 8 19t19 8h288q12 0 19.5 -8t7.5 -19v-79q0 -12 -7.5 -19.5t-19.5 -7.5zM365 409q12 0 19.5 -8t7.5 -19v-79q0 -12 -7.5 -19.5t-19.5 -7.5h-77v-78q0 -11 -8 -19t-19 -8h-79q-8 0 -14 3.5t-9.5 10t-3.5 13.5v78h-78
q-11 0 -19 7.5t-8 19.5v79q0 11 8 19t19 8h78v74q0 11 7.5 19t19.5 8h79q11 0 19 -8t8 -19v-74h77z" />
    <glyph glyph-name="mu" unicode="&#xb5;" horiz-adv-x="489" 
d="M412 512q11 0 19 -8t8 -19v-186q0 -52 -24.5 -96.5t-67 -72.5t-93.5 -30q-36 -2 -71 10v-87q0 -8 -3.5 -14t-9.5 -9.5t-14 -3.5h-79q-11 0 -19 8t-8 19v462q0 11 8 19t19 8h79q11 0 19 -8t8 -19v-189q0 -15 7 -28.5t19 -22.5t27 -12q28 -3 49 15t21 46v191q0 11 8 19
t19 8h79z" />
    <glyph glyph-name="paragraph" unicode="&#xb6;" horiz-adv-x="688" 
d="M611 684q11 0 19 -7.5t8 -19.5v-79q0 -11 -8 -19t-19 -8h-59v-521q0 -11 -7.5 -19t-19.5 -8h-79q-11 0 -19 8t-8 19v521h-37v-521q0 -11 -8 -19t-19 -8h-79q-11 0 -19 8t-8 19v246q-86 2 -144.5 65t-54.5 149q4 82 65 138t144 56h352zM249 409v142q-28 -2 -47 -22.5
t-19 -48.5q0 -18 8.5 -34t24 -26t33.5 -11z" />
    <glyph glyph-name="guillemotright" unicode="&#xbb;" horiz-adv-x="459" 
d="M407 353q4 -10 0 -21l-78 -188q-5 -10 -15 -14t-21 0l-55 23q-10 5 -14.5 15t-0.5 21l65 154l-65 154q-4 10 0.5 20t14.5 15l55 23q11 4 21 0t15 -14zM236 353q4 -10 0 -21l-79 -188q-4 -10 -14.5 -14t-20.5 0l-55 23q-11 5 -15 15t0 21l65 154l-65 154q-4 10 0 20t15 15
l55 23q10 4 20.5 0t14.5 -14z" />
    <glyph glyph-name="questiondown" unicode="&#xbf;" horiz-adv-x="591" 
d="M416 258h125v-11q0 -95 -64 -165.5t-159 -79t-171 49t-93 151t33 174.5t142 107v7q0 7 3.5 13.5t10 10t13.5 3.5h79q11 0 19 -8t8 -19v-104q0 -12 -8 -19.5t-19 -7.5h-36q-47 0 -81 -33t-35 -80q0 -46 33 -79t80 -33q47 1 79.5 35t32.5 81q0 7 8 7zM344 573
q-19 -19 -46 -19t-46.5 19.5t-19.5 46.5t19.5 46.5t46.5 19.5t46.5 -19.5t19.5 -46.5t-20 -47z" />
    <glyph glyph-name="Agrave" unicode="&#xc0;" 
d="M626 35q4 -13 -4 -24t-21 -11h-84q-19 0 -26 18l-25 77h-254l-26 -77q-6 -18 -25 -18h-84q-14 0 -22 11t-4 24l212 632q6 18 26 18h101q20 0 26 -18zM257 229h164l-82 246zM370 748l-94 79q-7 7 -8 16.5t5.5 17t16.5 8.5t17 -6l94 -79q7 -7 8 -16.5t-5.5 -17t-16 -8.5
t-17.5 6z" />
    <glyph glyph-name="Aacute" unicode="&#xc1;" 
d="M626 35q4 -13 -4 -24t-21 -11h-84q-19 0 -26 18l-25 77h-254l-26 -77q-6 -18 -25 -18h-84q-14 0 -22 11t-4 24l212 632q6 18 26 18h101q20 0 26 -18zM257 229h164l-82 246zM276 784l94 79q8 7 17.5 6t16 -8.5t5.5 -17t-8 -16.5l-94 -79q-7 -7 -17 -6t-16.5 8.5t-5.5 17
t8 16.5z" />
    <glyph glyph-name="Acircumflex" unicode="&#xc2;" 
d="M626 35q5 -13 -3.5 -24t-21.5 -11h-84q-19 0 -26 18l-25 77h-254l-26 -77q-6 -18 -25 -18h-84q-14 0 -22 11t-4 24l212 632q6 18 26 18h101q20 0 26 -18zM257 229h164l-82 246zM282 751q-7 -7 -16.5 -7t-16.5 7t-7 17t6 17l72 72q7 7 17 7t17 -6l75 -73q7 -7 7 -17
t-7 -17t-16.5 -7t-16.5 7l-59 56z" />
    <glyph glyph-name="Atilde" unicode="&#xc3;" 
d="M626 35q4 -13 -4 -24t-21 -11h-84q-19 0 -26 18l-25 77h-254l-26 -77q-6 -18 -25 -18h-84q-14 0 -22 11t-4 24l212 632q6 18 26 18h101q20 0 26 -18zM257 229h164l-82 246zM259 783q-14 -4 -24 5.5t-6 22.5q5 18 19 32q12 11 28 15l1 1q27 7 52 -6.5t32 -40.5
q3 -8 10.5 -12t15.5 -2h2q8 3 12 10l2 4q3 13 16 16q13 4 23 -5.5t6 -22.5q-5 -19 -18 -32q-12 -11 -28 -15l-2 -1q-27 -8 -52 6t-32 41q-3 8 -10 12t-16 2h-1q-8 -3 -12 -10l-2 -4q-4 -13 -16 -16z" />
    <glyph glyph-name="Adieresis" unicode="&#xc4;" 
d="M626 35q4 -13 -4 -24t-21 -11h-84q-19 0 -26 18l-25 77h-254l-26 -77q-6 -18 -25 -18h-84q-14 0 -22 11t-4 24l212 632q6 18 26 18h101q20 0 26 -18zM257 229h164l-82 246zM291 758q-8 0 -15 4t-11 11t-4 15q0 13 9 22t21 9q8 0 15 -4.5t11 -11t4 -15.5q0 -12 -8.5 -21
t-21.5 -9zM386 758q-8 0 -15 4t-11 11t-4 15q0 13 9 22t21 9q9 0 16 -4.5t11 -11t4 -15.5q0 -12 -9 -21t-22 -9z" />
    <glyph glyph-name="Aring" unicode="&#xc5;" horiz-adv-x="677" 
d="M626 35q4 -13 -4 -24t-21 -11h-84q-19 0 -26 18l-25 77h-254l-26 -77q-6 -18 -25 -18h-84q-14 0 -22 11t-4 24l218 650h3q-25 21 -33.5 53t2.5 63t38 49.5t60 18.5t59.5 -18.5t38 -49.5t2.5 -63t-34 -53h5zM339 822q-24 0 -40.5 -16.5t-16.5 -40.5q0 -17 9.5 -31
t25.5 -21q35 -14 61.5 12.5t12.5 61.5q-7 16 -21 25.5t-31 9.5zM257 229h164l-82 246z" />
    <glyph glyph-name="AE" unicode="&#xc6;" horiz-adv-x="892" 
d="M815 552h-278v-143h192q11 0 19 -7.5t8 -19.5v-79q0 -5 -2 -10t-6 -8.5t-9 -6t-10 -2.5h-192v-142h278q11 0 19 -8t8 -19v-79q0 -6 -2.5 -11t-6 -8.5t-8.5 -5.5t-10 -2h-384q-11 0 -19 7.5t-8 19.5v67h-192l-26 -77q-6 -18 -25 -18h-84q-14 0 -22 11t-4 25l215 631
q6 18 25 18h524q11 0 19 -8t8 -19v-79q0 -11 -8 -19t-19 -8zM404 229v323h-36l-110 -323h146z" />
    <glyph glyph-name="Ccedilla" unicode="&#xc7;" horiz-adv-x="684" 
d="M626 93q-78 -73 -184 -89l-6 -43q32 -7 51.5 -32.5t17.5 -57.5q-1 -23 -13.5 -41.5t-32.5 -29.5t-43 -10h-24q-7 0 -13 3.5t-9.5 9.5t-3.5 14v22q0 11 7.5 19t18.5 8h27q4 0 7.5 3t3.5 7t-3.5 7.5t-7.5 3.5h-39q-12 0 -20 9t-6 21l11 85q-112 9 -197 82.5t-109.5 183
t20.5 212.5t142 159t208.5 44t194.5 -88q9 -8 9 -20t-9 -20l-59 -54q-7 -7 -17 -7t-18 6q-63 56 -147 52t-142 -65t-58 -145t58.5 -144.5t142.5 -63.5t147 52q8 7 18 7t17 -7l60 -53q8 -8 8.5 -20t-8.5 -20z" />
    <glyph glyph-name="Egrave" unicode="&#xc8;" horiz-adv-x="537" 
d="M461 552h-278v-143h192q11 0 19 -7.5t8 -19.5v-79q0 -11 -8 -19t-19 -8h-192v-142h278q11 0 18.5 -8t7.5 -19v-79q0 -12 -7.5 -19.5t-18.5 -7.5h-384q-11 0 -19 7.5t-8 19.5v630q0 11 8 19t19 8h384q11 0 18.5 -8t7.5 -19v-79q0 -11 -7.5 -19t-18.5 -8zM300 748l-93 79
q-8 7 -9 16.5t5.5 17t16.5 8.5t17 -6l94 -79q7 -7 8 -16.5t-5.5 -17t-16 -8.5t-17.5 6z" />
    <glyph glyph-name="Eacute" unicode="&#xc9;" horiz-adv-x="537" 
d="M461 552h-278v-143h192q11 0 19 -7.5t8 -19.5v-79q0 -11 -8 -19t-19 -8h-192v-142h278q11 0 18.5 -8t7.5 -19v-79q0 -12 -7.5 -19.5t-18.5 -7.5h-384q-11 0 -19 7.5t-8 19.5v630q0 11 8 19t19 8h384q11 0 18.5 -8t7.5 -19v-79q0 -11 -7.5 -19t-18.5 -8zM237 748
q-7 -7 -17 -6t-16.5 8.5t-5.5 17t9 16.5l93 79q8 7 17.5 6t16 -8.5t5.5 -17t-8 -16.5z" />
    <glyph glyph-name="Ecircumflex" unicode="&#xca;" horiz-adv-x="537" 
d="M461 552h-278v-143h192q11 0 19 -7.5t8 -19.5v-79q0 -11 -8 -19t-19 -8h-192v-142h278q11 0 18.5 -8t7.5 -19v-79q0 -12 -7.5 -19.5t-18.5 -7.5h-384q-11 0 -19 7.5t-8 19.5v630q0 11 8 19t19 8h384q11 0 18.5 -8t7.5 -19v-79q0 -11 -7.5 -19t-18.5 -8zM212 751
q-7 -7 -16.5 -7t-16.5 7t-7 17t6 17l72 72q7 7 17 7t17 -6l75 -73q7 -7 7 -17t-7 -17t-16.5 -7t-16.5 7l-59 56z" />
    <glyph glyph-name="Edieresis" unicode="&#xcb;" horiz-adv-x="537" 
d="M461 552h-278v-143h192q11 0 19 -7.5t8 -19.5v-79q0 -11 -8 -19t-19 -8h-192v-142h278q11 0 18.5 -8t7.5 -19v-79q0 -12 -7.5 -19.5t-18.5 -7.5h-384q-11 0 -19 7.5t-8 19.5v630q0 11 8 19t19 8h384q11 0 18.5 -8t7.5 -19v-79q0 -11 -7.5 -19t-18.5 -8zM242 767
q-8 -9 -20.5 -9t-21.5 9t-9 21.5t9 21.5t21.5 9t21 -9t8.5 -21.5t-9 -21.5zM338 767q-9 -9 -21.5 -9t-21.5 9t-9 21.5t9 21.5t21.5 9t21.5 -9t9 -21.5t-9 -21.5z" />
    <glyph glyph-name="Igrave" unicode="&#xcc;" horiz-adv-x="241" 
d="M160 0h-79q-11 0 -19 8t-8 19v631q0 11 8 19t19 8h79q11 0 19 -8t8 -19v-631q0 -7 -3.5 -13t-9.5 -10t-14 -4zM152 748l-94 79q-7 7 -8 16.5t5.5 17t16.5 8.5t17 -6l94 -79q7 -7 8 -16.5t-5.5 -17t-16 -8.5t-17.5 6z" />
    <glyph glyph-name="Iacute" unicode="&#xcd;" horiz-adv-x="242" 
d="M161 0h-80q-11 0 -19 8t-8 19v631q0 11 8 19t19 8h80q11 0 19 -8t8 -19v-631q0 -7 -4 -13t-10 -10t-13 -4zM59 784l93 79q8 7 18 6t16 -8.5t5.5 -17t-8.5 -16.5l-93 -79q-8 -7 -18 -6t-16 8.5t-5.5 17t8.5 16.5z" />
    <glyph glyph-name="Icircumflex" unicode="&#xce;" horiz-adv-x="294" 
d="M187 0h-79q-12 0 -19.5 8t-7.5 19v631q0 11 7.5 19t19.5 8h79q11 0 19 -8t8 -19v-631q0 -7 -3.5 -13t-10 -10t-13.5 -4zM237 785q7 -7 7.5 -17t-6.5 -17t-17 -7t-17 7l-58 56l-55 -56q-7 -7 -17 -7t-17 7t-7 17t7 17l72 72q6 7 16 7t17 -6z" />
    <glyph glyph-name="Idieresis" unicode="&#xcf;" horiz-adv-x="256" 
d="M167 0h-79q-11 0 -19 8t-8 19v631q0 11 8 19t19 8h79q12 0 19.5 -8t7.5 -19v-631q0 -7 -3.5 -13t-9.5 -10t-14 -4zM80 819q6 0 12 -2.5t10 -6.5t6 -10t2 -12q0 -12 -8.5 -21t-21 -9t-21.5 9t-9 21.5t9 21.5t21 9zM197 767q-9 -9 -21.5 -9t-21.5 9t-9 21.5t9 21.5t21.5 9
t21.5 -9t9 -21.5t-9 -21.5z" />
    <glyph glyph-name="Eth" unicode="&#xd0;" horiz-adv-x="757" 
d="M360 685q91 0 170.5 -44t127 -121t49.5 -168q1 -34 -5 -68t-18.5 -65t-31 -60t-42.5 -53q-48 -50 -111.5 -76.5t-132.5 -26.5h-216q-11 0 -19 7.5t-8 19.5v275h-46q-11 0 -19 8t-8 19v22q0 11 8 19t19 8h46v277q0 7 3.5 13.5t9.5 10t14 3.5h210zM574 336q3 88 -58.5 152
t-149.5 64h-110v-171h52q11 0 19 -8t8 -19v-22q0 -11 -8 -19t-19 -8h-52v-169h105q85 0 147.5 58t65.5 142z" />
    <glyph glyph-name="Ntilde" unicode="&#xd1;" horiz-adv-x="587" 
d="M510 685q5 0 9 -1.5t7.5 -4t6 -5.5t3.5 -7.5t1 -8.5v-631q0 -6 -2 -11t-5.5 -8.5t-8.5 -5.5t-11 -2h-97q-17 0 -24 15l-206 397v-385q0 -7 -3.5 -13t-9.5 -9.5t-14 -3.5h-79q-11 0 -19 7.5t-8 18.5v631q0 12 8 19.5t19 7.5h98q16 0 24 -14l205 -397v384q0 11 8 19t19 8
h79zM214 783q-14 -4 -24 5.5t-6 22.5q5 19 19 32q12 11 28 15l1 1q27 7 52 -6.5t32 -40.5q3 -8 10.5 -12t15.5 -2h2q10 3 14 14q3 13 16 16q13 4 23 -5.5t6 -22.5q-5 -19 -18 -32q-12 -11 -28 -15l-2 -1q-27 -8 -52 6t-32 41q-3 8 -10.5 12t-15.5 2h-1q-11 -3 -14 -14
q-4 -13 -16 -16z" />
    <glyph glyph-name="Ograve" unicode="&#xd2;" horiz-adv-x="785" 
d="M220 639q79 46 172 46t172 -46t125 -125t46 -172t-46 -171.5t-125 -124.5t-172 -46t-171.5 46t-124.5 124.5t-46 171.5t46 172t124 125zM392 552q-56 0 -104.5 -28t-76.5 -76.5t-28 -105.5q0 -86 61.5 -147.5t148 -61.5t147.5 61.5t61.5 148t-61 148t-148.5 61.5z
M424 748l-94 79q-7 7 -8 16.5t5.5 17t16 8.5t17.5 -6l94 -79q7 -7 8 -16.5t-5.5 -17t-16.5 -8.5t-17 6z" />
    <glyph glyph-name="Oacute" unicode="&#xd3;" horiz-adv-x="785" 
d="M220 639q79 46 172 46t172 -46t125 -125t46 -172t-46 -171.5t-125 -124.5t-172 -46t-171.5 46t-124.5 124.5t-46 171.5t46 172t124 125zM392 552q-56 0 -104.5 -28t-76.5 -76.5t-28 -105.5q0 -86 61.5 -147.5t148 -61.5t147.5 61.5t61.5 148t-61 148t-148.5 61.5z
M330 784l94 79q7 7 17 6t16.5 -8.5t5.5 -17t-8 -16.5l-94 -79q-8 -7 -17.5 -6t-16 8.5t-5.5 17t8 16.5z" />
    <glyph glyph-name="Ocircumflex" unicode="&#xd4;" horiz-adv-x="785" 
d="M220 639q79 46 172 46t172 -46t125 -125t46 -172t-46 -171.5t-125 -124.5t-172 -46t-171.5 46t-124.5 124.5t-46 171.5t46 172t124 125zM392 552q-56 0 -104.5 -28t-76.5 -76.5t-28 -105.5q0 -86 61.5 -147.5t148 -61.5t147.5 61.5t61.5 148t-61 148t-148.5 61.5z
M336 751q-7 -7 -17 -7t-17 7t-7 17t7 17l72 72q7 7 16.5 7t16.5 -6l75 -73q7 -7 7.5 -17t-6.5 -17t-17 -7t-17 7l-58 56z" />
    <glyph glyph-name="Otilde" unicode="&#xd5;" horiz-adv-x="785" 
d="M220 639q79 46 172 46t172 -46t125 -125t46 -172t-46 -171.5t-125 -124.5t-172 -46t-171.5 46t-124.5 124.5t-46 171.5t46 172t124 125zM392 552q-56 0 -104.5 -28t-76.5 -76.5t-28 -105.5q0 -86 61.5 -147.5t148 -61.5t147.5 61.5t61.5 148t-61 148t-148.5 61.5z
M312 783q-13 -4 -23 6t-6 23q11 36 46 46l2 1q27 7 51.5 -6.5t32.5 -40.5q3 -8 10 -12t16 -2h1q8 3 13 10q1 2 1 4q4 13 16 16h1q13 4 23 -5.5t6 -22.5q-5 -18 -19 -32q-12 -11 -28 -15l-1 -1q-10 -2 -19 -2q-23 0 -41 13.5t-25 35.5q-2 8 -9.5 12t-15.5 2h-2
q-10 -3 -13 -14q-4 -13 -17 -16z" />
    <glyph glyph-name="Odieresis" unicode="&#xd6;" horiz-adv-x="785" 
d="M220 639q79 46 172 46t172 -46t125 -125t46 -172t-46 -171.5t-125 -124.5t-172 -46t-171.5 46t-124.5 124.5t-46 171.5t46 172t124 125zM392 552q-56 0 -104.5 -28t-76.5 -76.5t-28 -105.5q0 -86 61.5 -147.5t148 -61.5t147.5 61.5t61.5 148t-61 148t-148.5 61.5z
M345 758q-9 0 -15.5 4t-11 11t-4.5 15q0 13 9 22t21.5 9t21.5 -9t9 -21.5t-9 -21.5t-21 -9zM461 767q-8 -9 -20.5 -9t-21.5 9t-9 21.5t9 21.5t21.5 9t21 -9t8.5 -21.5t-9 -21.5z" />
    <glyph glyph-name="multiply" unicode="&#xd7;" horiz-adv-x="414" 
d="M356 287q8 -8 8 -19t-8 -19l-56 -56q-8 -8 -19 -8t-19 8l-55 55l-55 -55q-8 -8 -19 -8t-19 8l-56 56q-8 8 -8 19t8 19l55 55l-55 55q-8 8 -8 19t8 19l56 56q8 8 19 8t19 -8l55 -55l53 52q8 8 19 8t19 -8l56 -56q8 -7 8 -18.5t-8 -19.5l-53 -52z" />
    <glyph glyph-name="Oslash" unicode="&#xd8;" horiz-adv-x="785" 
d="M643 575q89 -96 91.5 -226.5t-82.5 -229.5t-215 -116t-238 57l-55 -64q-7 -9 -18 -10t-20 7l-17 14q-8 7 -9 18.5t6 19.5l56 64q-89 96 -91.5 227t82.5 230t215 116t238 -57l55 64q7 8 18 9t20 -6l17 -15q8 -7 9 -18t-7 -20zM183 342q0 -73 47 -131l268 312
q-49 28 -105 28.5t-104.5 -27.5t-77 -76.5t-28.5 -105.5zM392 133q61 0 112 32t77 86.5t19 114.5t-44 107l-269 -311q49 -29 105 -29z" />
    <glyph glyph-name="Ugrave" unicode="&#xd9;" horiz-adv-x="595" 
d="M518 685q11 0 19 -8t8 -19v-410q-1 -105 -76 -178t-179 -70q-101 3 -170.5 77t-69.5 176v405q0 11 8 19t19 8h79q11 0 19 -8t8 -19v-410q0 -51 37.5 -85t87.5 -29q45 5 74.5 38.5t28.5 78.5v407q0 11 8 19t19 8h80zM329 748l-94 79q-7 7 -8 16.5t5.5 17t16 8.5t17.5 -6
l94 -79q7 -7 8 -16.5t-5.5 -17t-16.5 -8.5t-17 6z" />
    <glyph glyph-name="Uacute" unicode="&#xda;" horiz-adv-x="595" 
d="M518 685q11 0 19 -8t8 -19v-410q-1 -105 -76 -178t-179 -70q-101 3 -170.5 77t-69.5 176v405q0 11 8 19t19 8h79q11 0 19 -8t8 -19v-410q0 -51 37.5 -85t87.5 -29q45 5 74.5 38.5t28.5 78.5v407q0 11 8 19t19 8h80zM235 784l94 79q7 7 17 6t16.5 -8.5t5.5 -17t-9 -16.5
l-93 -79q-8 -7 -17.5 -6t-16 8.5t-6 17t8.5 16.5z" />
    <glyph glyph-name="Ucircumflex" unicode="&#xdb;" horiz-adv-x="595" 
d="M518 685q11 0 19 -8t8 -19v-410q-1 -105 -76 -178t-179 -70q-66 2 -121.5 37t-87 92t-31.5 124v405q0 11 8 19t19 8h79q11 0 19 -8t8 -19v-410q0 -51 37.5 -85t87.5 -29q45 5 74.5 38.5t28.5 78.5v407q0 11 8 19t19 8h80zM241 751q-7 -7 -17 -7t-17 7t-7 17t7 17l72 72
q7 7 16.5 7t16.5 -6l75 -73q7 -7 7.5 -17t-6.5 -17t-17 -7t-17 7l-58 56z" />
    <glyph glyph-name="Udieresis" unicode="&#xdc;" horiz-adv-x="595" 
d="M518 685q11 0 19 -8t8 -19v-410q-1 -105 -76 -178t-179 -70q-66 2 -121.5 37t-87 92t-31.5 124v405q0 11 8 19t19 8h79q11 0 19 -8t8 -19v-410q0 -51 37.5 -85t87.5 -29q45 5 74.5 38.5t28.5 78.5v407q0 11 8 19t19 8h80zM271 767q-9 -9 -21.5 -9t-21.5 9t-9 21.5t9 21
t21.5 8.5t21.5 -8.5t9 -21t-9 -21.5zM345 818q8 0 15 -4t11 -10.5t4 -15.5q0 -12 -9 -21t-21.5 -9t-21 9t-8.5 21.5t8.5 21t21.5 8.5z" />
    <glyph glyph-name="Yacute" unicode="&#xdd;" horiz-adv-x="626" 
d="M549 685q16 0 23.5 -13.5t-0.5 -26.5l-193 -321v-297q0 -11 -7.5 -19t-18.5 -8h-80q-11 0 -19 8t-8 19v297l-192 321q-8 13 -0.5 26.5t23.5 13.5h92q16 0 23 -13l121 -200l120 200q8 13 23 13h93zM251 784l93 79q8 7 17.5 6t16 -8.5t6 -17t-8.5 -16.5l-94 -79
q-7 -7 -17 -6t-16 8.5t-5.5 17t8.5 16.5z" />
    <glyph glyph-name="Thorn" unicode="&#xde;" horiz-adv-x="575" 
d="M282 583q101 0 173 -71.5t70 -170.5q-1 -64 -33 -117.5t-86.5 -84.5t-117.5 -32h-105v-80q0 -7 -3.5 -13.5t-9.5 -10t-14 -3.5h-79q-11 0 -19 8t-8 19v630q0 12 8 19.5t19 7.5h79q11 0 19 -7.5t8 -19.5v-74h99zM183 241h105q21 0 40.5 8t33.5 22t22 33.5t8 40.5
q0 29 -14 53t-38 38t-52 14h-105v-209z" />
    <glyph glyph-name="agrave" unicode="&#xe0;" 
d="M626 35q4 -13 -4 -24t-21 -11h-84q-19 0 -26 18l-25 77h-254l-26 -77q-6 -18 -25 -18h-84q-14 0 -22 11t-4 24l212 632q6 18 26 18h101q20 0 26 -18zM257 229h164l-82 246zM370 748l-94 79q-7 7 -8 16.5t5.5 17t16.5 8.5t17 -6l94 -79q7 -7 8 -16.5t-5.5 -17t-16 -8.5
t-17.5 6z" />
    <glyph glyph-name="aacute" unicode="&#xe1;" 
d="M626 35q4 -13 -4 -24t-21 -11h-84q-19 0 -26 18l-25 77h-254l-26 -77q-6 -18 -25 -18h-84q-14 0 -22 11t-4 24l212 632q6 18 26 18h101q20 0 26 -18zM257 229h164l-82 246zM276 784l94 79q8 7 17.5 6t16 -8.5t5.5 -17.5t-8 -16l-94 -80q-7 -6 -17 -5t-16.5 8.5t-5.5 17
t8 16.5z" />
    <glyph glyph-name="acircumflex" unicode="&#xe2;" 
d="M626 35q5 -13 -3.5 -24t-21.5 -11h-84q-19 0 -26 18l-25 77h-254l-26 -77q-6 -18 -25 -18h-84q-14 0 -22 11t-4 24l212 632q6 18 26 18h101q20 0 26 -18zM257 229h164l-82 246zM282 751q-7 -7 -16.5 -7t-16.5 7t-7 17t6 17l72 72q7 7 17 7t17 -6l75 -73q7 -7 7 -17
t-7 -17t-16.5 -7t-16.5 7l-59 56z" />
    <glyph glyph-name="atilde" unicode="&#xe3;" 
d="M626 35q4 -13 -4 -24t-21 -11h-84q-19 0 -26 18l-25 77h-254l-26 -77q-6 -18 -25 -18h-84q-14 0 -22 11t-4 24l212 632q6 18 26 18h101q20 0 26 -18zM257 229h164l-82 246zM259 783q-14 -4 -24 5.5t-6 22.5q5 18 19 32q12 11 28 15l1 1q27 7 52 -6.5t32 -40.5
q3 -8 10.5 -12t15.5 -2h2q8 3 12 10l2 4q3 12 16 16t23 -5.5t6 -22.5q-5 -19 -18 -32q-12 -11 -28 -15l-2 -1q-27 -8 -52 6t-32 41q-3 8 -10 12t-16 2h-1q-8 -3 -12 -10l-2 -4q-4 -13 -16 -16z" />
    <glyph glyph-name="adieresis" unicode="&#xe4;" 
d="M626 35q4 -13 -4 -24t-21 -11h-84q-19 0 -26 18l-25 77h-254l-26 -77q-6 -18 -25 -18h-84q-14 0 -22 11t-4 24l212 632q6 18 26 18h101q20 0 26 -18zM257 229h164l-82 246zM291 758q-8 0 -15 4t-11 11t-4 15q0 13 9 21.5t21.5 8.5t21 -8.5t8.5 -21t-8.5 -21.5t-21.5 -9z
M386 758q-8 0 -15 4t-11 11t-4 15q0 13 9 21.5t21 8.5q9 0 16 -4t11 -11t4 -15q0 -12 -9 -21t-22 -9z" />
    <glyph glyph-name="aring" unicode="&#xe5;" horiz-adv-x="677" 
d="M626 35q4 -13 -4 -24t-21 -11h-84q-19 0 -26 18l-25 77h-254l-26 -77q-6 -18 -25 -18h-84q-14 0 -22 11t-4 24l218 650h3q-25 21 -33.5 53t2.5 63t38 49.5t60 18.5t59.5 -18.5t38 -49.5t2.5 -63t-34 -53h5zM339 822q-24 0 -40.5 -16.5t-16.5 -40.5q0 -17 9.5 -31
t25.5 -21q35 -14 61.5 12.5t12.5 61.5q-7 16 -21 25.5t-31 9.5zM257 229h164l-82 246z" />
    <glyph glyph-name="ae" unicode="&#xe6;" horiz-adv-x="892" 
d="M815 552h-278v-143h192q11 0 19 -7.5t8 -19.5v-79q0 -5 -2 -10t-6 -8.5t-9 -6t-10 -2.5h-192v-142h278q11 0 19 -8t8 -19v-79q0 -6 -2.5 -11t-6 -8.5t-8.5 -5.5t-10 -2h-384q-11 0 -19 7.5t-8 19.5v67h-192l-26 -77q-6 -18 -25 -18h-84q-14 0 -22 11t-4 25l215 631
q6 18 25 18h524q11 0 19 -8t8 -19v-79q0 -11 -8 -19t-19 -8zM404 229v323h-36l-110 -323h146z" />
    <glyph glyph-name="ccedilla" unicode="&#xe7;" horiz-adv-x="684" 
d="M626 93q-78 -73 -184 -89l-6 -43q32 -7 51.5 -32.5t17.5 -57.5q-1 -23 -13.5 -41.5t-32.5 -29.5t-43 -10h-24q-7 0 -13 3.5t-9.5 9.5t-3.5 14v22q0 11 7.5 19t18.5 8h27q4 0 7.5 3t3.5 7t-3.5 7.5t-7.5 3.5h-39q-12 0 -20 9t-6 21l11 85q-112 9 -197 82.5t-109.5 183
t20.5 212.5t142 159t208.5 44t194.5 -88q9 -8 9 -20t-9 -21l-59 -53q-7 -7 -17 -7t-18 6q-63 55 -147 51.5t-142 -64.5t-58 -145t58.5 -144.5t142.5 -63.5t147 52q8 7 18 7t17 -7l60 -53q8 -8 8.5 -20t-8.5 -20z" />
    <glyph glyph-name="egrave" unicode="&#xe8;" horiz-adv-x="537" 
d="M461 552h-278v-143h192q11 0 19 -7.5t8 -19.5v-79q0 -11 -8 -19t-19 -8h-192v-142h278q11 0 18.5 -8t7.5 -19v-79q0 -12 -7.5 -19.5t-18.5 -7.5h-384q-11 0 -19 7.5t-8 19.5v630q0 11 8 19t19 8h384q11 0 18.5 -8t7.5 -19v-79q0 -11 -7.5 -19t-18.5 -8zM300 748l-93 79
q-8 7 -9 16.5t5.5 17t16.5 8.5t17 -6l94 -79q7 -7 8 -16.5t-5.5 -17t-16 -8.5t-17.5 6z" />
    <glyph glyph-name="eacute" unicode="&#xe9;" horiz-adv-x="537" 
d="M461 552h-278v-143h192q11 0 19 -7.5t8 -19.5v-79q0 -11 -8 -19t-19 -8h-192v-142h278q11 0 18.5 -8t7.5 -19v-79q0 -12 -7.5 -19.5t-18.5 -7.5h-384q-11 0 -19 7.5t-8 19.5v630q0 11 8 19t19 8h384q11 0 18.5 -8t7.5 -19v-79q0 -11 -7.5 -19t-18.5 -8zM237 748
q-7 -7 -17 -6t-16.5 8.5t-5.5 17t9 16.5l93 79q8 7 17.5 6t16 -8.5t5.5 -17t-8 -16.5z" />
    <glyph glyph-name="ecircumflex" unicode="&#xea;" horiz-adv-x="537" 
d="M461 552h-278v-143h192q11 0 19 -7.5t8 -19.5v-79q0 -11 -8 -19t-19 -8h-192v-142h278q11 0 18.5 -8t7.5 -19v-79q0 -12 -7.5 -19.5t-18.5 -7.5h-384q-11 0 -19 7.5t-8 19.5v630q0 11 8 19t19 8h384q11 0 18.5 -8t7.5 -19v-79q0 -11 -7.5 -19t-18.5 -8zM212 751
q-7 -7 -16.5 -7t-16.5 7t-7 17t6 17l72 72q7 7 17 7t17 -6l75 -73q7 -7 7 -17t-7 -17t-16.5 -7t-16.5 7l-59 56z" />
    <glyph glyph-name="edieresis" unicode="&#xeb;" horiz-adv-x="537" 
d="M461 552h-278v-143h192q11 0 19 -7.5t8 -19.5v-79q0 -11 -8 -19t-19 -8h-192v-142h278q11 0 18.5 -8t7.5 -19v-79q0 -12 -7.5 -19.5t-18.5 -7.5h-384q-11 0 -19 7.5t-8 19.5v630q0 11 8 19t19 8h384q11 0 18.5 -8t7.5 -19v-79q0 -11 -7.5 -19t-18.5 -8zM242 767
q-8 -9 -20.5 -9t-21.5 9t-9 21.5t9 21t21.5 8.5t21 -8.5t8.5 -21t-9 -21.5zM338 767q-9 -9 -21.5 -9t-21.5 9t-9 21.5t9 21t21.5 8.5t21.5 -8.5t9 -21t-9 -21.5z" />
    <glyph glyph-name="igrave" unicode="&#xec;" horiz-adv-x="241" 
d="M160 0h-79q-11 0 -19 8t-8 19v631q0 11 8 19t19 8h79q11 0 19 -8t8 -19v-631q0 -11 -8 -19t-19 -8zM152 748l-94 79q-7 7 -8 16.5t5.5 17t16.5 8.5t17 -6l94 -79q7 -7 8 -16.5t-5.5 -17t-16 -8.5t-17.5 6z" />
    <glyph glyph-name="iacute" unicode="&#xed;" horiz-adv-x="242" 
d="M161 0h-80q-11 0 -19 8t-8 19v631q0 11 8 19t19 8h80q11 0 19 -8t8 -19v-631q0 -7 -4 -13t-10 -10t-13 -4zM59 784l93 79q8 7 18 6t16 -8.5t5.5 -17t-8.5 -16.5l-93 -79q-8 -7 -18 -6t-16 8.5t-5.5 17t8.5 16.5z" />
    <glyph glyph-name="icircumflex" unicode="&#xee;" horiz-adv-x="294" 
d="M187 0h-79q-12 0 -19.5 8t-7.5 19v631q0 11 7.5 19t19.5 8h79q11 0 19 -8t8 -19v-631q0 -7 -3.5 -13t-10 -10t-13.5 -4zM237 785q7 -7 7.5 -17t-6.5 -17t-17 -7t-17 7l-58 56l-55 -56q-7 -7 -17 -7t-17 7t-7 17t7 17l72 72q6 7 16 7t17 -6z" />
    <glyph glyph-name="idieresis" unicode="&#xef;" horiz-adv-x="256" 
d="M167 0h-79q-11 0 -19 8t-8 19v631q0 11 8 19t19 8h79q12 0 19.5 -8t7.5 -19v-631q0 -7 -3.5 -13t-9.5 -10t-14 -4zM80 818q8 0 15 -4t11 -11t4 -15q0 -12 -8.5 -21t-21 -9t-21.5 9t-9 21.5t9 21t21 8.5zM197 767q-9 -9 -21.5 -9t-21.5 9t-9 21.5t9 21t21.5 8.5t21.5 -8.5
t9 -21t-9 -21.5z" />
    <glyph glyph-name="eth" unicode="&#xf0;" horiz-adv-x="757" 
d="M360 685q91 0 170.5 -44t127 -121t49.5 -168q2 -69 -23.5 -133t-73.5 -113.5t-111.5 -76t-132.5 -26.5h-216q-11 0 -19 7.5t-8 19.5v275h-46q-11 0 -19 8t-8 19v22q0 11 8 19t19 8h46v277q0 7 3.5 13.5t9.5 10t14 3.5h210zM574 336q3 88 -58.5 152t-149.5 64h-110v-171
h52q11 0 19 -8t8 -19v-22q0 -11 -8 -19t-19 -8h-52v-169h105q85 0 147.5 58t65.5 142z" />
    <glyph glyph-name="ntilde" unicode="&#xf1;" horiz-adv-x="587" 
d="M510 685q12 0 19.5 -8t7.5 -19v-631q0 -6 -2 -11t-5.5 -8.5t-8.5 -5.5t-11 -2h-97q-17 0 -24 14l-206 398v-385q0 -7 -3.5 -13t-9.5 -10t-14 -4h-79q-11 0 -19 8t-8 19v631q0 12 8 19.5t19 7.5h98q16 0 24 -14l205 -397v384q0 11 8 19t19 8h79zM214 783q-14 -4 -24 5.5
t-6 22.5q5 18 19 32q12 11 28 15l1 1q27 7 52 -6.5t32 -40.5q3 -8 10.5 -12t15.5 -2h2q10 3 14 14q3 13 16 16q13 4 23 -5.5t6 -22.5q-5 -19 -18 -32q-12 -11 -28 -15l-2 -1q-27 -8 -52 6t-32 41q-3 8 -10.5 12t-15.5 2h-1q-11 -3 -14 -14q-4 -13 -16 -16z" />
    <glyph glyph-name="ograve" unicode="&#xf2;" horiz-adv-x="785" 
d="M220 639q79 46 172 46t172 -46t125 -125t46 -172t-46 -171.5t-125 -124.5t-172 -46t-171.5 46t-124.5 124.5t-46 171.5t46 172t124 125zM244 194q62 -61 148.5 -61t147.5 61.5t61.5 148t-61 148t-148 61.5t-148 -61.5t-61.5 -148t61 -148.5zM424 748l-94 79q-7 7 -8 16.5
t5.5 17t16 8.5t17.5 -6l94 -79q7 -7 8 -16.5t-5.5 -17t-16.5 -8.5t-17 6z" />
    <glyph glyph-name="oacute" unicode="&#xf3;" horiz-adv-x="785" 
d="M220 639q79 46 172 46t172 -46t125 -125t46 -172t-46 -171.5t-125 -124.5t-172 -46t-171.5 46t-124.5 124.5t-46 171.5t46 172t124 125zM244 194q62 -61 148.5 -61t147.5 61.5t61.5 148t-61 148t-148 61.5t-148 -61.5t-61.5 -148t61 -148.5zM330 784l94 79q7 7 17 6
t16.5 -8.5t5.5 -17.5t-8 -16l-94 -79q-8 -7 -17.5 -6t-16 8.5t-5.5 17t8 16.5z" />
    <glyph glyph-name="ocircumflex" unicode="&#xf4;" horiz-adv-x="785" 
d="M220 639q79 46 172 46t172 -46t125 -125t46 -172t-46 -171.5t-125 -124.5t-172 -46t-171.5 46t-124.5 124.5t-46 171.5t46 172t124 125zM244 194q62 -61 148.5 -61t147.5 61.5t61.5 148t-61 148t-148 61.5t-148 -61.5t-61.5 -148t61 -148.5zM336 751q-7 -7 -17 -7t-17 7
t-7 17t7 17l72 72q7 7 16.5 7t16.5 -6l75 -73q7 -7 7.5 -17t-6.5 -17t-17 -7t-17 7l-58 56z" />
    <glyph glyph-name="otilde" unicode="&#xf5;" horiz-adv-x="785" 
d="M220 639q79 46 172 46t172 -46t125 -125t46 -172t-46 -171.5t-125 -124.5t-172 -46t-171.5 46t-124.5 124.5t-46 171.5t46 172t124 125zM244 194q62 -61 148.5 -61t147.5 61.5t61.5 148t-61 148t-148 61.5t-148 -61.5t-61.5 -148t61 -148.5zM312 783q-13 -4 -23 6t-6 23
q11 36 46 46l2 1q27 7 51.5 -6.5t32.5 -40.5q3 -8 10 -12t16 -2h1q8 3 13 10q1 2 1 4q4 13 16 16h1q13 4 23 -5.5t6 -22.5q-5 -18 -19 -32q-12 -11 -28 -15l-1 -1q-10 -2 -19 -3q-11 1 -22 4.5t-19.5 10t-15 15.5t-9.5 20q-2 8 -9.5 12t-15.5 2h-2q-10 -4 -13 -14
q-4 -13 -17 -16z" />
    <glyph glyph-name="odieresis" unicode="&#xf6;" horiz-adv-x="785" 
d="M220 639q79 46 172 46t172 -46t125 -125t46 -172t-46 -171.5t-125 -124.5t-172 -46t-171.5 46t-124.5 124.5t-46 171.5t46 172t124 125zM244 194q62 -61 148.5 -61t147.5 61.5t61.5 148t-61 148t-148 61.5t-148 -61.5t-61.5 -148t61 -148.5zM345 758q-9 0 -15.5 4t-11 11
t-4.5 15q0 13 9 21.5t21.5 8.5t21.5 -8.5t9 -21t-9 -21.5t-21 -9zM461 767q-8 -9 -20.5 -9t-21.5 9t-9 21.5t9 21t21.5 8.5t21 -8.5t8.5 -21t-9 -21.5z" />
    <glyph glyph-name="divide" unicode="&#xf7;" horiz-adv-x="442" 
d="M221 97q-18 0 -33 9t-24 24t-9 33q0 27 19.5 46.5t46.5 19.5t46.5 -19.5t19.5 -46.5q0 -13 -5 -25.5t-14 -21t-21 -14t-26 -5.5zM221 449q-18 0 -33 9t-24 24t-9 33q0 27 19.5 46.5t46.5 19.5t46.5 -19.5t19.5 -46.5t-19.5 -46.5t-46.5 -19.5zM365 276h-288
q-11 0 -19 7.5t-8 19.5v79q0 11 8 19t19 8h288q12 0 19.5 -8t7.5 -19v-79q0 -12 -7.5 -19.5t-19.5 -7.5z" />
    <glyph glyph-name="oslash" unicode="&#xf8;" horiz-adv-x="785" 
d="M643 575q89 -96 91.5 -226.5t-82.5 -229.5t-215 -116t-238 57l-55 -64q-7 -9 -18 -10t-20 7l-17 14q-8 7 -9 18.5t6 19.5l56 64q-89 96 -91.5 227t82.5 230t215 116t238 -57l55 64q7 8 18 9t20 -6l17 -15q8 -7 9 -18t-7 -20zM183 342q0 -73 47 -131l268 312
q-49 28 -105 28.5t-104.5 -27.5t-77 -76.5t-28.5 -105.5zM392 133q61 0 112 32t77 86.5t19 114.5t-44 107l-269 -311q49 -29 105 -29z" />
    <glyph glyph-name="ugrave" unicode="&#xf9;" horiz-adv-x="595" 
d="M518 685q11 0 19 -8t8 -19v-410q-1 -105 -76 -178t-179 -70q-101 3 -170.5 77t-69.5 176v405q0 11 8 19t19 8h79q11 0 19 -8t8 -19v-410q0 -51 37.5 -85t87.5 -29q45 5 74.5 38.5t28.5 78.5v407q0 11 8 19t19 8h80zM329 748l-94 79q-7 7 -8 16.5t5.5 17t16 8.5t17.5 -6
l94 -79q7 -7 8 -16.5t-5.5 -17t-16.5 -8.5t-17 6z" />
    <glyph glyph-name="uacute" unicode="&#xfa;" horiz-adv-x="595" 
d="M518 685q11 0 19 -8t8 -19v-410q-1 -105 -76 -178t-179 -70q-101 3 -170.5 77t-69.5 176v405q0 11 8 19t19 8h79q11 0 19 -8t8 -19v-410q0 -51 37.5 -85t87.5 -29q45 5 74.5 38.5t28.5 78.5v407q0 11 8 19t19 8h80zM235 784l94 79q7 7 17 6t16.5 -8.5t5.5 -17.5t-9 -16
l-93 -79q-8 -7 -17.5 -6t-16 8.5t-6 17t8.5 16.5z" />
    <glyph glyph-name="ucircumflex" unicode="&#xfb;" horiz-adv-x="595" 
d="M518 685q11 0 19 -8t8 -19v-410q-1 -105 -76 -178t-179 -70q-101 3 -170.5 77t-69.5 176v405q0 11 8 19t19 8h79q11 0 19 -8t8 -19v-410q0 -51 37.5 -85t87.5 -29q45 5 74.5 38.5t28.5 78.5v407q0 11 8 19t19 8h80zM241 751q-7 -7 -17 -7t-17 7t-7 17t7 17l72 72
q7 7 16.5 7t16.5 -6l75 -73q7 -7 7.5 -17t-6.5 -17t-17 -7t-17 7l-58 56z" />
    <glyph glyph-name="udieresis" unicode="&#xfc;" horiz-adv-x="595" 
d="M518 685q11 0 19 -8t8 -19v-410q-1 -105 -76 -178t-179 -70q-101 3 -170.5 77t-69.5 176v405q0 11 8 19t19 8h79q11 0 19 -8t8 -19v-410q0 -51 37.5 -85t87.5 -29q45 5 74.5 38.5t28.5 78.5v407q0 11 8 19t19 8h80zM271 767q-9 -9 -21.5 -9t-21.5 9t-9 21.5t9 21
t21.5 8.5t21.5 -8.5t9 -21t-9 -21.5zM366 767q-9 -9 -21.5 -9t-21 9t-8.5 21.5t8.5 21t21 8.5t21.5 -8.5t9 -21t-9 -21.5z" />
    <glyph glyph-name="yacute" unicode="&#xfd;" horiz-adv-x="626" 
d="M549 685q16 0 23.5 -13.5t-0.5 -26.5l-193 -321v-297q0 -11 -7.5 -19t-18.5 -8h-80q-11 0 -19 8t-8 19v297l-192 321q-8 13 -0.5 26.5t23.5 13.5h92q16 0 23 -13l121 -200l120 200q8 13 23 13h93zM251 784l93 79q8 7 17.5 6t16 -8.5t6 -17t-8.5 -16.5l-94 -79
q-7 -7 -17 -6t-16 8.5t-5.5 17t8.5 16.5z" />
    <glyph glyph-name="thorn" unicode="&#xfe;" horiz-adv-x="575" 
d="M282 583q101 0 173 -71.5t70 -170.5q-1 -97 -70.5 -165t-166.5 -69h-105v-80q0 -7 -3.5 -13.5t-9.5 -10t-14 -3.5h-79q-11 0 -19 8t-8 19v630q0 12 8 19.5t19 7.5h79q11 0 19 -7.5t8 -19.5v-74h99zM183 241h105q21 0 40.5 8t33.5 22t22 33.5t8 40.5q0 44 -30.5 74.5
t-73.5 30.5h-105v-209z" />
    <glyph glyph-name="Ldot" unicode="&#x13f;" horiz-adv-x="547" 
d="M470 133q11 0 19 -8t8 -19v-79q0 -11 -8 -19t-19 -8h-393q-11 0 -19 8t-8 19v631q0 11 8 18.5t19 7.5h79q11 0 19 -7.5t8 -18.5v-525h287zM294 278q-18 0 -33 9t-24 24t-9 33q0 27 19.5 46.5t46.5 19.5q18 0 33 -9t24 -24t9 -33q0 -27 -19.5 -46.5t-46.5 -19.5z" />
    <glyph glyph-name="ldot" unicode="&#x140;" horiz-adv-x="547" 
d="M470 133q11 0 19 -8t8 -19v-79q0 -11 -8 -19t-19 -8h-393q-11 0 -19 8t-8 19v630q0 12 8 19.5t19 7.5h79q11 0 19 -7.5t8 -19.5v-524h287zM294 278q-18 0 -33 9t-24 24t-9 33q0 27 19.5 46.5t46.5 19.5q18 0 33 -9t24 -24t9 -33q0 -27 -19.5 -46.5t-46.5 -19.5z" />
    <glyph glyph-name="Nacute" unicode="&#x143;" horiz-adv-x="578" 
d="M501 684q11 0 19 -7.5t8 -19.5v-630q0 -11 -8 -19t-19 -8h-98q-16 0 -24 15l-196 389v-377q0 -7 -3.5 -13.5t-9.5 -10t-14 -3.5h-79q-11 0 -19 8t-8 19v631q0 12 8 19.5t19 7.5h97q17 0 24 -14l197 -391v378q0 11 8 18.5t19 7.5h79zM227 784l93 79q8 7 18 6t16 -8.5
t5.5 -17t-8.5 -16.5l-94 -79q-7 -7 -17 -6t-16 8.5t-5.5 17t8.5 16.5z" />
    <glyph glyph-name="nacute" unicode="&#x144;" horiz-adv-x="578" 
d="M501 684q11 0 19 -7.5t8 -19.5v-630q0 -11 -8 -19t-19 -8h-98q-16 0 -24 15l-196 389v-377q0 -7 -3.5 -13.5t-9.5 -10t-14 -3.5h-79q-11 0 -19 8t-8 19v631q0 12 8 19.5t19 7.5h97q17 0 24 -14l197 -391v377q0 12 8 19.5t19 7.5h79zM227 784l93 79q8 7 18 6t16 -8.5
t5.5 -17t-8.5 -16.5l-94 -79q-7 -7 -17 -6t-16 8.5t-5.5 17t8.5 16.5z" />
    <glyph glyph-name="Ncaron" unicode="&#x147;" horiz-adv-x="587" 
d="M510 685q12 0 19.5 -8t7.5 -19v-631q0 -11 -7.5 -19t-19.5 -8h-97q-17 0 -24 15l-206 397v-385q0 -7 -3.5 -13t-9.5 -9.5t-14 -3.5h-79q-11 0 -19 7.5t-8 18.5v631q0 12 8 19.5t19 7.5h98q16 0 24 -14l205 -397v384q0 11 8 19t19 8h79zM279 734l-75 73q-7 7 -7.5 17
t6.5 17t17 7t17 -7l58 -56l55 55q7 7 17 7.5t17 -6.5t7 -17t-7 -17l-72 -73q-7 -7 -16.5 -7t-16.5 7z" />
    <glyph glyph-name="ncaron" unicode="&#x148;" horiz-adv-x="587" 
d="M510 685q12 0 19.5 -8t7.5 -19v-631q0 -11 -7.5 -19t-19.5 -8h-97q-17 0 -24 14l-206 398v-385q0 -7 -3.5 -13t-9.5 -10t-14 -4h-79q-11 0 -19 8t-8 19v631q0 12 8 19.5t19 7.5h98q16 0 24 -14l205 -397v384q0 11 8 19t19 8h79zM279 734l-75 73q-7 7 -7.5 16.5t6.5 17
t17 7.5t17 -7l58 -56l55 55q7 7 17 7t17 -6.5t7 -16.5t-7 -17l-72 -73q-7 -7 -16.5 -7t-16.5 7z" />
    <glyph glyph-name="OE" unicode="&#x152;" horiz-adv-x="875" 
d="M798 552h-266v-143h183q11 0 19 -8t8 -19v-79q0 -6 -2 -11t-6 -8.5t-9 -5.5t-10 -2h-183v-143h266q11 0 19 -8t8 -19v-79q0 -12 -8 -19.5t-19 -7.5l-407 -1q-93 1 -171.5 47t-124 124.5t-45.5 171.5t45.5 171.5t124 124.5t171.5 47h407q11 0 19 -8t8 -19v-79
q0 -11 -8 -19t-19 -8zM399 132v420h-8q-86 -1 -147 -62.5t-61 -147.5t61 -147.5t147 -62.5h8z" />
    <glyph glyph-name="oe" unicode="&#x153;" horiz-adv-x="875" 
d="M798 552h-266v-143h183q11 0 19 -8t8 -19v-79q0 -6 -2 -11t-6 -8.5t-9 -5.5t-10 -2h-183v-143h266q11 0 19 -8t8 -19v-79q0 -12 -8 -19.5t-19 -7.5l-407 -1q-93 1 -171.5 47t-124 124.5t-45.5 171.5t45.5 171.5t124 124.5t171.5 47h407q11 0 19 -8t8 -19v-79
q0 -11 -8 -19t-19 -8zM399 132v420h-8q-57 -1 -105 -29t-75.5 -76t-27.5 -105q0 -86 61 -147.5t147 -62.5h8z" />
    <glyph glyph-name="Racute" unicode="&#x154;" horiz-adv-x="587" 
d="M384 213l128 -170q10 -13 2.5 -28t-24.5 -15h-99q-13 0 -22 11l-139 184h-47v-168q0 -7 -3.5 -13.5t-9.5 -10t-14 -3.5h-79q-11 0 -19 8t-8 19v631q0 12 8 19.5t19 7.5h210q100 0 173.5 -68t76.5 -167q2 -51 -16.5 -98.5t-54 -83.5t-82.5 -55zM292 329q47 0 79.5 32.5
t32.5 79t-32.5 79t-79.5 32.5h-109v-223h109zM266 748q-8 -7 -17.5 -6t-16 8.5t-6 17t8.5 16.5l94 79q7 7 17 6t16 -8.5t5.5 -17t-8.5 -16.5z" />
    <glyph glyph-name="racute" unicode="&#x155;" horiz-adv-x="587" 
d="M384 213l128 -170q10 -13 2.5 -28t-24.5 -15h-99q-13 0 -22 11l-139 184h-47v-168q0 -7 -3.5 -13.5t-9.5 -10t-14 -3.5h-79q-11 0 -19 8t-8 19v631q0 11 8 19t19 8h210q100 0 173.5 -68t76.5 -167q3 -78 -39 -143t-114 -94zM292 329q19 0 36 5.5t30.5 16t24 24t16 30.5
t5.5 35q0 31 -15 56.5t-40.5 40.5t-56.5 15h-109v-223h109zM266 748q-8 -7 -17.5 -6t-16 8.5t-6 17t8.5 16.5l94 79q7 7 17 6t16 -8.5t5.5 -17t-8.5 -16.5z" />
    <glyph glyph-name="Tcaron" unicode="&#x164;" horiz-adv-x="614" 
d="M537 684q11 0 19 -7.5t8 -19.5v-79q0 -7 -4 -13t-10 -10t-13 -4h-164v-524q0 -11 -7.5 -19t-19.5 -8h-79q-11 0 -19 8t-8 19v524h-163q-11 0 -19 8t-8 19v79q0 12 8 19.5t19 7.5h460zM292 734l-75 73q-7 7 -7.5 17t6.5 17t17 7t17 -7l58 -56l55 55q7 7 17 7.5t17 -6.5
t7 -17t-7 -17l-72 -73q-6 -7 -16 -7t-17 7z" />
    <glyph glyph-name="tcaron" unicode="&#x165;" horiz-adv-x="614" 
d="M537 684q11 0 19 -7.5t8 -19.5v-79q0 -7 -4 -13.5t-10 -10t-13 -3.5h-164v-524q0 -11 -7.5 -19t-19.5 -8h-79q-11 0 -19 8t-8 19v524h-163q-11 0 -19 8t-8 19v79q0 12 8 19.5t19 7.5h460zM292 734l-75 73q-7 7 -7.5 16.5t6.5 17t17 7.5t17 -7l58 -56l55 55q7 7 17 7
t17 -6.5t7 -16.5t-7 -17l-72 -73q-6 -7 -16 -7t-17 7z" />
    <glyph glyph-name="Tbar" unicode="&#x166;" horiz-adv-x="614" 
d="M537 684q11 0 19 -7.5t8 -19.5v-79q0 -7 -4 -13t-10 -10t-13 -4h-164v-170h50q11 0 19 -8t8 -19v-22q0 -11 -8 -19t-19 -8h-50v-278q0 -11 -7.5 -19t-19.5 -8h-79q-11 0 -19 8t-8 19v278h-49q-11 0 -19 8t-8 19v22q0 7 3.5 13.5t10 10t13.5 3.5h49v170h-163q-11 0 -19 8
t-8 19v79q0 12 8 19.5t19 7.5h460z" />
    <glyph glyph-name="tbar" unicode="&#x167;" horiz-adv-x="614" 
d="M537 684q11 0 19 -7.5t8 -19.5v-79q0 -7 -4 -13.5t-10 -10t-13 -3.5h-164v-170h50q11 0 19 -8t8 -19v-22q0 -11 -8 -19t-19 -8h-50v-278q0 -11 -7.5 -19t-19.5 -8h-79q-11 0 -19 8t-8 19v278h-49q-11 0 -19 8t-8 19v22q0 7 3.5 13.5t10 10t13.5 3.5h49v170h-163
q-11 0 -19 8t-8 19v79q0 12 8 19.5t19 7.5h460z" />
    <glyph glyph-name="Omegagreek" unicode="&#x3a9;" horiz-adv-x="750" 
d="M673 241q11 0 19 -8t8 -19v-79q0 -12 -8 -19.5t-19 -7.5h-212q-10 0 -17.5 6t-9.5 16l-16 86q-4 18 12 28q25 15 39 40t14 54q0 44 -31.5 76t-76.5 32.5t-77 -31t-33 -76.5q0 -19 6 -37t18.5 -33t28.5 -25q16 -9 13 -28l-17 -86q-2 -10 -9.5 -16t-16.5 -6h-211
q-11 0 -19 7.5t-8 19.5v79q0 11 8 19t19 8h75q-33 76 -12.5 156.5t86 131t148.5 50.5t148.5 -50.5t86 -131t-12.5 -156.5h77z" />
    <glyph glyph-name="quoteright" unicode="&#x2019;" horiz-adv-x="227" 
d="M150 686q13 0 21 -10t5 -23l-36 -164q-2 -10 -9.5 -16t-16.5 -6h-37q-11 0 -19 8t-8 19v165q0 11 8 19t19 8h73z" />
    <glyph glyph-name="ellipsis" unicode="&#x2026;" horiz-adv-x="574" 
d="M162 21q-19 -19 -46 -19t-46.5 19.5t-19.5 46.5t19.5 46.5t46.5 19.5t46.5 -19.5t19.5 -46.5t-20 -47zM287 134q18 0 33 -9t24 -24t9 -33q0 -27 -19.5 -46.5t-46.5 -19.5t-46.5 19.5t-19.5 46.5t19.5 46.5t46.5 19.5zM505 21q-19 -19 -46.5 -19t-46.5 19.5t-19 46.5
t19 46.5t46.5 19.5t46.5 -19.5t19 -46.5t-19 -47z" />
    <glyph glyph-name="perthousand" unicode="&#x2030;" horiz-adv-x="871" 
d="M269 556q0 -45 -32 -77t-78 -32q-29 0 -54.5 14.5t-40 39.5t-14.5 55v19q0 45 32 77.5t77 32.5q30 0 55 -15t40 -40t15 -55v-19zM126 556q0 -14 10 -23.5t23 -9.5q7 0 13 2.5t10.5 7t7.5 10.5t3 13v19q0 7 -3 13t-7.5 10.5t-10.5 7t-12.5 2.5t-13 -2.5t-11 -7t-7 -10.5
t-2.5 -13v-19zM454 237q30 0 55 -14.5t40 -39.5t15 -55v-19q0 -45 -32 -77.5t-77.5 -32.5t-77.5 32.5t-32 77.5v19q0 45 32 77t77 32zM488 109v19q0 14 -10 23.5t-23.5 9.5t-23.5 -9.5t-10 -23.5v-19q0 -9 4.5 -17t12 -12t16.5 -4q14 0 24 9.5t10 23.5zM821 128v-19
q0 -45 -32 -77.5t-77.5 -32.5t-77.5 32.5t-32 77.5v19q0 45 32 77t77.5 32t77.5 -32t32 -77zM745 109v19q0 14 -10 23.5t-24 9.5t-23.5 -9.5t-9.5 -23.5v-19q0 -9 4.5 -17t12 -12t16.5 -4q14 0 24 9.5t10 23.5zM440 685q13 0 21.5 -10.5t4.5 -23.5l-190 -632q-6 -19 -26 -19
h-83q-13 0 -21.5 11t-4.5 24l190 631q6 19 26 19h83z" />
    <glyph glyph-name="lira" unicode="&#x20a4;" horiz-adv-x="577" 
d="M500 134q11 0 19 -8t8 -19v-80q0 -11 -8 -19t-19 -8h-423q-11 0 -19 8t-8 19v80q0 11 8 19t19 8h41q16 -1 27.5 9.5t13.5 26.5v75h-82q-11 0 -19 8t-8 19v23q0 11 8 19t19 8h82v42h-82q-11 0 -19 8t-8 19v22q0 12 8 19.5t19 7.5h82v21q0 90 64 156.5t154 66.5
q72 0 130 -44q9 -7 10 -19.5t-8 -20.5l-57 -57q-15 -15 -33 -4q-21 12 -45 12q-35 -2 -58.5 -27.5t-23.5 -59.5v-24h77q11 0 19 -7.5t8 -19.5v-22q0 -11 -8 -19t-19 -8h-77v-42h77q11 0 19 -8t8 -19v-23q0 -11 -8 -19t-19 -8h-77v-75q0 -18 -4 -36h212z" />
    <glyph glyph-name="Euro" unicode="&#x20ac;" horiz-adv-x="780" 
d="M721 132q9 -8 9 -19.5t-8 -19.5q-65 -61 -151.5 -82.5t-172.5 1.5t-149.5 85.5t-88.5 147.5h-83q-11 0 -19 8t-8 19v23q0 11 8 19t19 8h69q-1 11 -1 20q0 10 1 22h-69q-11 0 -19 8t-8 19v22q0 12 8 19.5t19 7.5h83q25 85 88.5 147t148.5 85.5t171 2.5t151 -81
q9 -8 9.5 -20t-8.5 -20l-59 -54q-8 -7 -18 -7t-18 7q-36 31 -82 44t-93 4t-85.5 -37t-61.5 -71h66q11 0 19 -7.5t8 -19.5v-22q0 -11 -8 -19t-19 -8h-89q-1 -11 -1 -22q0 -10 1 -20h89q11 0 19 -8t8 -19v-23q0 -11 -8 -19t-19 -8h-67q15 -28 37.5 -50.5t50.5 -37.5t60 -20
q47 -9 93.5 4t82.5 45q8 6 18 6t18 -7z" />
    <glyph glyph-name="trademark" unicode="&#x2122;" horiz-adv-x="584" 
d="M248 685q11 0 19 -7.5t8 -19.5v-22q0 -11 -8 -19t-19 -8h-47v-156q0 -12 -8 -19.5t-19 -7.5h-23q-11 0 -19 7.5t-8 19.5v156h-47q-11 0 -19 8t-8 19v22q0 12 8 19.5t19 7.5h171zM507 685q11 0 19 -7.5t8 -19.5v-205q0 -12 -8 -19.5t-19 -7.5h-22q-12 0 -19.5 7.5
t-7.5 19.5v57l-23 -37q-8 -13 -23 -13t-23 13l-25 39v-59q0 -12 -8 -19.5t-19 -7.5h-22q-11 0 -19 7.5t-8 19.5v205q0 12 8 19.5t19 7.5h14q15 0 23 -12l59 -94l59 94q8 12 23 12h14z" />
    </font>
</defs>
</svg>
