<?xml version="1.0" standalone="no"?>
<!DOCTYPE svg PUBLIC "-//W3C//DTD SVG 1.1//EN" "http://www.w3.org/Graphics/SVG/1.1/DTD/svg11.dtd" >
<svg xmlns="http://www.w3.org/2000/svg" xmlns:xlink="http://www.w3.org/1999/xlink" version="1.1">
<metadata>
Created by FontForge 20170731 at Thu Apr 25 23:37:19 2019
 By Aleksey,,,
Factory738
</metadata>
<defs>
<font id="LeoSemiRoundedLight" horiz-adv-x="608" >
  <font-face 
    font-family="Leo SemiRounded Light"
    font-weight="400"
    font-stretch="normal"
    units-per-em="1000"
    panose-1="0 0 0 0 0 0 0 0 0 0"
    ascent="800"
    descent="-200"
    x-height="684"
    cap-height="770"
    bbox="48.95 -201 900.286 874.556"
    underline-thickness="50"
    underline-position="-200"
    unicode-range="U+000A-2122"
  />
<missing-glyph horiz-adv-x="527" 
d="M50 700h427v-700h-427v700zM78 680l185 -309l186 309h-371zM251 350l-180 300v-601zM264 329l-185 -308h370zM276 350l181 -303v605z" />
    <glyph glyph-name=".notdef" horiz-adv-x="527" 
d="M50 700h427v-700h-427v700zM78 680l185 -309l186 309h-371zM251 350l-180 300v-601zM264 329l-185 -308h370zM276 350l181 -303v605z" />
    <glyph glyph-name="uni0000" horiz-adv-x="0" 
 />
    <glyph glyph-name="uni0000" horiz-adv-x="0" 
 />
    <glyph glyph-name="nonmarkingreturn" horiz-adv-x="333" 
 />
    <glyph glyph-name="controlLF" unicode="&#xa;" horiz-adv-x="0" 
 />
    <glyph glyph-name="controlCR" unicode="&#xd;" horiz-adv-x="0" 
 />
    <glyph glyph-name="space" unicode=" " horiz-adv-x="262" 
 />
    <glyph glyph-name="exclam" unicode="!" horiz-adv-x="186" 
d="M106 168h-30q-6 0 -10 4t-4 10v490q0 6 4 10t10 4h30q5 0 9 -4t4 -10v-490q0 -6 -4 -10t-9 -4zM123 13q-13 -12 -30.5 -12t-30 12.5t-12.5 30t12.5 30t30 12.5t30.5 -12.5t13 -30t-13 -30.5z" />
    <glyph glyph-name="quotedbl" unicode="&#x22;" horiz-adv-x="259" 
d="M97 686q4 0 6.5 -2.5t2.5 -5.5v-203q0 -8 -9 -8h-4q-6 0 -8 7l-35 203q-1 3 1.5 6t6.5 3h39zM201 686q3 0 5.5 -3t2.5 -6l-36 -203q-1 -7 -8 -7h-4q-8 0 -8 8v203q0 8 8 8h40z" />
    <glyph glyph-name="quotedbl" unicode="&#x201d;" horiz-adv-x="259" 
d="M97 686q4 0 6.5 -2.5t2.5 -5.5v-203q0 -8 -9 -8h-4q-6 0 -8 7l-35 203q-1 3 1.5 6t6.5 3h39zM201 686q3 0 5.5 -3t2.5 -6l-36 -203q-1 -7 -8 -7h-4q-8 0 -8 8v203q0 8 8 8h40z" />
    <glyph glyph-name="quotedbl" unicode="&#x201c;" horiz-adv-x="259" 
d="M97 686q4 0 6.5 -2.5t2.5 -5.5v-203q0 -8 -9 -8h-4q-6 0 -8 7l-35 203q-1 3 1.5 6t6.5 3h39zM201 686q3 0 5.5 -3t2.5 -6l-36 -203q-1 -7 -8 -7h-4q-8 0 -8 8v203q0 8 8 8h40z" />
    <glyph glyph-name="numbersign" unicode="#" horiz-adv-x="618" 
d="M555 401h-129v-119h129q5 0 9 -4t4 -10v-30q0 -5 -4 -9t-9 -4h-129v-126q0 -6 -4 -10t-10 -4h-30q-6 0 -9.5 4t-3.5 10v126h-117v-126q0 -6 -4 -10t-9 -4h-31q-5 0 -9 4t-4 10v126h-132q-5 0 -9 4t-4 9v30q0 6 4 10t9 4h132v119h-132q-5 0 -9 4t-4 9v30q0 6 4 10t9 4h132
v126q0 5 4 9t10 4h30q5 0 9 -4t4 -9v-126h117v126q0 5 3.5 9t9.5 4h30q6 0 10 -4t4 -9v-126h129q5 0 9 -4t4 -10v-30q0 -5 -4 -9t-9 -4zM369 282v119h-117v-119h117z" />
    <glyph glyph-name="dollar" unicode="$" horiz-adv-x="555" 
d="M365 347q41 -12 73 -37.5t49.5 -59t17.5 -70.5v-2q-1 -68 -50 -115q-63 -59 -149 -62v-71q0 -6 -4 -9.5t-10 -3.5h-30q-5 0 -9 3.5t-4 9.5v71q-79 4 -135.5 50.5t-62.5 112.5q-1 6 3 10t10 4h30q12 0 14 -11q5 -46 49 -77.5t103 -31.5h34q70 -2 121 46q32 30 33 74v2
q0 24 -12.5 46.5t-35 40t-52.5 25.5l-158 48q-41 12 -73 37t-49.5 59t-17.5 71q0 71 58 122t141 55v73q0 5 4 9t9 4h30q6 0 10 -4t4 -9v-73q78 -3 134.5 -49.5t63.5 -112.5q0 -6 -4 -10.5t-10 -4.5h-30q-12 0 -13 12q-6 46 -49.5 77t-103.5 31h-34q-63 0 -108 -35t-45 -85
q0 -37 27.5 -68t71.5 -45z" />
    <glyph glyph-name="percent" unicode="%" horiz-adv-x="595" 
d="M250 566q0 -42 -29.5 -71t-71 -29t-70.5 29t-29 71v19q0 41 29 70.5t70.5 29.5t71 -29.5t29.5 -70.5v-19zM193 566v19q0 17 -12.5 29.5t-30.5 12.5t-30.5 -12.5t-12.5 -29.5v-19q0 -18 12.5 -30.5t30.5 -12.5t30.5 12.5t12.5 30.5zM545 118v-19q0 -41 -29.5 -70.5
t-71 -29.5t-70.5 29.5t-29 70.5v19q0 42 29.5 71t70.5 29t70.5 -29t29.5 -71zM488 99v19q0 12 -6 22t-16 15.5t-21 5.5q-18 0 -30.5 -12.5t-12.5 -30.5v-19q0 -11 6 -21t15.5 -15.5t21.5 -5.5q18 0 30.5 12.5t12.5 29.5zM409 685q6 0 10.5 -5t2.5 -12l-198 -658
q-3 -10 -13 -10h-32q-6 0 -10.5 5.5t-2.5 11.5l198 659q3 9 13 9h32z" />
    <glyph glyph-name="ampersand" unicode="&#x26;" horiz-adv-x="590" 
d="M527 459q6 0 9.5 -4t3.5 -10v-30q0 -5 -3.5 -9t-9.5 -4h-96q57 -50 73 -125t-16 -144.5t-99.5 -105.5t-143 -25t-129 65.5t-64 130t26.5 142.5t106 98q-35 32 -44 78.5t12 89t63 64t88.5 13t78.5 -43t37 -81.5q1 -6 -3 -10.5t-10 -4.5h-31q-11 0 -13 12q-4 32 -29.5 53
t-58.5 19t-56 -25.5t-23 -55.5q-1 -36 23.5 -61.5t60.5 -25.5h247zM452 229q0 72 -50.5 122.5t-121.5 50.5q-53 0 -96.5 -29t-63.5 -77.5t-9.5 -99.5t47.5 -88t88 -47.5t99.5 9.5t77.5 63.5t29 95.5z" />
    <glyph glyph-name="quotesingle" unicode="'" horiz-adv-x="156" 
d="M97 686q4 0 6.5 -3t1.5 -6l-35 -203q-1 -7 -8 -7h-4q-8 0 -8 8v203q0 8 8 8h39z" />
    <glyph glyph-name="quotesingle" unicode="&#x2018;" horiz-adv-x="156" 
d="M97 686q4 0 6.5 -3t1.5 -6l-35 -203q-1 -7 -8 -7h-4q-8 0 -8 8v203q0 8 8 8h39z" />
    <glyph glyph-name="parenleft" unicode="(" horiz-adv-x="180" 
d="M130 15q1 -6 -3 -10.5t-10 -4.5h-30q-12 0 -14 12q-46 331 0 662q1 11 13 11h30q7 0 11 -4.5t3 -10.5q-46 -327 0 -655z" />
    <glyph glyph-name="parenright" unicode=")" horiz-adv-x="181" 
d="M108 674q46 -331 -1 -662q-1 -12 -13 -12h-31q-6 0 -10 4.5t-3 10.5q47 328 1 655q-1 6 3 10.5t10 4.5h31q11 0 13 -11z" />
    <glyph glyph-name="asterisk" unicode="*" horiz-adv-x="343" 
d="M287 510q5 -4 6 -9.5t-3 -9.5l-17 -25q-3 -4 -8.5 -5t-10.5 2l-54 38v-61q0 -6 -4 -9.5t-10 -3.5h-30q-5 0 -9 3.5t-4 9.5v61l-54 -38q-5 -3 -10.5 -2t-8.5 5l-17 25q-4 5 -3 10.5t6 8.5l66 46l-66 46q-5 3 -6 8.5t2 9.5l18 25q3 5 8.5 6t9.5 -3l55 -38v61q0 6 4 10t9 4
h30q6 0 10 -4t4 -10v-61l54 38q5 3 10.5 2t8.5 -5l17 -25q3 -4 2 -9.5t-5 -9.5l-66 -45z" />
    <glyph glyph-name="plus" unicode="+" horiz-adv-x="442" 
d="M379 371q5 0 9 -4t4 -10v-30q0 -5 -4 -9t-9 -4h-129v-130q0 -5 -4 -9t-10 -4h-30q-5 0 -9 4t-4 9v130h-129q-6 0 -10 4t-4 9v30q0 6 4 10t10 4h129v126q0 5 4 9t9 4h30q6 0 10 -4t4 -9v-126h129z" />
    <glyph glyph-name="comma" unicode="," horiz-adv-x="156" 
d="M97 134q4 0 6.5 -3t1.5 -6l-35 -203q-1 -7 -8 -7h-4q-8 0 -8 9v202q0 8 8 8h39z" />
    <glyph glyph-name="hyphen" unicode="-" horiz-adv-x="442" 
d="M379 314h-316q-5 0 -9 4t-4 9v30q0 6 4 10t9 4h316q5 0 9 -4t4 -10v-30q0 -5 -4 -9t-9 -4z" />
    <glyph glyph-name="period" unicode="." horiz-adv-x="186" 
d="M123 13q-13 -12 -30.5 -12t-30 12.5t-12.5 30t12.5 30t30 12.5t30.5 -12.5t13 -30t-13 -30.5z" />
    <glyph glyph-name="slash" unicode="/" horiz-adv-x="356" 
d="M293 685q7 0 11 -5t2 -12l-198 -658q-3 -10 -13 -10h-32q-6 0 -10 5.5t-2 11.5l198 659q2 9 12 9h32z" />
    <glyph glyph-name="zero" unicode="0" horiz-adv-x="668" 
d="M334 684q58 0 110.5 -27t90.5 -73t60.5 -109t22.5 -133q0 -93 -38 -171.5t-103.5 -124.5t-142.5 -46q-58 0 -110.5 27t-90.5 73t-60.5 109.5t-22.5 132.5q0 93 38 172t103.5 124.5t142.5 45.5zM173 140q67 -83 161 -83t160.5 83.5t66.5 201.5t-66.5 201.5t-160.5 83.5
t-160.5 -83.5t-66.5 -201.5t66 -202z" />
    <glyph glyph-name="one" unicode="1" horiz-adv-x="206" 
d="M143 684q5 0 9 -3.5t4 -9.5v-659q0 -6 -4 -10t-9 -4h-30q-6 0 -10 4t-4 10v615h-36q-5 0 -9 4t-4 10v30q0 6 4 9.5t9 3.5h80z" />
    <glyph glyph-name="two" unicode="2" horiz-adv-x="544" 
d="M481 57q5 0 9 -4t4 -9v-31q0 -5 -4 -9t-9 -4h-418q-5 0 -9 4t-4 9v16q-1 62 31 115t88 82l174 89q40 21 64 60.5t23 85.5q0 45 -21.5 83.5t-58.5 60.5t-80 22h-1q-64 0 -110.5 -45t-51.5 -110q0 -12 -13 -12h-30q-6 0 -10 4t-4 10q6 88 69 149t150 61h1q90 0 153.5 -65.5
t63.5 -157.5q1 -62 -31 -115t-87 -82l-174 -89q-35 -18 -57 -49t-29 -69h372z" />
    <glyph glyph-name="three" unicode="3" horiz-adv-x="526" 
d="M382 343q22 -13 41 -31q53 -52 53 -126q0 -77 -59 -131.5t-142 -54.5h-24q-79 0 -137 49.5t-64 120.5q0 6 4 10.5t10 4.5h30q12 0 13 -12q5 -49 46.5 -82.5t97.5 -33.5h24q39 0 72.5 17t52.5 46.5t19 64.5q0 51 -36 86q-46 44 -108 43h-22q-6 0 -10 4t-4 9v31q0 5 4 9
t10 4h21h0.5h1.5q59 0 101 38t42 90q0 53 -42 90.5t-102 37.5h-24q-56 0 -97.5 -33.5t-46.5 -82.5q-1 -12 -13 -12h-30q-6 0 -10 4.5t-4 10.5q6 72 64 121t137 49h24q83 0 142 -54t59 -131q0 -32 -12 -62t-33 -54.5t-49 -39.5z" />
    <glyph glyph-name="four" unicode="4" horiz-adv-x="554" 
d="M491 187q5 0 9 -3.5t4 -9.5v-30q0 -6 -4 -10t-9 -4h-36v-119q0 -6 -4 -10t-9 -4h-30q-6 0 -10 4t-4 10v119h-335q-8 0 -11.5 7.5t0.5 13.5l344 528q4 6 11 6h35q5 0 9 -4t4 -9v-485h36zM398 187v391l-254 -391h254z" />
    <glyph glyph-name="five" unicode="5" horiz-adv-x="545" 
d="M267 456q86 0 151 -57t75.5 -142.5t-38 -156.5t-132 -92.5t-160 17.5t-108.5 119q-2 5 0.5 10.5t7.5 7.5l29 9q12 4 17 -7q23 -57 77 -86.5t114.5 -17.5t99.5 60t38 109q0 41 -18 76.5t-50 59.5t-72 31q-61 11 -114.5 -19t-75.5 -87q-5 -11 -16 -8l-31 7q-13 3 -11 15
l54 369q2 11 14 11h316q6 0 10 -3.5t4 -9.5v-30q0 -6 -4 -10t-10 -4h-279l-32 -222q63 51 144 51z" />
    <glyph glyph-name="six" unicode="6" horiz-adv-x="555" 
d="M505 245q5 -71 -31 -132.5t-101 -91.5t-135.5 -17.5t-121 63t-63 120.5t17.5 135v1l8 16l174 339q4 7 12 7h34q7 0 11 -6.5t1 -12.5l-116 -226q50 19 104 14t100 -33.5t74 -75t32 -100.5zM278 57q62 0 109.5 40t58 101.5t-20.5 115t-90 74.5t-117 -0.5t-89 -76.5l-5 -10
q-19 -40 -16.5 -83.5t26 -81t62 -58.5t82.5 -21z" />
    <glyph glyph-name="seven" unicode="7" horiz-adv-x="517" 
d="M454 684q7 0 11 -5.5t1 -11.5l-219 -658q-3 -9 -13 -9h-31q-7 0 -11 5.5t-2 12.5l203 609h-330q-5 0 -9 4t-4 10v30q0 6 4 9.5t9 3.5h391z" />
    <glyph glyph-name="eight" unicode="8" horiz-adv-x="533" 
d="M368 391q53 -26 84 -75.5t31 -107.5q0 -86 -63.5 -147t-153 -61t-153 61t-63.5 147q1 58 32 107.5t83 75.5q-32 23 -50 57.5t-18 73.5q0 67 50 115t120 48t119.5 -48t49.5 -115q0 -39 -18 -73.5t-50 -57.5zM187 596q-33 -31 -33 -74.5t33 -74.5t79.5 -31t79.5 31t33 74.5
t-33 74.5t-79.5 31t-79.5 -31zM426 208q0 41 -21 75.5t-58 55t-80 20.5q-66 0 -113 -44.5t-47 -107t47 -106.5t113 -44t112.5 44t46.5 107z" />
    <glyph glyph-name="nine" unicode="9" horiz-adv-x="555" 
d="M252 232q-48 5 -89.5 29.5t-70 63.5t-37.5 87q-15 73 15.5 140t95 103.5t138 28.5t128 -58t69 -122.5t-15.5 -140.5h-1q-4 -9 -8 -17l-174 -339q-4 -7 -12 -7h-34q-7 0 -11 6.5t-1 13.5l116 226q-52 -21 -108 -14zM278 628q-63 0 -110.5 -40t-57.5 -101q-7 -40 4.5 -79
t39.5 -68t66 -43q59 -21 117.5 1t88.5 76l5 10q19 40 16.5 84t-25.5 81t-61.5 58.5t-82.5 20.5z" />
    <glyph glyph-name="colon" unicode=":" horiz-adv-x="186" 
d="M123 441q-13 -12 -30.5 -12t-30 12.5t-12.5 30t12.5 30t30 12.5t30.5 -12.5t13 -30t-13 -30.5zM123 184q-13 -12 -30.5 -12t-30 12.5t-12.5 30t12.5 30t30 12.5t30.5 -12.5t13 -30t-13 -30.5z" />
    <glyph glyph-name="semicolon" unicode=";" horiz-adv-x="186" 
d="M107 305q5 0 8 -3.5t2 -8.5l-34 -199q-2 -9 -11.5 -8.5t-9.5 10.5v199q0 3 1.5 5.5t4 3.5t5.5 1h34zM123 441q-13 -12 -30.5 -12t-30 12.5t-12.5 30t12.5 30t30 12.5t30.5 -12.5t13 -30t-13 -30.5z" />
    <glyph glyph-name="less" unicode="&#x3c;" horiz-adv-x="307" 
d="M253 200q4 -4 4 -9.5t-4 -9.5l-21 -22q-10 -9 -19 0l-159 159q-4 4 -4 10v29q0 5 4 9l156 159q10 10 19 0l22 -21q9 -9 0 -19l-141 -143z" />
    <glyph glyph-name="equal" unicode="=" horiz-adv-x="446" 
d="M382 421h-319q-5 0 -9 4t-4 10v30q0 6 4 9.5t9 3.5h319q6 0 10 -3.5t4 -9.5v-30q0 -6 -4 -10t-10 -4zM382 207h-319q-5 0 -9 4t-4 10v30q0 6 4 9.5t9 3.5h319q6 0 10 -3.5t4 -9.5v-30q0 -6 -4 -10t-10 -4z" />
    <glyph glyph-name="greater" unicode="&#x3e;" horiz-adv-x="307" 
d="M257 358v-30q0 -5 -4 -9l-156 -159q-10 -10 -19 0l-22 21q-9 9 0 19l140 143l-142 142q-10 10 0 19l21 22q10 9 19 0l159 -159q4 -4 4 -9z" />
    <glyph glyph-name="question" unicode="?" horiz-adv-x="530" 
d="M257 684q86 4 150.5 -53t72 -143t-46.5 -153t-139 -79v-74q0 -6 -4 -10t-10 -4h-30q-6 0 -9.5 4t-3.5 10v116q0 6 3.5 9.5t9.5 3.5h11q66 0 113.5 46t48.5 111q1 66 -46 113t-114 46q-65 0 -110.5 -48t-45.5 -114v-2q0 -5 -5 -5h-47q-5 0 -5 5v1q0 88 60 152.5t147 67.5z
M295 13q-12 -12 -30 -12t-30.5 12.5t-12.5 30t12.5 30t30.5 12.5t30.5 -12.5t12.5 -30t-13 -30.5z" />
    <glyph glyph-name="at" unicode="@" horiz-adv-x="527" 
d="M340 210q-6 0 -10 4t-4 9v182h-70q-6 0 -10 4t-4 10v30q0 5 4 9t10 4h198q5 0 9 -4t4 -9v-30q0 -6 -4 -10t-9 -4h-71v-182q0 -5 -4 -9t-9 -4h-30zM60 494q-10 0 -10 9.5t10 9.5h407q10 0 10 -9.5t-10 -9.5h-407zM60 190h407q10 0 10 -9.5t-10 -9.5h-407q-10 0 -10 9.5
t10 9.5zM192 462q10 0 13 -10l56 -226q2 -6 -2 -11t-11 -5h-31q-11 0 -13 10l-5 18h-64l-5 -18q-2 -10 -13 -10h-31q-6 0 -10.5 5t-2.5 11l56 226q3 10 13 10h50zM149 295h36l-18 73z" />
    <glyph glyph-name="A" unicode="A" horiz-adv-x="636" 
d="M585 -68q2 -7 -2 -12.5t-11 -5.5h-31q-10 0 -13 9l-224 671l-196 -585q-1 -3 -3 -5t-4.5 -3t-5.5 -1h-32q-6 0 -10.5 5.5t-1.5 12.5l220 657q3 9 13 9h41q9 0 12 -9z" />
    <glyph glyph-name="B" unicode="B" horiz-adv-x="589" 
d="M415 360q59 -21 93 -72.5t30 -113.5q-4 -73 -59.5 -123.5t-129.5 -50.5h-286q-5 0 -9 4t-4 9v658q0 6 4 9.5t9 3.5h225q79 0 135.5 -55.5t54.5 -132.5q-1 -82 -63 -136zM107 627v-256h186q53 0 90 37.5t37 90.5t-37 90.5t-90 37.5h-186zM353 57q35 0 64.5 17t47 47
t17.5 64q0 54 -38 91.5t-91 37.5h-246v-257h246z" />
    <glyph glyph-name="C" unicode="C" horiz-adv-x="691" 
d="M299 684q76 0 144.5 -32t117.5 -90t68 -132q30 -112 -14.5 -219.5t-145.5 -165.5t-216.5 -42t-197.5 99q-4 4 -3.5 9.5t4.5 9.5l22 20q10 9 19 0q61 -62 146 -78.5t165 16.5t128 105t48 159q0 43 -13 84t-36 75t-56 61t-73 43q-80 33 -164.5 15.5t-145.5 -78.5
q-9 -10 -19 -1l-23 20q-4 4 -4 9.5t4 9.5q48 50 111.5 76.5t133.5 26.5z" />
    <glyph glyph-name="D" unicode="D" horiz-adv-x="663" 
d="M264 684q92 0 171.5 -44t127.5 -121t50 -168q1 -69 -24 -133.5t-73.5 -114t-112 -76.5t-132.5 -27h-208q-5 0 -9 4t-4 10v657q0 6 4 9.5t9 3.5h201zM271 57q118 0 201.5 83.5t83.5 201.5t-83.5 201.5t-201.5 83.5h-164v-570h164z" />
    <glyph glyph-name="E" unicode="E" horiz-adv-x="528" 
d="M464 684q6 0 10 -3.5t4 -9.5v-658q0 -5 -4 -9t-10 -4h-401q-5 0 -9 4t-4 9v31q0 5 4 9t9 4h358v257h-272q-5 0 -9 4t-4 9v30q0 6 4 10t9 4h272v256h-358q-5 0 -9 4t-4 10v30q0 6 4 9.5t9 3.5h401z" />
    <glyph glyph-name="F" unicode="F" horiz-adv-x="518" 
d="M455 684q4 0 7 -1.5t4.5 -4.5t1.5 -7v-30q0 -6 -4 -10t-9 -4h-348v-256h262q6 0 10 -4t4 -10v-30q0 -5 -4 -9t-10 -4h-262v-386q0 -6 -4 -10t-9 -4h-31q-5 0 -9 4t-4 10v743q0 6 4 9.5t9 3.5h392z" />
    <glyph glyph-name="G" unicode="G" horiz-adv-x="703" 
d="M639 371q6 0 10 -4t4 -9v-232q0 -11 -8 -18v-1q-48 -51 -111.5 -79t-133.5 -28h-16q-90 0 -167 45t-122 122t-45 168v15q0 68 26.5 130t71.5 107t106.5 71t129.5 26h16q44 0 87 -11.5t81 -33.5t69 -53q4 -4 4 -10t-4 -10l-23 -20q-9 -9 -18 0q-81 81 -196 81h-16
q-114 0 -195.5 -81t-81.5 -196v-15q0 -115 81.5 -196.5t195.5 -81.5h16q114 1 195 81v220q0 5 4 9t10 4h30z" />
    <glyph glyph-name="H" unicode="H" horiz-adv-x="547" 
d="M483 770q6 0 10 -4t4 -9v-744q0 -5 -4 -9t-10 -4h-30q-5 0 -9 4t-4 9v301h-333v-301q0 -5 -4 -9t-9 -4h-31q-5 0 -9 4t-4 9v658q0 6 4 9.5t9 3.5h31q5 0 9 -3.5t4 -9.5v-300h333v386q0 3 2 6.5t5 5t6 1.5h30z" />
    <glyph glyph-name="I" unicode="I" horiz-adv-x="157" 
d="M94 0h-31q-5 0 -9 4t-4 9v744q0 5 4 9t9 4h31q5 0 9 -4t4 -9v-744q0 -5 -4 -9t-9 -4z" />
    <glyph glyph-name="J" unicode="J" horiz-adv-x="470" 
d="M407 770q5 0 9 -4t4 -9v-553q0 -76 -49.5 -134.5t-124.5 -67.5q-58 -8 -110.5 16.5t-83.5 73.5q-3 5 -1.5 10.5t6.5 8.5l27 15q10 6 17 -5q24 -35 62.5 -52t80.5 -10q52 10 86 51t33 94v553q0 3 2 6.5t5 5t6 1.5h31z" />
    <glyph glyph-name="K" unicode="K" 
d="M554 -63q6 -6 2.5 -14.5t-11.5 -8.5h-43q-5 0 -9 4l-386 393v-298q0 -5 -4 -9t-9 -4h-31q-5 0 -9 4t-4 9v658q0 6 4 9.5t9 3.5h31q5 0 9 -3.5t4 -9.5v-298l304 307q4 4 10 4h42q9 0 12.5 -8t-2.5 -14l-316 -320z" />
    <glyph glyph-name="L" unicode="L" horiz-adv-x="518" 
d="M455 57q6 0 9.5 -4t3.5 -9v-31q0 -5 -3.5 -9t-9.5 -4h-392q-5 0 -9 4t-4 9v744q0 5 4 9t9 4h31q5 0 9 -4t4 -9v-700h348z" />
    <glyph glyph-name="M" unicode="M" horiz-adv-x="671" 
d="M607 684q6 0 10 -3.5t4 -9.5v-658q0 -5 -4 -9t-10 -4h-30q-6 0 -9.5 4t-3.5 9v514l-216 -577q-3 -9 -12.5 -9t-12.5 9l-216 577v-514q0 -5 -4 -9t-9 -4h-31q-5 0 -9 4t-4 9v658q0 3 1 5.5t3 4t4.5 2.5t4.5 1h37q9 0 12 -8l223 -597l223 597q4 8 13 8h36z" />
    <glyph glyph-name="N" unicode="N" horiz-adv-x="549" 
d="M486 685q4 0 7 -1.5t4.5 -4.5t1.5 -7v-744q0 -6 -4 -10t-9 -4h-30q-6 0 -10 4t-4 10v649l-327 -570q-1 -2 -3 -3.5t-4 -2.5t-4 -1h-41q-5 0 -9 4t-4 9v658q0 4 2 7t5 4.5t6 1.5h31q3 0 6 -1.5t5 -4.5t2 -7v-564l328 572q3 6 11 6h40z" />
    <glyph glyph-name="O" unicode="O" horiz-adv-x="784" 
d="M392 684q93 0 172 -45.5t124.5 -124.5t45.5 -172t-45.5 -172t-124.5 -124.5t-172 -45.5t-171.5 45.5t-124.5 124.5t-46 172q0 70 27 133t73 109t109.5 73t132.5 27zM190 140q84 -83 202 -83t201.5 83.5t83.5 201.5t-83.5 201.5t-201.5 83.5t-201.5 -83.5t-83.5 -201.5
t83 -202z" />
    <glyph glyph-name="P" unicode="P" horiz-adv-x="532" 
d="M482 476q3 -93 -61 -159.5t-156 -66.5h-158v-322q0 -6 -4 -10t-9 -4h-31q-5 0 -9 4t-4 10v743q0 6 4 9.5t9 3.5h196q89 0 154.5 -60.5t68.5 -147.5zM265 307q66 0 113 47t47 113.5t-47 113t-113 46.5h-158v-320h158z" />
    <glyph glyph-name="Q" unicode="Q" horiz-adv-x="844" 
d="M790 -63q6 -6 2.5 -14.5t-12.5 -8.5h-42q-6 0 -10 4l-142 142q-112 -77 -246 -56t-216.5 128.5t-68.5 243t117 223.5t238.5 81t229 -105.5t93.5 -234t-93 -234.5l-9 -9zM392 57q59 0 112.5 23t94.5 66q70 73 77.5 174.5t-50 184.5t-155.5 111t-191 -12t-140 -130
t-27 -189.5t99 -163.5t180 -64z" />
    <glyph glyph-name="R" unicode="R" horiz-adv-x="593" 
d="M540 -64q5 -7 1 -14.5t-12 -7.5h-38q-6 0 -10 6l-249 330h-125v-237q0 -5 -4 -9t-9 -4h-31q-5 0 -9 4t-4 9v658q0 6 4 9.5t9 3.5h197q88 0 153 -59.5t69 -146.5q2 -55 -20.5 -103t-65 -80.5t-95.5 -41.5zM107 307h158q66 0 113 47t47 113.5t-47 113t-113 46.5h-158v-320z
" />
    <glyph glyph-name="S" unicode="S" horiz-adv-x="555" 
d="M365 347q63 -19 101.5 -65.5t38.5 -102.5v-1q-1 -68 -50 -115q-67 -65 -161 -63h-1h-33q-82 0 -142.5 47.5t-66.5 115.5q-1 6 3 10.5t10 4.5h30q12 0 14 -12q5 -46 49 -77.5t103 -31.5h34q70 -2 121 46q32 30 33 75v1q0 37 -27.5 68.5t-71.5 44.5l-159 47
q-63 19 -101.5 65t-38.5 103q0 73 61.5 125t149.5 52h34q82 0 142.5 -47t66.5 -116q1 -5 -3 -9.5t-10 -4.5h-30q-12 0 -14 12q-5 46 -49 77t-103 31h-34q-64 0 -109 -35t-45 -85q0 -38 27.5 -69t71.5 -44z" />
    <glyph glyph-name="T" unicode="T" horiz-adv-x="614" 
d="M550 684q6 0 10 -3.5t4 -9.5v-30q0 -6 -4 -10t-10 -4h-215v-699q0 -6 -4 -10t-9 -4h-30q-6 0 -10 4t-4 10v699h-215q-5 0 -9 4t-4 10v30q0 6 4 9.5t9 3.5h487z" />
    <glyph glyph-name="U" unicode="U" horiz-adv-x="547" 
d="M484 770q5 0 9 -4t4 -9v-533q0 -92 -64 -157t-156 -67q-93 -1 -160 66.5t-67 162.5v442q0 6 4 10t9 4h31q3 0 6.5 -2t5 -5t1.5 -7v-443q0 -70 50 -121t119 -50q68 1 116 49.5t48 117.5v533q0 3 2 6.5t5 5t6 1.5h31z" />
    <glyph glyph-name="V" unicode="V" horiz-adv-x="637" 
d="M574 772q7 0 11 -5.5t2 -11.5l-250 -746q-1 -3 -3 -5t-4.5 -3t-5.5 -1h-41q-10 0 -13 9l-219 659q-2 6 2 11.5t10 5.5h32q10 0 13 -9l195 -586l226 673q3 9 13 9h32z" />
    <glyph glyph-name="W" unicode="W" horiz-adv-x="864" 
d="M801 684q7 1 11 -5t2 -12l-221 -658q-1 -2 -2 -3.5t-2.5 -3t-3.5 -2t-5 -0.5h-40q-10 0 -13 9l-95 285l-96 -285q0 -2 -1.5 -3.5l-3 -3t-3.5 -2t-5 -0.5h-40q-10 0 -13 9l-219 658q-2 6 2 11.5t10 5.5h32q10 0 13 -9l195 -585l99 294l-94 283q-3 6 1.5 11.5t10.5 5.5h32
q10 0 13 -9l195 -585l196 585q3 9 13 9h32z" />
    <glyph glyph-name="X" unicode="X" horiz-adv-x="607" 
d="M555 -65q4 -7 0.5 -14t-11.5 -7h-35q-8 0 -12 7l-218 364l-167 -278q-2 -4 -5 -5.5t-6 -1.5h-35q-8 0 -12 7t0 13l192 321l-194 324q-4 7 0 13.5t11 6.5h36q7 0 11 -6l169 -282l169 282q4 6 12 6h35q7 0 11 -6.5t0 -13.5l-194 -324z" />
    <glyph glyph-name="Y" unicode="Y" horiz-adv-x="610" 
d="M546 772q8 0 12 -6.5t0 -13.5l-251 -418v-321q0 -5 -4 -9t-9 -4h-30q-6 0 -10 4t-4 9v321l-198 331q-4 7 0 13.5t11 6.5h36q7 0 11 -6l169 -281l221 368q4 6 11 6h35z" />
    <glyph glyph-name="Z" unicode="Z" horiz-adv-x="610" 
d="M547 57q6 0 9.5 -4t3.5 -9v-31q0 -5 -3.5 -9t-9.5 -4h-477q-8 0 -11.5 7t0.5 14l383 606h-379q-5 0 -9 4t-4 10v30q0 6 4 9.5t9 3.5h458q8 0 12 -6.5t0 -13.5l-384 -607h398z" />
    <glyph glyph-name="bracketleft" unicode="[" horiz-adv-x="298" 
d="M235 627h-128v-570h128q5 0 9 -4t4 -10v-30q0 -5 -4 -9t-9 -4h-172q-5 0 -9 4t-4 9v658q0 6 4 9.5t9 3.5h172q5 0 9 -3.5t4 -9.5v-30q0 -6 -4 -10t-9 -4z" />
    <glyph glyph-name="backslash" unicode="\" horiz-adv-x="356" 
d="M306 17q2 -6 -2 -11.5t-11 -5.5h-32q-10 0 -12 10l-198 658q-2 7 2 12t10 5h32q10 0 13 -9z" />
    <glyph glyph-name="bracketright" unicode="]" horiz-adv-x="300" 
d="M236 684q6 0 10 -3.5t4 -9.5v-658q0 -5 -4 -9t-10 -4h-173q-5 0 -9 4t-4 9v31q0 5 4 9t9 4h130v570h-130q-5 0 -9 4t-4 10v30q0 6 4 9.5t9 3.5h173z" />
    <glyph glyph-name="asciicircum" unicode="^" horiz-adv-x="474" 
d="M420 527q9 -10 0 -19l-21 -22q-10 -9 -19 0l-143 140l-143 -142q-9 -10 -19 0l-21 21q-10 10 0 19l158 159q4 4 10 4h29q6 0 10 -4z" />
    <glyph glyph-name="underscore" unicode="_" horiz-adv-x="614" 
d="M550 38h-487q-5 0 -9 4t-4 10v30q0 5 4 9t9 4h487q6 0 10 -4t4 -9v-30q0 -6 -4 -10t-10 -4z" />
    <glyph glyph-name="grave" unicode="`" horiz-adv-x="242" 
d="M191 479q2 -4 -0.5 -8t-6.5 -4h-2q-5 0 -7 4l-124 203q-2 4 0 8t7 4h38q5 0 7 -5z" />
    <glyph glyph-name="a" unicode="a" horiz-adv-x="607" 
d="M557 18q2 -7 -2 -12.5t-11 -5.5h-32q-10 0 -13 9l-38 114h-315l-38 -114q-1 -2 -2 -3.5t-3 -3t-4 -2t-4 -0.5h-32q-6 0 -10 5.5t-2 12.5l221 658q3 9 12 9h40q10 0 13 -9zM165 180h277l-138 415z" />
    <glyph glyph-name="b" unicode="b" horiz-adv-x="589" 
d="M415 360q59 -21 93 -72.5t30 -113.5q-4 -73 -59.5 -123.5t-129.5 -50.5h-286q-5 0 -9 4t-4 9v658q0 6 4 9.5t9 3.5h225q51 0 95.5 -25t70 -69t24.5 -94q-1 -82 -63 -136zM107 627v-256h186q34 -1 64.5 16.5t47.5 47.5t17 64.5t-17 64t-47.5 47t-64.5 16.5h-186zM353 57
q35 0 64.5 17t47 47t17.5 64.5t-17.5 64t-47 47t-64.5 17.5h-246v-257h246z" />
    <glyph glyph-name="c" unicode="c" horiz-adv-x="691" 
d="M636 122q5 -3 5 -9t-4 -10q-73 -74 -175 -95.5t-198.5 17.5t-155 125.5t-58.5 190.5t57.5 191t154 126.5t198.5 19t176 -94.5q4 -4 3.5 -10t-4.5 -9l-22 -21q-10 -8 -19 1q-61 61 -146 78t-165 -16.5t-128 -105.5t-48 -159q0 -57 22 -109t62 -92t93 -62q80 -33 165 -15.5
t146 79.5q9 9 19 1z" />
    <glyph glyph-name="d" unicode="d" horiz-adv-x="663" 
d="M264 684q92 0 171.5 -44t127.5 -121t50 -168q1 -69 -24 -133.5t-73.5 -114t-112 -76.5t-132.5 -27h-208q-5 0 -9 4t-4 10v657q0 6 4 9.5t9 3.5h201zM107 57h164q118 0 201.5 83.5t83.5 201.5t-83.5 201.5t-201.5 83.5h-164v-570z" />
    <glyph glyph-name="e" unicode="e" horiz-adv-x="528" 
d="M464 627h-357v-256h272q5 0 9 -4t4 -10v-30q0 -5 -4 -9t-9 -4h-272v-257h357q6 0 10 -4t4 -9v-31q0 -5 -4 -9t-10 -4h-401q-5 0 -9 4t-4 9v658q0 6 4 9.5t9 3.5h401q6 0 10 -3.5t4 -9.5v-30q0 -6 -4 -10t-10 -4z" />
    <glyph glyph-name="f" unicode="f" horiz-adv-x="518" 
d="M455 684q3 0 5.5 -1t4 -2.5t2.5 -4t1 -5.5v-30q0 -6 -4 -10t-9 -4h-348v-256h262q6 0 10 -4t4 -10v-30q0 -5 -4 -9t-10 -4h-262v-301q0 -5 -4 -9t-9 -4h-31q-5 0 -9 4t-4 9v658q0 6 4 9.5t9 3.5h392z" />
    <glyph glyph-name="g" unicode="g" horiz-adv-x="703" 
d="M639 371q6 0 10 -4t4 -9v-232q0 -11 -8 -18v-1q-48 -51 -111.5 -79t-133.5 -28h-16q-68 0 -129.5 26.5t-106.5 71.5t-71.5 107t-26.5 130v15q0 68 26.5 130t71.5 107t106.5 71t129.5 26h16q44 0 87 -11.5t81 -33.5t69 -53q4 -4 4 -10t-4 -10l-23 -20q-9 -9 -18 0
q-81 81 -196 81h-16q-114 0 -195.5 -81t-81.5 -196v-15q0 -115 81.5 -196t195.5 -81h16q114 0 196 80v176h-189q-5 0 -9 4t-4 9v31q0 5 4 9t9 4h232z" />
    <glyph glyph-name="h" unicode="h" horiz-adv-x="547" 
d="M483 684q6 0 10 -3.5t4 -9.5v-658q0 -5 -4 -9t-10 -4h-30q-5 0 -9 4t-4 9v301h-333v-301q0 -5 -4 -9t-9 -4h-31q-5 0 -9 4t-4 9v658q0 6 4 9.5t9 3.5h31q5 0 9 -3.5t4 -9.5v-300h333v300q0 6 4 9.5t9 3.5h30z" />
    <glyph glyph-name="i" unicode="i" horiz-adv-x="157" 
d="M94 0h-31q-5 0 -9 4t-4 9v658q0 6 4 9.5t9 3.5h31q5 0 9 -3.5t4 -9.5v-658q0 -5 -4 -9t-9 -4z" />
    <glyph glyph-name="j" unicode="j" horiz-adv-x="470" 
d="M407 684q3 0 6 -1.5t5 -4.5t2 -7v-467q0 -76 -49.5 -134.5t-124.5 -67.5q-58 -8 -110.5 16.5t-83.5 73.5q-3 5 -1.5 10.5t6.5 8.5l27 15q10 6 17 -5q24 -35 62.5 -52t80.5 -10q52 10 86 51t33 94v467q0 6 4 9.5t9 3.5h31z" />
    <glyph glyph-name="k" unicode="k" horiz-adv-x="530" 
d="M476 23q7 -6 3.5 -14.5t-12.5 -8.5h-43q-6 0 -9 4l-308 307v-298q0 -5 -4 -9t-9 -4h-31q-5 0 -9 4t-4 9v658q0 6 4 9.5t9 3.5h31q5 0 9 -3.5t4 -9.5v-298l304 307q4 4 10 4h42q9 0 12.5 -8t-2.5 -15l-316 -319z" />
    <glyph glyph-name="l" unicode="l" horiz-adv-x="519" 
d="M455 57q6 0 10 -4t4 -9v-31q0 -5 -4 -9t-10 -4h-391q-6 0 -10 4t-4 9v658q0 6 4 9.5t10 3.5h30q5 0 9 -3.5t4 -9.5v-614h348z" />
    <glyph glyph-name="m" unicode="m" horiz-adv-x="671" 
d="M607 685q6 0 10 -4t4 -9v-659q0 -5 -4 -9t-10 -4h-30q-6 0 -9.5 4t-3.5 9v516l-197 -520q-4 -9 -13 -9h-37q-10 0 -13 9l-197 520v-516q0 -5 -4 -9t-9 -4h-30q-6 0 -10 4t-4 9v659q0 5 4 9t10 4h35q10 0 13 -8l223 -590l224 590q3 8 12 8h36z" />
    <glyph glyph-name="n" unicode="n" horiz-adv-x="549" 
d="M486 684q5 0 9 -3.5t4 -9.5v-658q0 -5 -4 -9t-9 -4h-40q-8 0 -12 7l-327 570v-564q0 -5 -4 -9t-9 -4h-31q-5 0 -9 4t-4 9v659q0 6 4 9.5t9 3.5h40q8 0 12 -6l327 -572v564q0 6 4 9.5t10 3.5h30z" />
    <glyph glyph-name="o" unicode="o" horiz-adv-x="784" 
d="M392 684q93 0 172 -45.5t124.5 -124.5t45.5 -172t-45.5 -171.5t-124.5 -124.5t-172 -46t-171.5 46t-124.5 124.5t-46 171.5q0 70 27 133.5t73 109t109.5 72.5t132.5 27zM392 57q78 0 143.5 38.5t103.5 104t38 142.5q0 118 -83.5 201.5t-201.5 83.5t-201.5 -83.5
t-83.5 -201.5t83.5 -201.5t201.5 -83.5z" />
    <glyph glyph-name="p" unicode="p" horiz-adv-x="532" 
d="M482 476q3 -93 -61 -159.5t-156 -66.5h-158v-237q0 -5 -4 -9t-9 -4h-31q-5 0 -9 4t-4 9v658q0 6 4 9.5t9 3.5h196q89 0 154.5 -60.5t68.5 -147.5zM265 307q66 0 113 47t47 113.5t-47 113t-113 46.5h-158v-320h158z" />
    <glyph glyph-name="q" unicode="q" horiz-adv-x="785" 
d="M631 98l69 -68q9 -10 0 -19l-22 -22q-9 -9 -19 0l-72 73q-74 -52 -162 -60t-169.5 27t-135.5 107t-66 160t19.5 170.5t101.5 139.5q106 88 243 77.5t228.5 -112.5t87 -239.5t-102.5 -233.5zM393 58q118 0 201 83.5t84 201.5q0 86 -48 158t-128 105t-165 16t-146 -78
t-77.5 -146t16.5 -164.5t104.5 -127.5t158.5 -48z" />
    <glyph glyph-name="r" unicode="r" horiz-adv-x="532" 
d="M301 253l174 -231q5 -7 1.5 -14.5t-12.5 -7.5h-37q-7 0 -11 5l-184 245h-125v-237q0 -5 -4 -9t-9 -4h-31q-5 0 -9 4t-4 9v658q0 6 4 9.5t9 3.5h197q88 0 153 -59.5t69 -146.5q4 -83 -48 -147t-133 -78zM107 307h158q43 0 80 21.5t58.5 58.5t21.5 80q0 67 -47 113.5
t-113 46.5h-158v-320z" />
    <glyph glyph-name="s" unicode="s" horiz-adv-x="555" 
d="M365 347q63 -19 101.5 -65.5t38.5 -102.5v-1q-1 -68 -50 -115q-67 -65 -160 -63h-1h-34q-82 0 -142.5 47.5t-66.5 115.5q-1 6 3 10.5t10 4.5h30q12 0 14 -12q5 -46 49 -77.5t103 -31.5h34q70 -2 121 46q32 30 33 75v1q0 37 -27.5 68.5t-71.5 44.5l-159 47
q-63 19 -101.5 65t-38.5 103q0 73 62 125t149 52h34q82 0 142.5 -47t66.5 -116q1 -5 -3 -9.5t-10 -4.5h-30q-12 0 -14 12q-5 46 -49 77t-103 31h-34q-64 0 -109 -35t-45 -85q0 -38 27.5 -69t71.5 -44z" />
    <glyph glyph-name="s" unicode="&#xdf;" horiz-adv-x="555" 
d="M365 347q63 -19 101.5 -65.5t38.5 -102.5v-1q-1 -68 -50 -115q-67 -65 -160 -63h-1h-34q-82 0 -142.5 47.5t-66.5 115.5q-1 6 3 10.5t10 4.5h30q12 0 14 -12q5 -46 49 -77.5t103 -31.5h34q70 -2 121 46q32 30 33 75v1q0 37 -27.5 68.5t-71.5 44.5l-159 47
q-63 19 -101.5 65t-38.5 103q0 73 62 125t149 52h34q82 0 142.5 -47t66.5 -116q1 -5 -3 -9.5t-10 -4.5h-30q-12 0 -14 12q-5 46 -49 77t-103 31h-34q-64 0 -109 -35t-45 -85q0 -38 27.5 -69t71.5 -44z" />
    <glyph glyph-name="t" unicode="t" horiz-adv-x="614" 
d="M550 684q6 0 10 -3.5t4 -9.5v-30q0 -6 -4 -10t-10 -4h-215v-614q0 -5 -4 -9t-9 -4h-30q-6 0 -10 4t-4 9v614h-215q-5 0 -9 4t-4 10v30q0 6 4 9.5t9 3.5h487z" />
    <glyph glyph-name="u" unicode="u" horiz-adv-x="547" 
d="M484 684q5 0 9 -3.5t4 -9.5v-447q0 -92 -64 -157t-156 -67q-93 -2 -160 66t-67 163v442q0 6 4 10t9 4h31q3 0 6 -2t5 -5t2 -7v-443q0 -70 50 -121t119 -50q34 1 64 14.5t52 35.5t35 52.5t13 64.5v447q0 6 4 9.5t9 3.5h31z" />
    <glyph glyph-name="v" unicode="v" 
d="M545 685q6 0 10.5 -5.5t1.5 -11.5l-220 -659q-4 -9 -13 -9h-41q-10 0 -13 9l-219 659q-2 6 2 11.5t10 5.5h32q10 0 13 -9l195 -586l197 586q3 9 13 9h32z" />
    <glyph glyph-name="w" unicode="w" horiz-adv-x="950" 
d="M887 685q7 0 11 -5.5t1 -11.5l-221 -659q-3 -9 -13 -9h-39q-11 0 -13 10l-137 557l-141 -557q-2 -10 -13 -10h-39q-10 0 -13 9l-219 659q-2 6 2 11.5t10 5.5h32q10 0 13 -9l192 -575l144 574q3 10 13 10h38q10 0 13 -10l141 -573l193 574q3 9 13 9h32z" />
    <glyph glyph-name="x" unicode="x" horiz-adv-x="558" 
d="M495 685q7 0 11 -6.5t0 -13.5l-194 -324l192 -321q4 -6 0 -13t-11 -7h-36q-7 0 -11 7l-167 278l-167 -278q-4 -7 -11 -7h-35q-8 0 -12 7t0 13l192 321l-194 324q-4 7 0 13.5t11 6.5h36q7 0 11 -6l169 -282l169 282q4 6 12 6h35z" />
    <glyph glyph-name="y" unicode="y" horiz-adv-x="558" 
d="M494 685q8 0 12 -6.5t0 -13.5l-199 -331v-321q0 -5 -4 -9t-9 -4h-30q-6 0 -10 4t-4 9v321l-198 331q-4 7 0 13.5t11 6.5h36q7 0 11 -6l169 -281l169 281q3 6 11 6h35z" />
    <glyph glyph-name="y" unicode="&#xff;" horiz-adv-x="558" 
d="M494 685q8 0 12 -6.5t0 -13.5l-199 -331v-321q0 -5 -4 -9t-9 -4h-30q-6 0 -10 4t-4 9v321l-198 331q-4 7 0 13.5t11 6.5h36q7 0 11 -6l169 -281l169 281q3 6 11 6h35z" />
    <glyph glyph-name="z" unicode="z" horiz-adv-x="610" 
d="M547 57q6 0 9.5 -4t3.5 -9v-31q0 -5 -3.5 -9t-9.5 -4h-477q-8 0 -11.5 7t0.5 14l383 606h-379q-5 0 -9 4t-4 10v30q0 6 4 9.5t9 3.5h458q8 0 12 -6.5t0 -13.5l-384 -607h398z" />
    <glyph glyph-name="braceleft" unicode="{" horiz-adv-x="384" 
d="M321 627h-128v-570h128q5 0 9 -4t4 -10v-30q0 -5 -4 -9t-9 -4h-172q-5 0 -9 4t-4 9v301h-73q-5 0 -9 4t-4 9v30q0 6 4 10t9 4h73v300q0 6 4 9.5t9 3.5h172q5 0 9 -3.5t4 -9.5v-30q0 -6 -4 -10t-9 -4z" />
    <glyph glyph-name="verticalbar" unicode="|" horiz-adv-x="157" 
d="M94 0h-31q-5 0 -9 4t-4 9v659q0 5 4 9t9 4h31q5 0 9 -4t4 -9v-659q0 -5 -4 -9t-9 -4z" />
    <glyph glyph-name="braceright" unicode="}" horiz-adv-x="383" 
d="M320 371q5 0 9 -4t4 -10v-30q0 -5 -4 -9t-9 -4h-70v-301q0 -5 -4 -9t-10 -4h-173q-5 0 -9 4t-4 9v31q0 5 4 9t9 4h130v570h-130q-5 0 -9 4t-4 10v30q0 6 4 9.5t9 3.5h173q6 0 10 -3.5t4 -9.5v-300h70z" />
    <glyph glyph-name="asciitilde" unicode="~" horiz-adv-x="482" 
d="M419 399q4 0 7 -1.5t4.5 -5t1.5 -6.5v-23q0 -46 -32.5 -79t-79.5 -33h-6q-47 0 -80 34l-32 33q-14 14 -34 16t-37 -9q-25 -19 -24 -49v-16q0 -6 -4 -10t-9 -4h-31q-5 0 -9 4t-4 10v19q0 50 36.5 83t85.5 29q43 -4 73 -36l30 -30q16 -17 39 -17h6q23 0 39 16t16 39v23
q0 5 4 9t10 4h30z" />
    <glyph glyph-name="nonbreakingspace" unicode="&#xa0;" horiz-adv-x="262" 
 />
    <glyph glyph-name="exclamdown" unicode="&#xa1;" horiz-adv-x="186" 
d="M107 1h-30q-6 0 -9.5 4t-3.5 9v491q0 5 3.5 9t9.5 4h30q6 0 10 -4t4 -9v-491q0 -5 -4 -9t-10 -4zM123 612q-13 -12 -30.5 -12t-30 12.5t-12.5 30.5t12.5 30.5t30 12.5t30.5 -12.5t13 -30.5t-13 -31z" />
    <glyph glyph-name="cent" unicode="&#xa2;" horiz-adv-x="690" 
d="M636 123q4 -4 4 -9.5t-4 -9.5q-48 -49 -111 -76t-132 -27v-71q0 -6 -4 -9.5t-9 -3.5h-30q-6 0 -10 3.5t-4 9.5v75q-124 21 -205 116.5t-81 221t81 221t205 116.5v77q0 5 4 9t10 4h30q5 0 9 -4t4 -9v-73q68 0 131 -26.5t111 -74.5q4 -4 3.5 -9.5t-4.5 -9.5l-22 -21
q-10 -8 -19 1q-61 61 -146 78t-164.5 -16.5t-127.5 -105.5t-48 -158q0 -57 22 -109.5t62 -92t93 -61.5q80 -33 165 -15.5t145 78.5q9 10 19 1z" />
    <glyph glyph-name="sterling" unicode="&#xa3;" horiz-adv-x="594" 
d="M530 57q6 0 10 -4t4 -9v-31q0 -5 -4 -9t-10 -4h-467q-5 0 -9 4t-4 9v31q0 5 4 9t9 4h15q38 0 66 26.5t28 62.5v171h-109q-5 0 -9 4t-4 9v30q0 6 4 10t9 4h109v105q0 83 59 144t142 61q74 0 130 -49q4 -4 4.5 -9.5t-3.5 -10.5l-22 -21q-8 -9 -18 -1q-38 33 -89 34
q-60 1 -103 -43t-43 -105v-105h105q6 0 10 -4t4 -10v-30q0 -5 -4 -9t-10 -4h-105v-171q0 -50 -32 -89h333z" />
    <glyph glyph-name="currency" unicode="&#xa4;" horiz-adv-x="368" 
d="M314 256q4 -4 4 -9.5t-4 -9.5l-21 -21q-9 -10 -19 0l-28 28q-14 -9 -30 -13.5t-32 -4.5t-32 4.5t-30 13.5l-28 -28q-9 -10 -19 0l-21 21q-10 10 0 19l29 29q-17 27 -17 59t17 60l-29 29q-10 9 0 19l21 21q10 9 19 0l28 -28q29 17 62.5 17t61.5 -17l28 28q10 9 19 0
l21 -21q10 -10 0 -19l-28 -29q16 -28 16 -60t-16 -59zM184 405q-16 0 -30.5 -8t-22.5 -22t-8 -31q0 -25 18 -43t43 -18t43 18t18 43.5t-18 43t-43 17.5z" />
    <glyph glyph-name="yen" unicode="&#xa5;" horiz-adv-x="558" 
d="M494 685q8 0 12 -6.5t0 -13.5l-192 -320h124q6 0 10 -4t4 -9v-30q0 -6 -4 -10t-10 -4h-131v-62h131q6 0 10 -4t4 -9v-30q0 -6 -4 -10t-10 -4h-131v-156q0 -5 -4 -9t-9 -4h-30q-6 0 -10 4t-4 9v156h-130q-6 0 -10 4t-4 10v30q0 5 4 9t10 4h130v62h-130q-6 0 -10 4t-4 10
v30q0 5 4 9t10 4h124l-192 320q-4 7 0 13.5t11 6.5h36q7 0 11 -6l169 -281l169 281q3 6 11 6h35z" />
    <glyph glyph-name="section" unicode="&#xa7;" horiz-adv-x="411" 
d="M361 342q0 -40 -19.5 -75t-53.5 -56q30 -27 37.5 -67t-10.5 -76.5t-54 -54.5t-76 -11.5t-68 36t-33 69.5q0 6 4 10.5t10 4.5h30q12 0 14 -12q3 -17 14.5 -30.5t29.5 -19.5q36 -12 64 15t18 64q-6 22 -24 35t-40 13q-52 0 -93 31.5t-55 81t4.5 98t61.5 75.5
q-29 28 -36.5 67.5t10.5 76t54 55t76 11.5t68 -36t32 -70q1 -6 -3 -10t-10 -4h-30q-12 0 -14 11q-3 18 -15 31.5t-29 18.5q-37 12 -65 -15t-17 -64q6 -21 24 -34.5t40 -12.5q64 -1 109 -46.5t45 -109.5zM205 244q27 0 49.5 13t36 36t13.5 49q0 41 -29 70t-69.5 29t-69.5 -29
t-29 -70t29 -69.5t69 -28.5z" />
    <glyph glyph-name="copyright" unicode="&#xa9;" horiz-adv-x="461" 
d="M317 286q5 -4 6 -10t-3 -10q-24 -29 -59.5 -39t-71 2t-57.5 42t-23 67t19 68.5t54 46t70.5 7t62.5 -34.5q4 -5 3.5 -11t-5.5 -9l-25 -19q-9 -6 -17 2q-19 18 -45 17t-43.5 -20t-16.5 -45t19.5 -43.5t44.5 -16.5t44 20q8 8 17 2zM103 470q53 53 127.5 53t127.5 -53
t53 -128t-52.5 -128t-127.5 -53t-128 53t-53 128t53 128zM116 227q48 -47 115 -46.5t114 47.5t47 114t-47 114.5t-114 47.5t-114.5 -47.5t-47.5 -114.5t47 -115z" />
    <glyph glyph-name="guillemotleft" unicode="&#xab;" horiz-adv-x="407" 
d="M178 538q5 -3 7 -8t0 -10l-74 -177l74 -178q2 -5 0 -10t-7 -8l-28 -11q-5 -2 -10.5 0t-7.5 7l-81 194q-2 6 0 11l81 194q2 5 7.5 7t10.5 0zM282 343l74 -178q2 -5 0 -10t-7 -8l-28 -11q-5 -2 -10 0t-7 7l-82 194q-2 6 0 11l82 194q2 5 7 7t10 0l28 -11q5 -3 7 -8t0 -10z
" />
    <glyph glyph-name="softhyphen" unicode="&#xad;" horiz-adv-x="0" 
 />
    <glyph glyph-name="registered" unicode="&#xae;" horiz-adv-x="461" 
d="M231 523q49 0 90.5 -24.5t65.5 -66t24 -90.5q0 -75 -52.5 -128t-127.5 -53t-128 53t-53 128t53 128t128 53zM344 227q40 40 47 96t-22.5 104t-82.5 67.5t-106.5 1.5t-84.5 -65t-25.5 -103.5t44.5 -97t95 -48.5q46 -6 88 13l-52 68h-29v-32q0 -6 -4 -9.5t-9 -3.5h-30
q-6 0 -10 3.5t-4 9.5v211q0 5 4 9t10 4h81q38 1 66 -24.5t32 -62.5q3 -28 -9.5 -52.5t-36.5 -38.5zM295 359q0 16 -11 27.5t-27 11.5h-41v-77h41q10 0 19 5t14 14t5 19z" />
    <glyph glyph-name="plusminus" unicode="&#xb1;" horiz-adv-x="442" 
d="M379 47h-315q-6 0 -10 4t-4 10v30q0 5 4 9t10 4h315q5 0 9 -4t4 -9v-30q0 -6 -4 -10t-9 -4zM379 371q5 0 9 -4t4 -10v-30q0 -5 -4 -9t-9 -4h-129v-130q0 -5 -4 -9t-10 -4h-30q-5 0 -9 4t-4 9v130h-130q-5 0 -9 4t-4 9v30q0 6 4 10t9 4h130v126q0 5 4 9t9 4h30q6 0 10 -4
t4 -9v-126h129z" />
    <glyph glyph-name="mu" unicode="&#xb5;" horiz-adv-x="413" 
d="M349 512q4 0 7 -2t5 -5t2 -6v-201q0 -62 -42 -108.5t-105 -51.5q-61 -4 -109 36v-165q0 -5 -4 -9t-9 -4h-31q-5 0 -9 4t-4 9v490q0 5 4 9t9 4h31q5 0 9 -4t4 -9v-202q0 -39 25.5 -68t64.5 -34q44 -4 76.5 25.5t32.5 73.5v205q0 5 4 9t9 4h30z" />
    <glyph glyph-name="paragraph" unicode="&#xb6;" horiz-adv-x="563" 
d="M499 685q6 -1 10 -4.5t4 -9.5v-30q0 -6 -4 -10t-10 -4h-74v-611q0 -5 -4 -9t-10 -4h-30q-5 0 -9 4t-4 9v611h-59v-611q0 -5 -4 -9t-9 -4h-31q-5 0 -9 4t-4 9v332h-29q-71 0 -122.5 50.5t-50.5 120.5q1 69 50.5 117t117.5 49h281zM252 405v222h-34q-45 0 -77.5 -32.5
t-32.5 -78.5t32.5 -78.5t77.5 -32.5h34z" />
    <glyph glyph-name="guillemotright" unicode="&#xbb;" horiz-adv-x="407" 
d="M356 348q2 -5 0 -11l-81 -194q-2 -5 -7.5 -7t-10.5 0l-27 11q-6 3 -8 8t0 10l75 178l-75 177q-2 5 0 10t8 8l27 11q5 2 10.5 0t7.5 -7zM104 542l81 -194q2 -5 0 -11l-81 -194q-2 -5 -7.5 -7t-10.5 0l-28 11q-5 3 -7 8t0 10l74 178l-74 177q-2 5 0 10t7 8l28 11
q5 2 10.5 0t7.5 -7z" />
    <glyph glyph-name="questiondown" unicode="&#xbf;" horiz-adv-x="532" 
d="M432 227h50v-11q0 -87 -60 -149.5t-146.5 -66.5t-151.5 53t-73 143.5t46 154t140 79.5v75q0 5 4 9t10 4h30q5 0 9 -4t4 -9v-117q0 -6 -4 -10t-9 -4h-11q-65 0 -113.5 -46t-49.5 -111q0 -66 47 -113.5t113 -46.5q65 1 111 49.5t46 113.5q0 3 2.5 5t5.5 2zM298 612
q-12 -12 -30 -12t-30.5 12.5t-12.5 30.5t12.5 30.5t30.5 12.5t30.5 -12.5t12.5 -30.5t-13 -31z" />
    <glyph glyph-name="Agrave" unicode="&#xc0;" 
d="M557 18q2 -7 -2 -12.5t-11 -5.5h-31q-10 0 -13 9l-42 125h-308l-42 -125q-3 -9 -13 -9h-32q-6 0 -10 5.5t-2 12.5l220 658q4 9 13 9h41q10 0 13 -9zM169 191h270l-135 404zM356 759l-13 -16q-9 -10 -19 -2l-110 93q-10 9 -1 19l13 16q9 10 19 1l110 -92q10 -9 1 -19z" />
    <glyph glyph-name="Aacute" unicode="&#xc1;" 
d="M557 18q2 -7 -2 -12.5t-11 -5.5h-31q-10 0 -13 9l-42 125h-308l-42 -125q-3 -9 -13 -9h-32q-6 0 -10 5.5t-2 12.5l220 658q4 9 13 9h41q10 0 13 -9zM169 191h270l-135 404zM393 834l-109 -93q-11 -9 -19 1l-14 16q-8 10 2 19l109 93q10 9 19 -1l13 -16q9 -10 -1 -19z" />
    <glyph glyph-name="Acircumflex" unicode="&#xc2;" 
d="M557 18q2 -7 -2 -12.5t-11 -5.5h-31q-10 0 -13 9l-42 125h-308l-42 -125q-3 -9 -13 -9h-32q-6 0 -10 5.5t-2 12.5l220 658q4 9 13 9h41q10 0 13 -9zM169 191h270l-135 404zM221 744l-15 14q-9 10 0 19l86 87q10 10 19 1l90 -88q10 -9 0 -19l-14 -14q-9 -10 -19 -1l-66 64
l-62 -63q-9 -10 -19 0z" />
    <glyph glyph-name="Atilde" unicode="&#xc3;" 
d="M557 18q2 -7 -2 -12.5t-11 -5.5h-31q-10 0 -13 9l-42 125h-308l-42 -125q-3 -9 -13 -9h-32q-6 0 -10 5.5t-2 12.5l220 658q4 9 13 9h41q10 0 13 -9zM169 191h270l-135 404zM209 778q-7 -2 -12 2t-5 11q-1 30 21 52q12 11 28 15l2 1q27 7 51.5 -6.5t32.5 -40.5
q2 -8 9.5 -12t15.5 -2h2q13 4 14 17q2 9 10 12l21 6q6 1 11.5 -2.5t5.5 -10.5q1 -30 -21 -52q-12 -11 -28 -15l-2 -1q-27 -8 -52 6t-32 41q-3 8 -10 12t-15 2h-2q-13 -4 -15 -17q-1 -9 -9 -12z" />
    <glyph glyph-name="Adieresis" unicode="&#xc4;" 
d="M557 18q2 -7 -2 -12.5t-11 -5.5h-31q-10 0 -13 9l-42 125h-308l-42 -125q-3 -9 -13 -9h-32q-6 0 -10 5.5t-2 12.5l220 658q4 9 13 9h41q10 0 13 -9zM169 191h270l-135 404zM277 767q-8 -9 -20.5 -9t-21.5 9t-9 21.5t9 21.5t21.5 9t21 -9t8.5 -21.5t-9 -21.5zM373 767
q-9 -9 -21.5 -9t-21.5 9t-9 21.5t9 21.5t21.5 9t21.5 -9t9 -21.5t-9 -21.5z" />
    <glyph glyph-name="Aring" unicode="&#xc5;" 
d="M557 18q2 -7 -2 -12.5t-11 -5.5h-31q-10 0 -13 9l-42 125h-308l-42 -125q-3 -9 -13 -9h-32q-6 0 -10 5.5t-2 12.5l218 650q-24 8 -41 26t-24 41.5t-3 47.5q7 37 35.5 61.5t66.5 25t67 -23.5t36 -62q4 -18 0.5 -36t-12 -33.5t-22.5 -27.5t-32 -19zM304 709q11 0 21.5 4.5
t18 12t12 18t4.5 21.5q0 24 -16.5 40.5t-39.5 16.5q-15 0 -28.5 -7.5t-21 -20.5t-7.5 -28.5t8 -28.5t21 -20.5t28 -7.5zM169 191h270l-134 404z" />
    <glyph glyph-name="AE" unicode="&#xc6;" horiz-adv-x="857" 
d="M794 628h-329v-257h243q6 0 9.5 -3.5t3.5 -9.5v-30q0 -6 -3.5 -10t-9.5 -4h-243v-256h329q5 0 9 -4t4 -10v-30q0 -5 -4 -9t-9 -4h-373q-5 0 -9 4t-4 9v120h-258l-42 -125q-3 -9 -13 -9h-32q-6 0 -10 5.5t-2 12.5l220 658q3 9 13 9h510q5 0 9 -4t4 -9v-30q0 -6 -4 -10
t-9 -4zM408 191v437h-93l-146 -437h239z" />
    <glyph glyph-name="Ccedilla" unicode="&#xc7;" horiz-adv-x="691" 
d="M638 103q-35 -35 -78 -59t-91 -35l-8 -56q32 -3 52.5 -26.5t18.5 -55.5q-3 -31 -26 -51.5t-54 -20.5h-37q-6 0 -10 4t-4 10v30q0 5 4 9t10 4h40q9 0 14.5 7t5.5 15q-2 8 -8 13t-13 5h-43q-6 0 -10 4.5t-3 11.5l12 88h-17q-117 0 -209.5 71t-122 183.5t15 220t145.5 165.5
t216.5 42t197.5 -99q4 -4 4 -9.5t-5 -9.5l-22 -20q-9 -9 -19 0q-61 62 -146 78.5t-165 -16.5t-128 -105.5t-48 -158.5q0 -58 22 -110t62 -92t94 -62q80 -33 165 -15.5t146 79.5q9 9 18 1l23 -21q4 -3 4.5 -9t-3.5 -10z" />
    <glyph glyph-name="Egrave" unicode="&#xc8;" horiz-adv-x="499" 
d="M436 628h-329v-257h243q6 0 10 -3.5t4 -9.5v-30q0 -6 -4 -10t-10 -4h-243v-256h329q6 0 9.5 -4t3.5 -10v-30q0 -5 -3.5 -9t-9.5 -4h-373q-5 0 -9 4t-4 9v658q0 5 4 9t9 4h373q6 0 9.5 -4t3.5 -9v-30q0 -6 -3.5 -10t-9.5 -4zM322 758l-14 -16q-8 -10 -19 -1l-109 93
q-10 8 -2 19l14 15q8 11 19 2l109 -93q10 -9 2 -19z" />
    <glyph glyph-name="Eacute" unicode="&#xc9;" horiz-adv-x="499" 
d="M436 628h-329v-257h243q6 0 10 -3.5t4 -9.5v-30q0 -6 -4 -10t-10 -4h-243v-256h329q6 0 9.5 -4t3.5 -10v-30q0 -5 -3.5 -9t-9.5 -4h-373q-5 0 -9 4t-4 9v658q0 5 4 9t9 4h373q6 0 9.5 -4t3.5 -9v-30q0 -6 -3.5 -10t-9.5 -4zM320 834l-109 -93q-11 -9 -19 1l-14 16
q-9 10 2 19l109 93q10 9 19 -2l13 -15q9 -11 -1 -19z" />
    <glyph glyph-name="Ecircumflex" unicode="&#xca;" horiz-adv-x="499" 
d="M436 628h-329v-257h243q6 0 10 -3.5t4 -9.5v-30q0 -6 -4 -10t-10 -4h-243v-256h329q6 0 9.5 -4t3.5 -10v-30q0 -5 -3.5 -9t-9.5 -4h-373q-5 0 -9 4t-4 9v658q0 5 4 9t9 4h373q6 0 9.5 -4t3.5 -9v-30q0 -6 -3.5 -10t-9.5 -4zM167 744l-15 14q-9 10 0 19l86 87q9 10 19 1
l90 -87q10 -10 0 -20l-14 -14q-9 -10 -19 -1l-66 64l-62 -63q-10 -10 -19 0z" />
    <glyph glyph-name="Edieresis" unicode="&#xcb;" horiz-adv-x="499" 
d="M436 628h-329v-257h243q6 0 10 -3.5t4 -9.5v-30q0 -6 -4 -10t-10 -4h-243v-256h329q6 0 9.5 -4t3.5 -10v-30q0 -5 -3.5 -9t-9.5 -4h-373q-5 0 -9 4t-4 9v658q0 5 4 9t9 4h373q6 0 9.5 -4t3.5 -9v-30q0 -6 -3.5 -10t-9.5 -4zM223 767q-8 -9 -20.5 -9t-21.5 9t-9 21.5
t9 21.5t21.5 9t21 -9t8.5 -21.5t-9 -21.5zM319 767q-9 -9 -21.5 -9t-21.5 9t-9 21.5t9 21.5t21.5 9t21.5 -9t9 -21.5t-9 -21.5z" />
    <glyph glyph-name="Igrave" unicode="&#xcc;" horiz-adv-x="250" 
d="M140 1h-30q-6 0 -10 3.5t-4 9.5v658q0 5 4 9t10 4h30q6 0 9.5 -4t3.5 -9v-658q0 -6 -3.5 -9.5t-9.5 -3.5zM196 758l-13 -16q-9 -10 -19 -1l-109 93q-11 9 -2 19l14 16q8 10 19 1l109 -93q10 -9 1 -19z" />
    <glyph glyph-name="Iacute" unicode="&#xcd;" horiz-adv-x="250" 
d="M140 1h-30q-6 0 -9.5 3.5t-3.5 9.5v658q0 5 3.5 9t9.5 4h30q6 0 10 -4t4 -9v-658q0 -6 -4 -9.5t-10 -3.5zM195 834l-109 -93q-11 -9 -19 2l-14 15q-9 11 2 19l109 93q10 9 19 -1l13 -16q9 -10 -1 -19z" />
    <glyph glyph-name="Icircumflex" unicode="&#xce;" horiz-adv-x="303" 
d="M167 1h-31q-5 0 -9 3.5t-4 9.5v658q0 5 4 9t9 4h31q5 0 9 -4t4 -9v-658q0 -6 -4 -9.5t-9 -3.5zM249 778q9 -10 0 -19l-14 -15q-10 -10 -19 -1l-66 64l-62 -63q-10 -9 -19 0l-15 14q-10 10 0 19l86 88q9 9 19 0z" />
    <glyph glyph-name="Idieresis" unicode="&#xcf;" horiz-adv-x="256" 
d="M143 1h-30q-6 0 -10 3.5t-4 9.5v658q0 5 4 9t10 4h30q6 0 9.5 -4t3.5 -9v-658q0 -6 -3.5 -9.5t-9.5 -3.5zM101 767q-8 -9 -20.5 -9t-21.5 9t-9 21.5t9 21.5t21.5 9t21 -9t8.5 -21.5t-9 -21.5zM197 767q-9 -9 -21.5 -9t-21.5 9t-9 21.5t9 21.5t21.5 9t21.5 -9t9 -21.5
t-9 -21.5z" />
    <glyph glyph-name="Eth" unicode="&#xd0;" horiz-adv-x="737" 
d="M338 685q92 0 171.5 -44t127.5 -121t50 -169q1 -69 -24 -133.5t-73.5 -114t-112 -76.5t-133.5 -27h-170q-5 0 -9 4t-4 10v300h-98q-5 0 -9 4t-4 10v30q0 6 4 9.5t9 3.5h98v301q0 5 4 9t9 4h164zM338 57q117 0 202.5 80.5t89.5 196.5q1 58 -20 112t-61 95.5t-93.5 64
t-111.5 22.5h-126v-257h104q5 0 9 -3.5t4 -9.5v-30q0 -6 -4 -10t-9 -4h-104v-257h120z" />
    <glyph glyph-name="Ntilde" unicode="&#xd1;" horiz-adv-x="549" 
d="M486 684q6 0 9.5 -3.5t3.5 -9.5v-658q0 -5 -3.5 -9t-9.5 -4h-40q-8 0 -12 7l-327 570v-564q0 -5 -4 -9t-9 -4h-30q-6 0 -10 4t-4 9v659q0 6 4 9.5t10 3.5h39q8 0 12 -6l327 -572v564q0 6 4 9.5t10 3.5h30zM180 778q-7 -2 -12 2t-6 11q0 30 22 52q12 11 28 15l1 1
q27 7 52 -6.5t33 -40.5q2 -8 9.5 -12t15.5 -2h2q12 4 14 17q1 9 10 12l21 6q6 1 11.5 -2.5t5.5 -10.5q1 -30 -21 -52q-12 -11 -28 -15l-2 -1q-27 -8 -52 6t-32 41q-3 8 -10 12t-16 2h-1q-13 -4 -15 -17q-1 -9 -9 -12z" />
    <glyph glyph-name="Ograve" unicode="&#xd2;" horiz-adv-x="784" 
d="M220 639q79 46 172 46t171.5 -46t124.5 -124.5t46 -171.5t-46 -172t-124.5 -124.5t-171.5 -45.5t-171.5 45.5t-124.5 124.5t-46 172t46 171.5t124 124.5zM190 141q84 -83 202 -83t201.5 83.5t83.5 201.5t-83.5 201.5t-201.5 83.5t-201.5 -83.5t-83.5 -201.5t83 -202z
M464 758l-13 -16q-9 -10 -19 -2l-110 93q-10 9 -1 19l13 16q9 10 19 2l110 -93q10 -9 1 -19z" />
    <glyph glyph-name="Oacute" unicode="&#xd3;" horiz-adv-x="784" 
d="M220 639q79 46 172 46t171.5 -46t124.5 -124.5t46 -171.5t-46 -172t-124.5 -124.5t-171.5 -45.5t-171.5 45.5t-124.5 124.5t-46 172t46 171.5t124 124.5zM190 141q84 -83 202 -83t201.5 83.5t83.5 201.5t-83.5 201.5t-201.5 83.5t-201.5 -83.5t-83.5 -201.5t83 -202z
M453 793l-109 -93q-10 -8 -19 2l-13 16q-9 10 1 19l109 93q11 8 19 -2l14 -16q9 -10 -2 -19z" />
    <glyph glyph-name="Ocircumflex" unicode="&#xd4;" horiz-adv-x="784" 
d="M220 639q79 46 172 46t171.5 -46t124.5 -124.5t46 -171.5t-46 -172t-124.5 -124.5t-171.5 -45.5t-171.5 45.5t-124.5 124.5t-46 172t46 171.5t124 124.5zM190 141q84 -83 202 -83t201.5 83.5t83.5 201.5t-83.5 201.5t-201.5 83.5t-201.5 -83.5t-83.5 -201.5t83 -202z
M309 744l-15 14q-9 10 0 19l86 87q10 10 19 1l90 -87q10 -10 1 -20l-15 -14q-9 -10 -19 -1l-65 64l-63 -63q-9 -10 -19 0z" />
    <glyph glyph-name="Otilde" unicode="&#xd5;" horiz-adv-x="784" 
d="M220 639q79 46 172 46t171.5 -46t124.5 -124.5t46 -171.5t-46 -172t-124.5 -124.5t-171.5 -45.5t-171.5 45.5t-124.5 124.5t-46 172t46 171.5t124 124.5zM190 141q84 -83 202 -83t201.5 83.5t83.5 201.5t-83.5 201.5t-201.5 83.5t-201.5 -83.5t-83.5 -201.5t83 -202z
M297 778q-6 -2 -11.5 2t-5.5 11q-1 25 15 45q15 17 37 23q14 4 29 2q12 -3 23 -9.5t19 -16.5t12 -23q2 -8 9.5 -12t15.5 -2h2q13 4 14 17q2 9 10 12l21 6q6 1 11.5 -2.5t5.5 -10.5q1 -23 -13 -42t-36 -25l-2 -1q-9 -2 -19 -2q-37 0 -58 31q-5 8 -7 18q-2 8 -9.5 12t-15.5 2
h-2q-13 -4 -15 -17q-1 -9 -9 -12z" />
    <glyph glyph-name="Odieresis" unicode="&#xd6;" horiz-adv-x="784" 
d="M220 639q79 46 172 46t171.5 -46t124.5 -124.5t46 -171.5t-46 -172t-124.5 -124.5t-171.5 -45.5t-171.5 45.5t-124.5 124.5t-46 172t46 171.5t124 124.5zM190 141q84 -83 202 -83t201.5 83.5t83.5 201.5t-83.5 201.5t-201.5 83.5t-201.5 -83.5t-83.5 -201.5t83 -202z
M365 767q-8 -9 -20.5 -9t-21.5 9t-9 21.5t9 21.5t21.5 9t21 -9t8.5 -21.5t-9 -21.5zM461 767q-9 -9 -21.5 -9t-21 9t-8.5 21.5t8.5 21.5t21 9t21.5 -9t9 -21.5t-9 -21.5z" />
    <glyph glyph-name="multiply" unicode="&#xd7;" horiz-adv-x="371" 
d="M317 250q10 -9 0 -19l-21 -21q-10 -9 -19 0l-91 91l-92 -91q-9 -9 -19 0l-21 21q-9 10 0 19l91 92l-91 91q-9 10 0 19l21 21q10 10 19 0l92 -91l89 89q9 9 19 0l21 -21q9 -10 0 -19l-89 -89z" />
    <glyph glyph-name="Oslash" unicode="&#xd8;" horiz-adv-x="784" 
d="M636 582q93 -95 97.5 -228t-82.5 -234t-219 -116.5t-240 62.5l-64 -74q-4 -5 -9.5 -5.5t-9.5 3.5l-23 20q-4 3 -4.5 9t2.5 10l64 74q-93 95 -97.5 228.5t82.5 234.5t219.5 116.5t240.5 -63.5l63 74q4 4 9.5 4.5t9.5 -3.5l23 -19q4 -4 4.5 -9.5t-2.5 -9.5zM186 147
l370 429q-90 63 -199 49.5t-181 -96.5t-69 -193t79 -189zM392 58q85 0 156.5 47t105.5 125.5t19 162.5t-74 146l-370 -430q73 -51 163 -51z" />
    <glyph glyph-name="Ugrave" unicode="&#xd9;" horiz-adv-x="547" 
d="M483 684q6 0 10 -3.5t4 -9.5v-447q0 -92 -64 -157t-156 -67q-93 -2 -160 66t-67 163v442q0 6 4 9.5t9 3.5h31q5 0 9 -3.5t4 -9.5v-447q0 -69 48 -117.5t116 -49.5q69 -1 119 50t50 121v443q0 6 4 9.5t9 3.5h30zM346 758l-14 -16q-8 -10 -19 -2l-109 93q-10 9 -2 19l14 16
q8 10 19 2l109 -93q10 -9 2 -19z" />
    <glyph glyph-name="Uacute" unicode="&#xda;" horiz-adv-x="547" 
d="M484 684q2 0 4.5 -1t4.5 -2.5t3 -4t1 -5.5v-447q0 -92 -64 -157t-156 -67q-46 -1 -88 17.5t-72.5 49t-48.5 73t-18 89.5v442q0 6 4 9.5t9 3.5h31q5 0 9 -3.5t4 -9.5v-447q0 -45 22 -83t59.5 -60.5t82.5 -23.5q69 -1 119 50t50 121v443q0 6 4 9.5t9 3.5h31zM344 833
l-109 -93q-11 -8 -19 2l-14 16q-8 10 2 19l109 93q10 8 19 -2l14 -16q8 -10 -2 -19z" />
    <glyph glyph-name="Ucircumflex" unicode="&#xdb;" horiz-adv-x="547" 
d="M484 684q3 0 6 -1.5t5 -4.5t2 -7v-447q0 -92 -64 -157t-156 -67q-93 -2 -160 66t-67 163v442q0 6 4 9.5t9 3.5h31q5 0 9 -3.5t4 -9.5v-448q0 -68 48 -116.5t116 -49.5q69 -1 119 50t50 121v443q0 6 4 9.5t9 3.5h31zM191 744l-15 14q-10 10 0 19l86 88q9 9 19 0l90 -87
q9 -10 0 -20l-14 -14q-10 -10 -19 -1l-66 64l-62 -63q-10 -10 -19 0z" />
    <glyph glyph-name="Udieresis" unicode="&#xdc;" horiz-adv-x="547" 
d="M483 684q6 0 10 -3.5t4 -9.5v-447q0 -92 -64 -157t-156 -67q-93 -2 -160 66t-67 163v442q0 6 4 9.5t9 3.5h31q5 0 9 -3.5t4 -9.5v-447q0 -69 48 -117.5t116 -49.5q69 -1 119 50t50 121v443q0 6 4 9.5t9 3.5h30zM247 767q-9 -9 -21.5 -9t-21 9t-8.5 21.5t8.5 21.5t21 9
t21.5 -9t9 -21.5t-9 -21.5zM342 767q-8 -9 -20.5 -9t-21.5 9t-9 21.5t9 21.5t21.5 9t21 -9t8.5 -21.5t-9 -21.5z" />
    <glyph glyph-name="Yacute" unicode="&#xdd;" horiz-adv-x="558" 
d="M494 685q8 0 12 -6.5t0 -13.5l-199 -331v-321q0 -5 -4 -9t-9 -4h-30q-6 0 -10 4t-4 9v321l-198 331q-4 7 0 13.5t11 6.5h36q7 0 11 -6l169 -281l169 281q3 6 11 6h35zM349 833l-109 -93q-10 -8 -19 2l-13 16q-9 10 1 19l110 93q10 8 19 -2l13 -16q9 -10 -2 -19z" />
    <glyph glyph-name="Thorn" unicode="&#xde;" horiz-adv-x="499" 
d="M449 353q3 -85 -55.5 -146t-143.5 -61h-143v-133q0 -5 -4 -9t-9 -4h-31q-5 0 -9 4t-4 9v658q0 6 4 9.5t9 3.5h31q5 0 9 -3.5t4 -9.5v-126h138q81 0 141 -55.5t63 -136.5zM250 203q59 0 100.5 41.5t41.5 100.5t-41.5 101t-100.5 42h-143v-285h143z" />
    <glyph glyph-name="agrave" unicode="&#xe0;" 
d="M557 18q2 -7 -2 -12.5t-11 -5.5h-31q-10 0 -13 9l-42 124h-308l-42 -124q-3 -9 -13 -9h-32q-6 0 -10 5.5t-2 12.5l220 658q4 9 13 9h41q10 0 13 -9zM169 191h270l-135 404zM356 758l-13 -15q-9 -11 -19 -2l-110 93q-10 9 -1 19l13 16q9 10 19 1l110 -93q10 -8 1 -19z" />
    <glyph glyph-name="aacute" unicode="&#xe1;" 
d="M557 18q2 -7 -2 -12.5t-11 -5.5h-31q-10 0 -13 9l-42 124h-308l-42 -124q-3 -9 -13 -9h-32q-6 0 -10 5.5t-2 12.5l220 658q4 9 13 9h41q10 0 13 -9zM169 191h270l-135 404zM393 834l-109 -93q-11 -9 -19 1l-14 16q-9 10 2 19l109 93q10 9 19 -1l13 -16q9 -10 -1 -19z" />
    <glyph glyph-name="acircumflex" unicode="&#xe2;" 
d="M557 18q2 -7 -2 -12.5t-11 -5.5h-31q-10 0 -13 9l-42 124h-308l-42 -124q-3 -9 -13 -9h-32q-6 0 -10 5.5t-2 12.5l220 658q4 9 13 9h41q10 0 13 -9zM169 191h270l-135 404zM221 744l-15 14q-9 10 0 19l86 87q10 10 19 1l90 -88q10 -9 0 -19l-14 -14q-9 -10 -19 -1l-66 64
l-62 -63q-9 -10 -19 0z" />
    <glyph glyph-name="atilde" unicode="&#xe3;" 
d="M557 18q2 -7 -2 -12.5t-11 -5.5h-31q-10 0 -13 9l-42 124h-308l-42 -124q-3 -9 -13 -9h-32q-6 0 -10 5.5t-2 12.5l220 658q4 9 13 9h41q10 0 13 -9zM169 191h270l-135 404zM209 778q-7 -2 -12 2t-5 11q-1 30 21 52q12 11 28 15l2 1q27 7 51.5 -6.5t32.5 -40.5
q2 -8 9.5 -12t15.5 -2h2q13 4 14 17q2 9 10 12l21 6q6 1 11.5 -2.5t5.5 -10.5q1 -31 -21 -52q-12 -11 -28 -15l-2 -1q-27 -8 -52 6t-32 41q-3 8 -10 12t-15 2h-2q-13 -4 -15 -17q-1 -9 -9 -12z" />
    <glyph glyph-name="adieresis" unicode="&#xe4;" 
d="M557 18q2 -7 -2 -12.5t-11 -5.5h-31q-10 0 -13 9l-42 124h-308l-42 -124q-3 -9 -13 -9h-32q-6 0 -10 5.5t-2 12.5l220 658q4 9 13 9h41q10 0 13 -9zM169 191h270l-135 404zM277 767q-8 -9 -20.5 -9t-21.5 9t-9 21.5t9 21t21.5 8.5t21 -8.5t8.5 -21t-9 -21.5zM373 767
q-9 -9 -21.5 -9t-21.5 9t-9 21.5t9 21t21.5 8.5t21.5 -8.5t9 -21t-9 -21.5z" />
    <glyph glyph-name="aring" unicode="&#xe5;" 
d="M557 18q2 -7 -2 -12q-2 -3 -4.5 -4.5t-6.5 -1.5h-31q-10 0 -13 9l-42 124h-308l-42 -124q-3 -9 -13 -9h-32q-6 0 -10 5.5t-2 12.5l218 650q-24 8 -41 26t-24 41t-3 48q7 37 35.5 61.5t66.5 25t67 -24t36 -61.5q4 -18 0.5 -36t-12 -33.5t-22.5 -28t-32 -18.5zM304 709
q23 0 39.5 16.5t16.5 40t-16.5 40t-39.5 16.5q-15 0 -28.5 -7.5t-21 -20.5t-7.5 -28.5t8 -28.5t21 -20.5t28 -7.5zM169 191h270l-134 404z" />
    <glyph glyph-name="ae" unicode="&#xe6;" horiz-adv-x="857" 
d="M794 628h-329v-257h243q6 0 10 -4t4 -9v-30q0 -6 -4 -10t-10 -4h-243v-256h329q5 0 9 -4t4 -10v-30q0 -6 -4 -9.5t-9 -3.5h-373q-5 0 -9 3.5t-4 9.5v119h-258l-42 -124q-3 -9 -13 -9h-32q-6 0 -10 5.5t-2 12.5l220 658q3 9 13 9h510q5 0 9 -4t4 -9v-31q0 -5 -4 -9t-9 -4z
M408 191v437h-93l-146 -437h239z" />
    <glyph glyph-name="ccedilla" unicode="&#xe7;" horiz-adv-x="691" 
d="M638 103q-71 -72 -169 -94l-8 -56q32 -3 52.5 -26.5t18.5 -55.5q-3 -31 -26 -51.5t-54 -20.5h-37q-6 0 -10 4t-4 10v30q0 5 4 9t10 4h40q9 0 14.5 6.5t5.5 15.5q-2 8 -8 13t-13 5h-43q-6 0 -10 4.5t-3 10.5l12 89h-17q-117 0 -209.5 71t-122 183.5t15 220t145.5 165.5
t216.5 42t197.5 -99q4 -4 4 -9.5t-5 -9.5l-22 -20q-9 -9 -19 0q-61 62 -146 78.5t-165 -16.5t-128 -105.5t-48 -159t48.5 -158.5t129 -105t165.5 -15.5t146 79.5q9 9 18 1l23 -21q4 -3 4.5 -9t-3.5 -10z" />
    <glyph glyph-name="egrave" unicode="&#xe8;" horiz-adv-x="499" 
d="M436 628h-329v-257h243q6 0 10 -4t4 -9v-30q0 -6 -4 -10t-10 -4h-243v-256h329q6 0 9.5 -4t3.5 -10v-30q0 -6 -3.5 -9.5t-9.5 -3.5h-373q-5 0 -9 3.5t-4 9.5v658q0 5 4 9t9 4h373q6 0 9.5 -4t3.5 -9v-31q0 -5 -3.5 -9t-9.5 -4zM322 758l-14 -16q-8 -10 -19 -1l-109 93
q-10 8 -2 19l14 15q8 11 19 2l109 -93q10 -9 2 -19z" />
    <glyph glyph-name="eacute" unicode="&#xe9;" horiz-adv-x="499" 
d="M436 628h-329v-257h243q6 0 10 -4t4 -9v-30q0 -6 -4 -10t-10 -4h-243v-256h329q6 0 9.5 -4t3.5 -10v-30q0 -6 -3.5 -9.5t-9.5 -3.5h-373q-5 0 -9 3.5t-4 9.5v658q0 5 4 9t9 4h373q6 0 9.5 -4t3.5 -9v-31q0 -5 -3.5 -9t-9.5 -4zM320 834l-109 -93q-11 -9 -19 1l-14 16
q-9 10 2 19l109 93q10 9 19 -2l13 -15q9 -11 -1 -19z" />
    <glyph glyph-name="ecircumflex" unicode="&#xea;" horiz-adv-x="499" 
d="M436 628h-329v-257h243q6 0 10 -4t4 -9v-30q0 -6 -4 -10t-10 -4h-243v-256h329q6 0 9.5 -4t3.5 -10v-30q0 -6 -3.5 -9.5t-9.5 -3.5h-373q-5 0 -9 3.5t-4 9.5v658q0 5 4 9t9 4h373q6 0 9.5 -4t3.5 -9v-31q0 -5 -3.5 -9t-9.5 -4zM167 744l-15 14q-9 10 0 19l86 87
q9 10 19 1l90 -88q10 -9 0 -19l-14 -14q-9 -10 -19 -1l-66 64l-62 -63q-10 -10 -19 0z" />
    <glyph glyph-name="edieresis" unicode="&#xeb;" horiz-adv-x="499" 
d="M436 628h-329v-257h243q6 0 10 -4t4 -9v-30q0 -6 -4 -10t-10 -4h-243v-256h329q6 0 9.5 -4t3.5 -10v-30q0 -6 -3.5 -9.5t-9.5 -3.5h-373q-5 0 -9 3.5t-4 9.5v658q0 5 4 9t9 4h373q6 0 9.5 -4t3.5 -9v-31q0 -5 -3.5 -9t-9.5 -4zM223 767q-8 -9 -20.5 -9t-21.5 9t-9 21.5
t9 21t21.5 8.5t21 -8.5t8.5 -21t-9 -21.5zM319 767q-9 -9 -21.5 -9t-21.5 9t-9 21.5t9 21t21.5 8.5t21.5 -8.5t9 -21t-9 -21.5z" />
    <glyph glyph-name="igrave" unicode="&#xec;" horiz-adv-x="250" 
d="M140 0h-30q-6 0 -10 4t-4 10v657q0 6 4 10t10 4h30q6 0 9.5 -4t3.5 -10v-657q0 -6 -3.5 -10t-9.5 -4zM196 758l-13 -16q-9 -10 -19 -1l-109 93q-11 9 -2 19l14 16q8 10 19 1l109 -93q10 -9 1 -19z" />
    <glyph glyph-name="iacute" unicode="&#xed;" horiz-adv-x="250" 
d="M140 0h-30q-6 0 -9.5 4t-3.5 10v657q0 6 3.5 10t9.5 4h30q6 0 10 -4t4 -10v-657q0 -6 -4 -10t-10 -4zM195 834l-109 -93q-11 -9 -19 2l-14 15q-9 11 2 19l109 93q10 9 19 -1l13 -16q9 -10 -1 -19z" />
    <glyph glyph-name="icircumflex" unicode="&#xee;" horiz-adv-x="303" 
d="M167 0h-31q-5 0 -9 4t-4 10v657q0 6 4 10t9 4h31q5 0 9 -4t4 -10v-657q0 -6 -4 -10t-9 -4zM249 778q9 -10 0 -20l-14 -14q-10 -10 -19 -1l-66 64l-62 -63q-10 -10 -19 0l-15 14q-10 10 0 19l86 87q9 10 19 1z" />
    <glyph glyph-name="idieresis" unicode="&#xef;" horiz-adv-x="256" 
d="M143 0h-30q-6 0 -10 4t-4 10v657q0 6 4 10t10 4h30q6 0 9.5 -4t3.5 -10v-657q0 -6 -3.5 -10t-9.5 -4zM101 767q-8 -9 -20.5 -9t-21.5 9t-9 21.5t9 21t21.5 8.5t21 -8.5t8.5 -21t-9 -21.5zM197 767q-9 -9 -21.5 -9t-21.5 9t-9 21.5t9 21t21.5 8.5t21.5 -8.5t9 -21
t-9 -21.5z" />
    <glyph glyph-name="eth" unicode="&#xf0;" horiz-adv-x="737" 
d="M338 685q92 0 171.5 -44t127.5 -121.5t50 -168.5q1 -69 -24 -133.5t-74 -114.5q-32 -32 -71.5 -55.5t-83.5 -35.5t-90 -12h-170q-5 0 -9 4t-4 10v300h-98q-5 0 -9 4t-4 10v30q0 5 4 9t9 4h98v300q0 6 4 10t9 4h164zM338 57q77 0 143 36.5t106 100.5t43 140q1 58 -20 112
t-61 95.5t-93.5 64t-111.5 22.5h-126v-257h104q5 0 9 -4t4 -9v-30q0 -6 -4 -10t-9 -4h-104v-257h120z" />
    <glyph glyph-name="ntilde" unicode="&#xf1;" horiz-adv-x="549" 
d="M486 684q6 0 9.5 -3.5t3.5 -9.5v-658q0 -5 -3.5 -9t-9.5 -4h-40q-8 0 -12 7l-327 570v-564q0 -5 -4 -9t-9 -4h-30q-6 0 -10 4t-4 9v659q0 5 4 9t10 4h39q8 0 12 -6l327 -572v564q0 6 4 9.5t10 3.5h30zM180 778q-7 -2 -12 2t-6 11q0 30 22 52q12 11 28 15l1 1q19 4 36 0
t30 -16.5t19 -30.5q2 -8 9.5 -12t15.5 -2h2q12 4 14 17q1 9 10 12l21 6q6 1 11.5 -2.5t5.5 -10.5q1 -31 -21 -52q-12 -11 -28 -15l-2 -1q-27 -8 -52 6t-32 41q-3 8 -10 12t-16 2h-1q-13 -4 -15 -17q-1 -9 -9 -12z" />
    <glyph glyph-name="ograve" unicode="&#xf2;" horiz-adv-x="784" 
d="M220 639q79 46 172 46t171.5 -46t124.5 -124.5t46 -171.5t-46 -172t-124.5 -124.5t-171.5 -45.5t-171.5 45.5t-124.5 124.5t-46 172t46 171.5t124 124.5zM392 58q118 0 201.5 83.5t83.5 201.5t-83.5 201.5t-201.5 83.5t-201.5 -83.5t-83.5 -201.5q0 -78 38 -143.5
t104 -103.5t143 -38zM464 758l-13 -16q-9 -10 -19 -2l-110 93q-10 9 -1 19l13 16q9 10 19 2l110 -93q10 -9 1 -19z" />
    <glyph glyph-name="oacute" unicode="&#xf3;" horiz-adv-x="784" 
d="M220 639q79 46 172 46t171.5 -46t124.5 -124.5t46 -171.5t-46 -172t-124.5 -124.5t-171.5 -45.5t-171.5 45.5t-124.5 124.5t-46 172t46 171.5t124 124.5zM392 58q118 0 201.5 83.5t83.5 201.5t-83.5 201.5t-201.5 83.5t-201.5 -83.5t-83.5 -201.5q0 -78 38 -143.5
t104 -103.5t143 -38zM453 793l-109 -93q-10 -8 -19 2l-13 16q-9 10 1 19l109 93q11 8 19 -2l14 -16q9 -10 -2 -19z" />
    <glyph glyph-name="ocircumflex" unicode="&#xf4;" horiz-adv-x="784" 
d="M220 639q79 46 172 46t171.5 -46t124.5 -124.5t46 -171.5t-46 -172t-124.5 -124.5t-171.5 -45.5t-171.5 45.5t-124.5 124.5t-46 172t46 171.5t124 124.5zM392 58q118 0 201.5 83.5t83.5 201.5t-83.5 201.5t-201.5 83.5t-201.5 -83.5t-83.5 -201.5q0 -78 38 -143.5
t104 -103.5t143 -38zM309 744l-15 14q-9 10 0 19l86 87q10 10 19 1l90 -88q10 -9 1 -19l-15 -14q-9 -10 -19 -1l-65 64l-63 -63q-9 -10 -19 0z" />
    <glyph glyph-name="otilde" unicode="&#xf5;" horiz-adv-x="784" 
d="M220 639q79 46 172 46t171.5 -46t124.5 -124.5t46 -171.5t-46 -172t-124.5 -124.5t-171.5 -45.5t-171.5 45.5t-124.5 124.5t-46 172t46 171.5t124 124.5zM392 58q118 0 201.5 83.5t83.5 201.5t-83.5 201.5t-201.5 83.5t-201.5 -83.5t-83.5 -201.5q0 -78 38 -143.5
t104 -103.5t143 -38zM297 778q-6 -2 -11.5 2t-5.5 11q-1 25 15 45q15 17 37 23q14 4 29 2q12 -3 23 -9.5t19 -17t12 -22.5q2 -8 9.5 -12.5t15.5 -1.5h2q13 4 14 17q2 9 10 12l21 6q6 1 11.5 -2.5t5.5 -10.5q1 -23 -13 -42t-36 -25l-2 -1q-9 -3 -19 -3q-37 1 -58 32
q-5 8 -7 18q-2 8 -9.5 12t-15.5 2h-2q-13 -4 -15 -17q-1 -9 -9 -12z" />
    <glyph glyph-name="odieresis" unicode="&#xf6;" horiz-adv-x="784" 
d="M220 639q79 46 172 46t171.5 -46t124.5 -124.5t46 -171.5t-46 -172t-124.5 -124.5t-171.5 -45.5t-171.5 45.5t-124.5 124.5t-46 172t46 171.5t124 124.5zM392 58q118 0 201.5 83.5t83.5 201.5t-83.5 201.5t-201.5 83.5t-201.5 -83.5t-83.5 -201.5q0 -78 38 -143.5
t104 -103.5t143 -38zM365 767q-8 -9 -20.5 -9t-21.5 9t-9 21.5t9 21t21.5 8.5t21 -8.5t8.5 -21t-9 -21.5zM461 767q-9 -9 -21.5 -9t-21.5 9t-9 21.5t9 21t21.5 8.5t21.5 -8.5t9 -21t-9 -21.5z" />
    <glyph glyph-name="divide" unicode="&#xf7;" horiz-adv-x="442" 
d="M379 314h-316q-5 0 -9 4t-4 9v30q0 6 4 10t9 4h316q5 0 9 -4t4 -10v-30q0 -5 -4 -9t-9 -4zM251 441q-12 -12 -30 -12t-30.5 12.5t-12.5 30t12.5 30t30.5 12.5t30.5 -12.5t12.5 -30t-13 -30.5zM251 184q-12 -12 -30 -12t-30.5 12.5t-12.5 30t12.5 30t30.5 12.5t30.5 -12.5
t12.5 -30t-13 -30.5z" />
    <glyph glyph-name="oslash" unicode="&#xf8;" horiz-adv-x="784" 
d="M636 582q93 -95 97.5 -228.5t-82.5 -234t-219 -116t-240 62.5l-64 -75q-4 -4 -9.5 -4.5t-9.5 3.5l-23 20q-4 3 -4.5 8.5t2.5 10.5l64 74q-93 95 -97.5 228.5t82.5 234.5t219.5 116.5t240.5 -63.5l63 74q4 4 9.5 4.5t9.5 -3.5l23 -19q4 -4 4.5 -9.5t-2.5 -9.5zM186 146
l370 430q-90 63 -199 49.5t-181 -97t-69 -193t79 -189.5zM392 58q85 0 156.5 47t105.5 125t19 162.5t-74 146.5l-370 -430q73 -51 163 -51z" />
    <glyph glyph-name="ugrave" unicode="&#xf9;" horiz-adv-x="547" 
d="M483 684q4 0 7 -1.5t5 -4.5t2 -7v-448q0 -91 -64 -156t-156 -67q-93 -2 -160 66t-67 162v443q0 6 4 9.5t9 3.5h31q5 0 9 -3.5t4 -9.5v-448q0 -68 48 -116.5t116 -49.5q69 -1 119 50t50 121v443q0 6 4 9.5t9 3.5h30zM346 758l-14 -16q-8 -10 -19 -2l-109 93q-10 9 -2 19
l14 16q8 10 19 2l109 -93q10 -9 2 -19z" />
    <glyph glyph-name="uacute" unicode="&#xfa;" horiz-adv-x="547" 
d="M484 684q5 0 9 -3.5t4 -9.5v-448q0 -91 -64 -156t-156 -67q-46 -1 -88 17t-72.5 49t-48.5 73.5t-18 89.5v442q0 6 4 9.5t9 3.5h31q5 0 9 -3.5t4 -9.5v-448q0 -68 48 -116.5t116 -49.5q69 -1 119 50t50 121v443q0 6 4 9.5t9 3.5h31zM344 833l-109 -93q-11 -8 -19 2l-14 16
q-8 10 2 19l109 93q10 8 19 -2l14 -16q8 -10 -2 -19z" />
    <glyph glyph-name="ucircumflex" unicode="&#xfb;" horiz-adv-x="547" 
d="M484 684q5 0 9 -3.5t4 -9.5v-448q0 -91 -64 -156t-156 -67q-93 -2 -160 66t-67 163v442q0 6 4 9.5t9 3.5h31q5 0 9 -3.5t4 -9.5v-448q0 -68 48 -116.5t116 -49.5q69 -1 119 50t50 121v443q0 6 4 9.5t9 3.5h31zM191 744l-15 14q-10 10 0 19l86 87q9 10 19 1l90 -88
q9 -9 0 -19l-14 -14q-10 -10 -19 -1l-66 64l-62 -63q-10 -10 -19 0z" />
    <glyph glyph-name="udieresis" unicode="&#xfc;" horiz-adv-x="547" 
d="M483 684q4 0 7 -1.5t5 -4.5t2 -7v-448q0 -91 -64 -156t-156 -67q-93 -2 -160 66t-67 162v443q0 6 4 9.5t9 3.5h31q5 0 9 -3.5t4 -9.5v-448q0 -68 48 -116.5t116 -49.5q69 -1 119 50t50 121v443q0 6 4 9.5t9 3.5h30zM247 767q-9 -9 -21.5 -9t-21 9t-8.5 21.5t8.5 21
t21 8.5t21.5 -8.5t9 -21t-9 -21.5zM342 767q-8 -9 -20.5 -9t-21.5 9t-9 21.5t9 21t21.5 8.5t21 -8.5t8.5 -21t-9 -21.5z" />
    <glyph glyph-name="yacute" unicode="&#xfd;" horiz-adv-x="558" 
d="M494 685q8 0 12 -6.5t0 -13.5l-199 -331v-321q0 -5 -4 -9t-9 -4h-30q-6 0 -10 4t-4 9v321l-198 331q-4 7 0 13.5t11 6.5h36q7 0 11 -6l169 -281l169 281q3 6 11 6h35zM349 833l-109 -93q-10 -8 -19 2l-13 16q-9 10 1 19l110 93q10 8 19 -2l13 -16q9 -10 -2 -19z" />
    <glyph glyph-name="thorn" unicode="&#xfe;" horiz-adv-x="499" 
d="M449 353q3 -85 -55.5 -146t-143.5 -62h-143v-132q0 -5 -4 -9t-9 -4h-31q-5 0 -9 4t-4 9v658q0 6 4 9.5t9 3.5h31q5 0 9 -3.5t4 -9.5v-126h138q81 0 141 -55.5t63 -136.5zM250 203q59 0 100.5 41.5t41.5 100.5t-41.5 101t-100.5 42h-143v-285h143z" />
    <glyph glyph-name="Ldot" unicode="&#x13f;" horiz-adv-x="509" 
d="M445 57q6 0 10 -4t4 -9v-31q0 -5 -4 -9t-10 -4h-382q-5 0 -9 4t-4 9v658q0 6 4 9.5t9 3.5h31q5 0 9 -3.5t4 -9.5v-614h338zM238 308q-12 -13 -30 -13t-30.5 13t-12.5 30.5t12.5 30t30.5 12.5t30.5 -12.5t12.5 -30t-13 -30.5z" />
    <glyph glyph-name="ldot" unicode="&#x140;" horiz-adv-x="509" 
d="M445 57q6 0 10 -4t4 -10v-30q0 -5 -4 -9t-10 -4h-382q-5 0 -9 4t-4 9v658q0 6 4 9.5t9 3.5h31q5 0 9 -3.5t4 -9.5v-614h338zM238 307q-12 -12 -30 -12t-30.5 12.5t-12.5 30.5t12.5 30.5t30.5 12.5t30.5 -12.5t12.5 -30.5t-13 -31z" />
    <glyph glyph-name="Nacute" unicode="&#x143;" horiz-adv-x="549" 
d="M486 684q5 0 9 -3.5t4 -9.5v-658q0 -5 -4 -9t-9 -4h-40q-8 0 -12 7l-327 570v-564q0 -5 -4 -9t-9 -4h-31q-5 0 -9 4t-4 9v659q0 6 4 9.5t9 3.5h40q8 0 12 -6l327 -572v564q0 6 4 9.5t10 3.5h30zM345 834l-110 -93q-10 -9 -19 1l-13 16q-9 10 2 19l109 93q10 9 19 -2
l13 -15q9 -11 -1 -19z" />
    <glyph glyph-name="nacute" unicode="&#x144;" horiz-adv-x="549" 
d="M486 684q5 0 9 -3.5t4 -9.5v-658q0 -5 -4 -9t-9 -4h-40q-8 0 -12 7l-327 570v-564q0 -5 -4 -9t-9 -4h-31q-5 0 -9 4t-4 9v659q0 5 4 9t9 4h40q8 0 12 -6l327 -572v564q0 6 4 9.5t10 3.5h30zM345 834l-110 -93q-10 -9 -19 1l-13 16q-9 10 2 19l109 93q10 9 19 -2l13 -15
q9 -11 -1 -19z" />
    <glyph glyph-name="Ncaron" unicode="&#x147;" horiz-adv-x="549" 
d="M486 684q5 0 9 -3.5t4 -9.5v-658q0 -5 -4 -9t-9 -4h-40q-8 0 -12 7l-327 570v-564q0 -5 -4 -9t-9 -4h-31q-5 0 -9 4t-4 9v659q0 6 4 9.5t9 3.5h40q8 0 12 -6l327 -572v564q0 6 4 9.5t10 3.5h30zM267 727l-90 87q-9 10 0 19l15 15q9 10 19 0l65 -63l63 63q9 9 19 0l14 -15
q10 -9 0 -19l-86 -87q-9 -9 -19 0z" />
    <glyph glyph-name="ncaron" unicode="&#x148;" horiz-adv-x="549" 
d="M486 684q4 0 7 -1.5t4.5 -4.5t1.5 -7v-658q0 -5 -4 -9t-9 -4h-40q-8 0 -12 7l-327 570v-564q0 -5 -4 -9t-9 -4h-31q-5 0 -9 4t-4 9v659q0 5 4 9t9 4h40q8 0 12 -6l327 -572v564q0 6 4 9.5t10 3.5h30zM267 727l-90 87q-9 9 0 19l15 15q9 10 19 0l65 -64l63 64q9 9 19 0
l14 -15q10 -9 0 -19l-86 -87q-9 -9 -19 0z" />
    <glyph glyph-name="OE" unicode="&#x152;" horiz-adv-x="934" 
d="M871 628h-367v-257h273q5 0 9 -4t4 -9v-30q0 -6 -4 -10t-9 -4h-273v-257h367q5 0 9 -4t4 -9v-31q0 -5 -4 -9t-9 -4l-480 -1q-70 1 -133 28t-108.5 73t-72.5 109.5t-27 132.5q0 93 45.5 171.5t124 124.5t171.5 47h480q5 0 9 -4t4 -9v-30q0 -6 -4 -10t-9 -4zM447 57v571
h-56q-118 -1 -201 -84.5t-83 -201.5t83 -201.5t201 -83.5h56z" />
    <glyph glyph-name="oe" unicode="&#x153;" horiz-adv-x="934" 
d="M871 628h-367v-257h273q5 0 9 -4t4 -9v-31q0 -5 -4 -9t-9 -4h-273v-257h367q5 0 9 -4t4 -9v-31q0 -5 -4 -9t-9 -4l-480 -1q-93 1 -171.5 47t-124 124.5t-45.5 171.5t45.5 171.5t124 124.5t171.5 47h480q5 0 9 -4t4 -9v-31q0 -5 -4 -9t-9 -4zM447 56v572h-56
q-118 -1 -201 -84.5t-83 -201.5t83 -201.5t201 -84.5h56z" />
    <glyph glyph-name="Racute" unicode="&#x154;" horiz-adv-x="530" 
d="M289 253l175 -231q5 -7 1.5 -14.5t-12.5 -7.5h-38q-6 0 -10 5l-186 247h-112v-235q0 -6 -4 -10t-9 -4h-31q-5 0 -9 4t-4 10v654q0 6 4 9.5t9 3.5h196q89 0 154 -61t67 -149q1 -55 -23 -103.5t-68.5 -79.5t-99.5 -38zM107 309h157q43 0 79.5 21.5t58 58t21.5 79.5
q0 66 -46.5 112.5t-112.5 46.5h-157v-318zM335 834l-110 -93q-10 -8 -19 2l-13 16q-9 10 2 19l109 93q10 8 19 -2l13 -16q9 -10 -1 -19z" />
    <glyph glyph-name="racute" unicode="&#x155;" horiz-adv-x="530" 
d="M289 253l175 -232q5 -6 1.5 -13.5t-12.5 -7.5h-38q-6 0 -10 5l-186 247h-112v-235q0 -6 -4 -10t-9 -4h-31q-5 0 -9 4t-4 10v654q0 5 4 9t9 4h196q89 0 154 -61t67 -149q2 -55 -22.5 -103.5t-69 -79.5t-99.5 -38zM107 309h157q66 0 112.5 46.5t46.5 112.5q0 43 -21.5 80
t-58 58t-79.5 21h-157v-318zM335 834l-110 -93q-10 -8 -19 2l-13 16q-9 10 2 19l109 93q10 8 19 -2l13 -16q9 -10 -1 -19z" />
    <glyph glyph-name="Tcaron" unicode="&#x164;" horiz-adv-x="614" 
d="M550 684q6 0 10 -3.5t4 -9.5v-30q0 -6 -4 -10t-10 -4h-215v-614q0 -5 -4 -9t-9 -4h-30q-6 0 -10 4t-4 9v614h-215q-5 0 -9 4t-4 10v30q0 6 4 9.5t9 3.5h487zM299 727l-89 87q-10 10 -1 19l15 15q9 10 19 0l65 -63l63 63q9 9 19 0l14 -15q10 -9 0 -19l-86 -87q-9 -9 -19 0
z" />
    <glyph glyph-name="tcaron" unicode="&#x165;" horiz-adv-x="614" 
d="M550 684q6 0 10 -4t4 -9v-30q0 -6 -4 -10t-10 -4h-215v-614q0 -5 -4 -9t-9 -4h-30q-6 0 -10 4t-4 9v614h-215q-5 0 -9 4t-4 10v30q0 6 4 9.5t9 3.5h487zM299 727l-89 87q-10 9 -1 19l15 15q9 10 19 0l65 -64l63 64q9 9 19 0l14 -15q10 -9 0 -19l-86 -87q-9 -9 -19 0z" />
    <glyph glyph-name="Tbar" unicode="&#x166;" horiz-adv-x="614" 
d="M550 684q6 0 10 -3.5t4 -9.5v-30q0 -6 -4 -10t-10 -4h-215v-256h101q6 0 10 -4t4 -9v-30q0 -6 -4 -10t-10 -4h-101v-301q0 -5 -4 -9t-9 -4h-30q-6 0 -10 4t-4 9v301h-100q-6 0 -10 4t-4 10v30q0 6 4 9.5t10 3.5h100v256h-215q-5 0 -9 4t-4 10v30q0 6 4 9.5t9 3.5h487z
" />
    <glyph glyph-name="tbar" unicode="&#x167;" horiz-adv-x="614" 
d="M550 684q6 0 10 -4t4 -9v-30q0 -6 -4 -10t-10 -4h-215v-256h101q6 0 10 -4t4 -9v-30q0 -6 -4 -10t-10 -4h-101v-301q0 -5 -4 -9t-9 -4h-30q-6 0 -10 4t-4 9v301h-100q-6 0 -10 4t-4 10v30q0 5 4 9t10 4h100v256h-215q-5 0 -9 4t-4 10v30q0 6 4 9.5t9 3.5h487z" />
    <glyph glyph-name="Omegagreek" unicode="&#x3a9;" horiz-adv-x="565" 
d="M502 200q4 0 7 -2t4.5 -5t1.5 -7v-30q0 -5 -4 -9t-9 -4h-144q-11 0 -13 11l-7 33q-2 10 7 15q48 22 70.5 69t11 98t-52 83.5t-92.5 32.5t-93 -32.5t-52.5 -83.5t11.5 -98t70 -69q9 -5 7 -15l-6 -33q-2 -11 -13 -11h-143q-5 0 -9 4t-4 9v30q0 6 4 10t9 4h65
q-55 62 -51.5 144.5t63 140t142.5 57.5t142.5 -57.5t63 -140t-51.5 -144.5h66z" />
    <glyph glyph-name="quoteright" unicode="&#x2019;" horiz-adv-x="156" 
d="M97 686q4 0 6.5 -3t1.5 -6l-35 -203q-1 -7 -8 -7h-4q-8 0 -8 8v203q0 8 8 8h39z" />
    <glyph glyph-name="ellipsis" unicode="&#x2026;" horiz-adv-x="490" 
d="M123 13q-13 -12 -30.5 -12t-30 12.5t-12.5 30t12.5 30t30 12.5t30.5 -12.5t13 -30t-13 -30.5zM275 13q-12 -12 -30 -12t-30.5 12.5t-12.5 30t12.5 30t30.5 12.5t30.5 -12.5t12.5 -30t-13 -30.5zM427 13q-12 -12 -29.5 -12t-30.5 12.5t-13 30t13 30t30.5 12.5t30 -12.5
t12.5 -30t-13 -30.5z" />
    <glyph glyph-name="perthousand" unicode="&#x2030;" horiz-adv-x="833" 
d="M250 566q0 -42 -29.5 -71t-71 -29t-70.5 29t-29 71v19q0 41 29 70.5t70.5 29.5t71 -29.5t29.5 -70.5v-19zM193 566v19q0 17 -12.5 29.5t-30.5 12.5t-30.5 -12.5t-12.5 -29.5v-19q0 -18 12.5 -30.5t30.5 -12.5t30.5 12.5t12.5 30.5zM545 118v-19q0 -41 -29.5 -70.5
t-71 -29.5t-70.5 29.5t-29 70.5v19q0 42 29.5 71t70.5 29t70.5 -29t29.5 -71zM488 99v19q0 12 -6 22t-16 15.5t-21 5.5q-18 0 -30.5 -12.5t-12.5 -30.5v-19q0 -11 6 -21t15.5 -15.5t21.5 -5.5q18 0 30.5 12.5t12.5 29.5zM783 118v-19q0 -41 -29.5 -70.5t-71 -29.5
t-70.5 29.5t-29 70.5v19q0 42 29 71t70.5 29t71 -29t29.5 -71zM726 99v19q0 12 -6 22t-16 15.5t-21 5.5q-18 0 -30.5 -12.5t-12.5 -30.5v-19q0 -17 12.5 -29.5t30 -12.5t30.5 12.5t13 29.5zM409 685q6 0 10.5 -5t2.5 -12l-198 -658q-3 -10 -13 -10h-32q-6 0 -10.5 5.5
t-2.5 11.5l198 659q3 9 13 9h32z" />
    <glyph glyph-name="lira" unicode="&#x20a4;" horiz-adv-x="594" 
d="M530 57q6 0 10 -4t4 -9v-31q0 -5 -4 -9t-10 -4h-467q-5 0 -9 4t-4 9v31q0 5 4 9t9 4h15q38 0 66 26.5t28 62.5v109h-109q-5 0 -9 4t-4 10v30q0 5 4 9t9 4h109v62h-109q-5 0 -9 4t-4 9v30q0 6 4 10t9 4h109v48q0 83 59 144t142 61q74 0 130 -49q4 -4 4.5 -9.5t-3.5 -10.5
l-22 -21q-8 -9 -18 -1q-38 33 -89 34q-60 1 -103 -43t-43 -105v-48h105q6 0 10 -4t4 -10v-30q0 -5 -4 -9t-10 -4h-105v-62h105q6 0 10 -4t4 -9v-31q0 -5 -4 -9t-10 -4h-105v-109q0 -50 -32 -89h333z" />
    <glyph glyph-name="Euro" unicode="&#x20ac;" horiz-adv-x="812" 
d="M758 123q4 -4 4.5 -9.5t-3.5 -9.5q-65 -66 -153.5 -90.5t-178 -1.5t-155 88.5t-88.5 154.5h-121q-5 0 -9 4t-4 9v31q0 5 4 9t9 4h111q-2 16 -2 31t2 31h-111q-5 0 -9 4t-4 9v30q0 6 4 10t9 4h121q24 89 89 153.5t153.5 88.5t177.5 -0.5t153 -89.5q4 -4 4 -9.5t-4 -9.5
l-23 -21q-9 -8 -18 1q-53 53 -124.5 73t-143.5 2.5t-126.5 -67.5t-78.5 -121h139q6 0 10 -4t4 -10v-30q0 -5 -4 -9t-10 -4h-151q-3 -31 0 -62h151q6 0 9.5 -4t3.5 -9v-31q0 -5 -3.5 -9t-9.5 -4h-139q23 -71 78 -121.5t127.5 -68t144 3t124.5 73.5q9 10 19 1z" />
    <glyph glyph-name="trademark" unicode="&#x2122;" horiz-adv-x="574" 
d="M261 685q4 0 7 -1.5t5 -4.5t2 -7v-30q0 -6 -4 -10t-10 -4h-70v-189q0 -5 -4 -9t-9 -4h-31q-5 0 -9 4t-4 9v189h-71q-5 0 -9 4t-4 10v30q0 5 4 9t9 4h198zM511 685q2 0 4.5 -1t4.5 -2.5t3 -4t1 -5.5v-233q0 -5 -4 -9t-9 -4h-31q-5 0 -9 4t-4 9v107l-44 -74q-4 -7 -11.5 -7
t-11.5 6l-45 77v-109q0 -5 -4 -9t-10 -4h-30q-5 0 -9 4t-4 9v233q0 6 4 9.5t9 3.5h21q7 0 11 -6l68 -115l67 115q4 6 12 6h21z" />
    </font>
</defs>
</svg>
